<svg xmlns="http://www.w3.org/2000/svg" xmlns:xlink="http://www.w3.org/1999/xlink" width="3000" zoomAndPan="magnify" viewBox="0 0 2250 2250.000011" height="3000" preserveAspectRatio="xMidYMid meet" version="1.0"><defs><g/><clipPath id="6001e958ce"><path d="M 758 733.441406 L 958 733.441406 L 958 1079 L 758 1079 Z M 758 733.441406 " clip-rule="nonzero"/></clipPath><clipPath id="10c1ceeacb"><path d="M 1158 1302 L 1501 1302 L 1501 1515.34375 L 1158 1515.34375 Z M 1158 1302 " clip-rule="nonzero"/></clipPath><clipPath id="764b049a1a"><path d="M 749.09375 1199 L 1005 1199 L 1005 1244 L 749.09375 1244 Z M 749.09375 1199 " clip-rule="nonzero"/></clipPath></defs><g clip-path="url(#6001e958ce)"><path fill="#3f9fc4" d="M 887.035156 1078.617188 L 957.285156 1019.539062 C 888.914062 938.308594 870.976562 847.414062 850.207031 742.164062 C 849.636719 739.277344 849.054688 736.347656 848.480469 733.441406 C 833.441406 736.191406 818.359375 739.449219 803.035156 742.203125 C 788.617188 744.847656 773.539062 747.945312 758.527344 751.796875 L 760.136719 759.925781 C 782.398438 872.726562 803.421875 979.28125 887.035156 1078.617188 " fill-opacity="1" fill-rule="nonzero"/></g><path fill="#3f9fc4" d="M 903.226562 1077.21875 C 913.347656 1103.722656 919.910156 1131.566406 922.386719 1159.59375 L 930.511719 1158.871094 C 927.886719 1129.167969 920.808594 1099.648438 909.839844 1071.65625 L 903.226562 1077.21875 " fill-opacity="1" fill-rule="nonzero"/><g clip-path="url(#10c1ceeacb)"><path fill="#3f9fc4" d="M 1492.046875 1424.382812 C 1388.066406 1397.808594 1298.269531 1374.863281 1220.925781 1302.117188 L 1158.011719 1368.949219 C 1252.597656 1457.910156 1357.863281 1484.8125 1469.304688 1513.289062 L 1477.332031 1515.34375 C 1482.015625 1500.578125 1485.941406 1485.699219 1489.386719 1471.460938 C 1492.988281 1456.316406 1497.082031 1441.445312 1500.660156 1426.589844 C 1497.789062 1425.851562 1494.898438 1425.113281 1492.046875 1424.382812 " fill-opacity="1" fill-rule="nonzero"/></g><path fill="#3f9fc4" d="M 1013.394531 1375.765625 C 1004.757812 1369.296875 994.359375 1365.410156 983.667969 1364.285156 C 1018.421875 1336.1875 1055.375 1310.5625 1093.824219 1287.917969 L 1085.789062 1274.289062 C 1038.753906 1301.988281 993.921875 1334.070312 952.53125 1369.644531 C 949.582031 1372.175781 948.914062 1376.472656 950.945312 1379.785156 C 952.980469 1383.09375 957.121094 1384.441406 960.707031 1382.957031 C 971.136719 1378.65625 983.15625 1378.722656 993.640625 1382.773438 C 944.90625 1416.691406 900.199219 1456.253906 860.609375 1500.515625 L 872.410156 1511.0625 C 913.972656 1464.59375 961.292969 1423.410156 1013.0625 1388.664062 C 1015.1875 1387.234375 1016.472656 1384.847656 1016.5625 1382.300781 C 1016.625 1379.738281 1015.445312 1377.304688 1013.394531 1375.765625 " fill-opacity="1" fill-rule="nonzero"/><g clip-path="url(#764b049a1a)"><path fill="#3f9fc4" d="M 880.234375 1228.382812 C 880.710938 1224.640625 878.46875 1221.082031 874.886719 1219.890625 L 863.066406 1215.953125 C 909.546875 1214.257812 955.996094 1218.386719 1001.621094 1228.285156 L 1004.980469 1212.828125 C 944.820312 1199.769531 883.269531 1196.480469 822.054688 1203.046875 C 818.347656 1203.445312 815.425781 1206.367188 815.03125 1210.0625 C 814.632812 1213.765625 816.863281 1217.238281 820.394531 1218.414062 L 832.089844 1222.3125 L 749.445312 1228.152344 L 750.5625 1243.933594 L 872.941406 1235.289062 C 876.710938 1235.023438 879.769531 1232.132812 880.234375 1228.382812 " fill-opacity="1" fill-rule="nonzero"/></g><path fill="#3f9fc4" d="M 1148.355469 1218.011719 C 1182.773438 1207.785156 1218.050781 1201.292969 1253.71875 1198.609375 L 1232.40625 1206.804688 C 1229.007812 1208.109375 1226.945312 1211.566406 1227.398438 1215.175781 C 1227.898438 1218.816406 1230.710938 1221.617188 1234.324219 1222.042969 C 1290.328125 1228.621094 1346.671875 1237.957031 1401.785156 1249.804688 L 1405.117188 1234.339844 C 1359.761719 1224.589844 1313.578125 1216.523438 1267.441406 1210.28125 L 1302.671875 1196.726562 C 1306.207031 1195.363281 1308.28125 1191.691406 1307.621094 1187.960938 C 1307.023438 1184.289062 1303.746094 1181.492188 1299.957031 1181.429688 C 1247.070312 1180.574219 1194.546875 1187.78125 1143.84375 1202.851562 L 1148.355469 1218.011719 " fill-opacity="1" fill-rule="nonzero"/><path fill="#3f9fc4" d="M 1111.746094 1137.929688 C 1105.28125 1104.449219 1102.292969 1070.421875 1102.8125 1036.386719 L 1110.011719 1053.660156 C 1111.414062 1057.023438 1114.9375 1058.980469 1118.535156 1058.429688 C 1122.136719 1057.871094 1124.890625 1054.921875 1125.203125 1051.292969 C 1128.835938 1009.179688 1137.539062 967.519531 1151.082031 927.46875 L 1136.085938 922.402344 C 1125.410156 953.976562 1117.65625 986.527344 1112.921875 1019.511719 L 1103.980469 998.046875 C 1102.570312 994.683594 1099.058594 992.714844 1095.449219 993.269531 C 1091.847656 993.835938 1089.09375 996.785156 1088.785156 1000.417969 C 1084.769531 1047.378906 1087.269531 1094.652344 1096.207031 1140.929688 L 1111.746094 1137.929688 " fill-opacity="1" fill-rule="nonzero"/><path fill="#3f9fc4" d="M 1062.476562 1220.132812 L 948.578125 1299.359375 L 1144.085938 1256.382812 L 1105.699219 1216.828125 L 1219.601562 1137.601562 L 1024.097656 1180.578125 L 1062.476562 1220.132812 " fill-opacity="1" fill-rule="nonzero"/><path fill="#3f9fc4" d="M 1166.234375 1346.574219 C 1138.878906 1334.070312 1109.785156 1325.371094 1080.261719 1321.105469 L 1079.089844 1329.175781 C 1106.945312 1333.203125 1134.402344 1341.300781 1160.308594 1352.871094 L 1166.234375 1346.574219 " fill-opacity="1" fill-rule="nonzero"/><path fill="#3f9fc4" d="M 1173.554688 1338.796875 L 1179.273438 1332.726562 C 1165.375 1324.285156 1151.617188 1315.566406 1138.191406 1306.410156 C 1136.269531 1308.359375 1133.96875 1309.871094 1131.496094 1311.71875 C 1145.242188 1321.160156 1159.320312 1330.128906 1173.554688 1338.796875 " fill-opacity="1" fill-rule="nonzero"/><path fill="#3f9fc4" d="M 1189.90625 1321.425781 C 1172.742188 1309.933594 1155.800781 1297.53125 1139.816406 1283.953125 C 1137.730469 1285.714844 1135.746094 1287.542969 1134.136719 1289.832031 C 1150.144531 1303.46875 1167.085938 1315.917969 1184.238281 1327.445312 L 1189.90625 1321.425781 " fill-opacity="1" fill-rule="nonzero"/><path fill="#3f9fc4" d="M 1201.328125 1309.289062 C 1193.160156 1300.894531 1185.402344 1292.074219 1178.128906 1282.800781 C 1173.050781 1276.328125 1168.839844 1270.453125 1165.265625 1264.855469 C 1161.828125 1259.46875 1158.707031 1253.894531 1155.890625 1248.175781 C 1153.410156 1249.453125 1151.0625 1250.804688 1148.683594 1252.007812 C 1151.605469 1257.914062 1154.832031 1263.675781 1158.386719 1269.242188 C 1162.105469 1275.066406 1166.460938 1281.144531 1171.707031 1287.832031 C 1179.234375 1297.429688 1187.273438 1306.554688 1195.734375 1315.238281 L 1201.328125 1309.289062 " fill-opacity="1" fill-rule="nonzero"/><path fill="#3f9fc4" d="M 1017.039062 1203.980469 L 1022.714844 1198.121094 C 981.542969 1158.246094 951.199219 1109.644531 924.398438 1059.410156 L 918.011719 1064.785156 C 944.921875 1115.058594 975.476562 1163.730469 1017.039062 1203.980469 " fill-opacity="1" fill-rule="nonzero"/><path fill="#3f9fc4" d="M 1025.425781 1158.972656 C 988.59375 1128.976562 960.070312 1089.625 936.273438 1049.429688 L 929.945312 1054.75 C 953.996094 1095.210938 982.875 1134.84375 1020.273438 1165.292969 L 1025.425781 1158.972656 " fill-opacity="1" fill-rule="nonzero"/><path fill="#3f9fc4" d="M 942.78125 1043.949219 C 950.984375 1052.882812 959.652344 1061.40625 968.824219 1069.453125 C 975.207031 1075.058594 981.042969 1079.742188 986.652344 1083.777344 C 999.992188 1093.367188 1014.570312 1101.101562 1030 1106.765625 L 1032.816406 1099.113281 C 1018.078125 1093.703125 1004.152344 1086.316406 991.417969 1077.15625 C 986.023438 1073.273438 980.390625 1068.75 974.203125 1063.320312 C 965.347656 1055.546875 956.96875 1047.316406 949.03125 1038.695312 L 942.78125 1043.949219 " fill-opacity="1" fill-rule="nonzero"/><g fill="#3f9fc4" fill-opacity="1"><g transform="translate(778.577108, 1768.041904)"><g><path d="M 14.65625 0 L 14.65625 -124.140625 L 59.40625 -124.140625 C 66 -124.140625 72.179688 -123.503906 77.953125 -122.234375 C 83.734375 -120.960938 88.78125 -118.832031 93.09375 -115.84375 C 97.414062 -112.863281 100.84375 -108.898438 103.375 -103.953125 C 105.914062 -99.003906 107.1875 -92.847656 107.1875 -85.484375 C 107.1875 -76.347656 105.1875 -68.828125 101.1875 -62.921875 C 97.1875 -57.023438 91.828125 -52.613281 85.109375 -49.6875 L 113.28125 0 L 81.875 0 L 58.0625 -44.734375 L 42.640625 -44.734375 L 42.640625 0 Z M 42.640625 -67.015625 L 57.109375 -67.015625 C 64.472656 -67.015625 70.09375 -68.566406 73.96875 -71.671875 C 77.84375 -74.785156 79.78125 -79.390625 79.78125 -85.484375 C 79.78125 -91.578125 77.84375 -95.828125 73.96875 -98.234375 C 70.09375 -100.648438 64.472656 -101.859375 57.109375 -101.859375 L 42.640625 -101.859375 Z M 42.640625 -67.015625 "/></g></g></g><g fill="#3f9fc4" fill-opacity="1"><g transform="translate(895.282707, 1768.041904)"><g><path d="M 14.65625 0 L 14.65625 -124.140625 L 42.640625 -124.140625 L 42.640625 0 Z M 14.65625 0 "/></g></g></g><g fill="#3f9fc4" fill-opacity="1"><g transform="translate(952.588375, 1768.041904)"><g><path d="M 69.5 2.28125 C 60.988281 2.28125 53.019531 0.914062 45.59375 -1.8125 C 38.164062 -4.539062 31.722656 -8.566406 26.265625 -13.890625 C 20.816406 -19.222656 16.535156 -25.851562 13.421875 -33.78125 C 10.316406 -41.71875 8.765625 -50.894531 8.765625 -61.3125 C 8.765625 -71.59375 10.347656 -80.757812 13.515625 -88.8125 C 16.691406 -96.875 21.039062 -103.695312 26.5625 -109.28125 C 32.082031 -114.863281 38.519531 -119.113281 45.875 -122.03125 C 53.238281 -124.957031 61.046875 -126.421875 69.296875 -126.421875 C 78.304688 -126.421875 86.046875 -124.769531 92.515625 -121.46875 C 98.992188 -118.164062 104.265625 -114.421875 108.328125 -110.234375 L 93.671875 -92.34375 C 90.492188 -95.132812 87.128906 -97.476562 83.578125 -99.375 C 80.023438 -101.28125 75.582031 -102.234375 70.25 -102.234375 C 65.425781 -102.234375 61.015625 -101.3125 57.015625 -99.46875 C 53.023438 -97.632812 49.566406 -95.003906 46.640625 -91.578125 C 43.722656 -88.148438 41.46875 -83.960938 39.875 -79.015625 C 38.289062 -74.066406 37.5 -68.476562 37.5 -62.25 C 37.5 -49.4375 40.382812 -39.503906 46.15625 -32.453125 C 51.9375 -25.410156 60.664062 -21.890625 72.34375 -21.890625 C 74.882812 -21.890625 77.359375 -22.207031 79.765625 -22.84375 C 82.179688 -23.476562 84.148438 -24.429688 85.671875 -25.703125 L 85.671875 -47.03125 L 65.109375 -47.03125 L 65.109375 -69.875 L 110.421875 -69.875 L 110.421875 -12.75 C 106.109375 -8.5625 100.394531 -5.007812 93.28125 -2.09375 C 86.175781 0.820312 78.25 2.28125 69.5 2.28125 Z M 69.5 2.28125 "/></g></g></g><g fill="#3f9fc4" fill-opacity="1"><g transform="translate(1074.053567, 1768.041904)"><g><path d="M 69.5 2.28125 C 60.988281 2.28125 53.019531 0.914062 45.59375 -1.8125 C 38.164062 -4.539062 31.722656 -8.566406 26.265625 -13.890625 C 20.816406 -19.222656 16.535156 -25.851562 13.421875 -33.78125 C 10.316406 -41.71875 8.765625 -50.894531 8.765625 -61.3125 C 8.765625 -71.59375 10.347656 -80.757812 13.515625 -88.8125 C 16.691406 -96.875 21.039062 -103.695312 26.5625 -109.28125 C 32.082031 -114.863281 38.519531 -119.113281 45.875 -122.03125 C 53.238281 -124.957031 61.046875 -126.421875 69.296875 -126.421875 C 78.304688 -126.421875 86.046875 -124.769531 92.515625 -121.46875 C 98.992188 -118.164062 104.265625 -114.421875 108.328125 -110.234375 L 93.671875 -92.34375 C 90.492188 -95.132812 87.128906 -97.476562 83.578125 -99.375 C 80.023438 -101.28125 75.582031 -102.234375 70.25 -102.234375 C 65.425781 -102.234375 61.015625 -101.3125 57.015625 -99.46875 C 53.023438 -97.632812 49.566406 -95.003906 46.640625 -91.578125 C 43.722656 -88.148438 41.46875 -83.960938 39.875 -79.015625 C 38.289062 -74.066406 37.5 -68.476562 37.5 -62.25 C 37.5 -49.4375 40.382812 -39.503906 46.15625 -32.453125 C 51.9375 -25.410156 60.664062 -21.890625 72.34375 -21.890625 C 74.882812 -21.890625 77.359375 -22.207031 79.765625 -22.84375 C 82.179688 -23.476562 84.148438 -24.429688 85.671875 -25.703125 L 85.671875 -47.03125 L 65.109375 -47.03125 L 65.109375 -69.875 L 110.421875 -69.875 L 110.421875 -12.75 C 106.109375 -8.5625 100.394531 -5.007812 93.28125 -2.09375 C 86.175781 0.820312 78.25 2.28125 69.5 2.28125 Z M 69.5 2.28125 "/></g></g></g><g fill="#3f9fc4" fill-opacity="1"><g transform="translate(1195.518738, 1768.041904)"><g><path d="M 14.65625 0 L 14.65625 -124.140625 L 42.640625 -124.140625 L 42.640625 0 Z M 14.65625 0 "/></g></g></g><g fill="#3f9fc4" fill-opacity="1"><g transform="translate(1252.824417, 1768.041904)"><g><path d="M 14.65625 0 L 14.65625 -124.140625 L 43.40625 -124.140625 L 75.78125 -62.453125 L 87.953125 -35.03125 L 88.71875 -35.03125 C 88.082031 -41.632812 87.351562 -48.992188 86.53125 -57.109375 C 85.707031 -65.234375 85.296875 -72.976562 85.296875 -80.34375 L 85.296875 -124.140625 L 111.953125 -124.140625 L 111.953125 0 L 83.203125 0 L 50.828125 -61.875 L 38.65625 -88.90625 L 37.890625 -88.90625 C 38.523438 -82.050781 39.253906 -74.6875 40.078125 -66.8125 C 40.898438 -58.945312 41.3125 -51.335938 41.3125 -43.984375 L 41.3125 0 Z M 14.65625 0 "/></g></g></g><g fill="#3f9fc4" fill-opacity="1"><g transform="translate(1379.429973, 1768.041904)"><g><path d="M 69.5 2.28125 C 60.988281 2.28125 53.019531 0.914062 45.59375 -1.8125 C 38.164062 -4.539062 31.722656 -8.566406 26.265625 -13.890625 C 20.816406 -19.222656 16.535156 -25.851562 13.421875 -33.78125 C 10.316406 -41.71875 8.765625 -50.894531 8.765625 -61.3125 C 8.765625 -71.59375 10.347656 -80.757812 13.515625 -88.8125 C 16.691406 -96.875 21.039062 -103.695312 26.5625 -109.28125 C 32.082031 -114.863281 38.519531 -119.113281 45.875 -122.03125 C 53.238281 -124.957031 61.046875 -126.421875 69.296875 -126.421875 C 78.304688 -126.421875 86.046875 -124.769531 92.515625 -121.46875 C 98.992188 -118.164062 104.265625 -114.421875 108.328125 -110.234375 L 93.671875 -92.34375 C 90.492188 -95.132812 87.128906 -97.476562 83.578125 -99.375 C 80.023438 -101.28125 75.582031 -102.234375 70.25 -102.234375 C 65.425781 -102.234375 61.015625 -101.3125 57.015625 -99.46875 C 53.023438 -97.632812 49.566406 -95.003906 46.640625 -91.578125 C 43.722656 -88.148438 41.46875 -83.960938 39.875 -79.015625 C 38.289062 -74.066406 37.5 -68.476562 37.5 -62.25 C 37.5 -49.4375 40.382812 -39.503906 46.15625 -32.453125 C 51.9375 -25.410156 60.664062 -21.890625 72.34375 -21.890625 C 74.882812 -21.890625 77.359375 -22.207031 79.765625 -22.84375 C 82.179688 -23.476562 84.148438 -24.429688 85.671875 -25.703125 L 85.671875 -47.03125 L 65.109375 -47.03125 L 65.109375 -69.875 L 110.421875 -69.875 L 110.421875 -12.75 C 106.109375 -8.5625 100.394531 -5.007812 93.28125 -2.09375 C 86.175781 0.820312 78.25 2.28125 69.5 2.28125 Z M 69.5 2.28125 "/></g></g></g></svg>