<svg xmlns="http://www.w3.org/2000/svg" xmlns:xlink="http://www.w3.org/1999/xlink" width="3000" zoomAndPan="magnify" viewBox="0 0 2250 2250.000011" height="3000" preserveAspectRatio="xMidYMid meet" version="1.0"><defs><g/><clipPath id="274143afbe"><path d="M 841.035156 804 L 1409.28125 804 L 1409.28125 1573 L 841.035156 1573 Z M 841.035156 804 " clip-rule="nonzero"/></clipPath></defs><g clip-path="url(#274143afbe)"><path fill="#3f9fc4" d="M 1387.058594 1476.351562 C 1387.058594 1502.679688 1373.136719 1525.714844 1352.257812 1538.597656 L 1352.257812 837.425781 C 1373.136719 850.402344 1387.058594 873.347656 1387.058594 899.675781 Z M 1329.871094 1547.8125 C 1317.503906 1550.632812 933.941406 1550.867188 920.445312 1547.8125 L 920.445312 828.257812 C 932.816406 825.484375 1316.375 825.25 1329.871094 828.257812 Z M 898.0625 1538.597656 C 877.179688 1525.714844 863.261719 1502.679688 863.261719 1476.351562 L 863.261719 899.675781 C 863.261719 873.347656 877.179688 850.402344 898.0625 837.425781 Z M 1313.835938 804.09375 L 936.484375 804.09375 C 883.765625 804.09375 840.875 846.972656 840.875 899.675781 L 840.875 1476.351562 C 840.875 1529.148438 883.765625 1572.027344 936.484375 1572.027344 L 1313.835938 1572.027344 C 1366.554688 1572.027344 1409.441406 1529.148438 1409.441406 1476.351562 L 1409.441406 899.675781 C 1409.441406 846.972656 1366.554688 804.09375 1313.835938 804.09375 " fill-opacity="1" fill-rule="nonzero"/></g><path fill="#3f9fc4" d="M 960.136719 886.792969 C 979.703125 886.792969 979.703125 857.171875 960.136719 857.171875 C 940.527344 857.171875 940.574219 886.792969 960.136719 886.792969 " fill-opacity="1" fill-rule="nonzero"/><path fill="#3f9fc4" d="M 1292.25 857.171875 C 1272.683594 857.171875 1272.683594 886.792969 1292.25 886.792969 C 1311.859375 886.792969 1311.8125 857.171875 1292.25 857.171875 " fill-opacity="1" fill-rule="nonzero"/><path fill="#3f9fc4" d="M 960.136719 1480.957031 C 940.527344 1480.957031 940.574219 1510.578125 960.136719 1510.578125 C 979.703125 1510.578125 979.703125 1480.957031 960.136719 1480.957031 " fill-opacity="1" fill-rule="nonzero"/><path fill="#3f9fc4" d="M 1292.25 1480.957031 C 1272.683594 1480.957031 1272.683594 1510.578125 1292.25 1510.578125 C 1311.859375 1510.578125 1311.8125 1480.957031 1292.25 1480.957031 " fill-opacity="1" fill-rule="nonzero"/><path fill="#3f9fc4" d="M 1125.160156 1462.578125 C 1042.90625 1462.578125 975.984375 1395.722656 975.984375 1313.445312 C 975.984375 1231.3125 1042.90625 1164.410156 1125.160156 1164.410156 C 1207.410156 1164.410156 1274.332031 1231.3125 1274.332031 1313.445312 C 1274.332031 1395.722656 1207.410156 1462.578125 1125.160156 1462.578125 Z M 1125.160156 1142.03125 C 1030.585938 1142.03125 953.648438 1218.949219 953.648438 1313.445312 C 953.648438 1407.992188 1030.585938 1484.90625 1125.160156 1484.90625 C 1219.730469 1484.90625 1296.667969 1407.992188 1296.667969 1313.445312 C 1296.667969 1218.949219 1219.730469 1142.03125 1125.160156 1142.03125 " fill-opacity="1" fill-rule="nonzero"/><path fill="#3f9fc4" d="M 1125.160156 1369.535156 C 1094.214844 1369.535156 1069.101562 1344.382812 1069.101562 1313.445312 C 1069.101562 1282.605469 1094.214844 1257.40625 1125.160156 1257.40625 C 1156.054688 1257.40625 1181.214844 1282.605469 1181.214844 1313.445312 C 1181.214844 1344.382812 1156.054688 1369.535156 1125.160156 1369.535156 Z M 1125.160156 1235.027344 C 1081.894531 1235.027344 1046.714844 1270.242188 1046.714844 1313.445312 C 1046.714844 1356.699219 1081.894531 1391.867188 1125.160156 1391.867188 C 1168.425781 1391.867188 1203.601562 1356.699219 1203.601562 1313.445312 C 1203.601562 1270.242188 1168.425781 1235.027344 1125.160156 1235.027344 " fill-opacity="1" fill-rule="nonzero"/><path fill="#3f9fc4" d="M 1125.160156 1064.976562 C 1094.214844 1064.976562 1069.101562 1039.824219 1069.101562 1008.980469 C 1069.101562 978.046875 1094.214844 952.941406 1125.160156 952.941406 C 1156.054688 952.941406 1181.214844 978.046875 1181.214844 1008.980469 C 1181.214844 1039.824219 1156.054688 1064.976562 1125.160156 1064.976562 Z M 1125.160156 930.5625 C 1081.894531 930.5625 1046.714844 965.730469 1046.714844 1008.980469 C 1046.714844 1052.234375 1081.894531 1087.355469 1125.160156 1087.355469 C 1168.425781 1087.355469 1203.601562 1052.234375 1203.601562 1008.980469 C 1203.601562 965.730469 1168.425781 930.5625 1125.160156 930.5625 " fill-opacity="1" fill-rule="nonzero"/><g fill="#3f9fc4" fill-opacity="1"><g transform="translate(875.325781, 1722.865455)"><g><path d="M 43 1.875 C 36.351562 1.875 29.734375 0.65625 23.140625 -1.78125 C 16.546875 -4.226562 10.648438 -7.894531 5.453125 -12.78125 L 18.546875 -28.515625 C 22.179688 -25.398438 26.203125 -22.851562 30.609375 -20.875 C 35.023438 -18.90625 39.363281 -17.921875 43.625 -17.921875 C 48.40625 -17.921875 51.960938 -18.800781 54.296875 -20.5625 C 56.628906 -22.332031 57.796875 -24.722656 57.796875 -27.734375 C 57.796875 -29.285156 57.457031 -30.632812 56.78125 -31.78125 C 56.113281 -32.925781 55.128906 -33.9375 53.828125 -34.8125 C 52.523438 -35.695312 50.960938 -36.53125 49.140625 -37.3125 C 47.328125 -38.09375 45.332031 -38.953125 43.15625 -39.890625 L 29.90625 -45.5 C 27.3125 -46.53125 24.796875 -47.875 22.359375 -49.53125 C 19.921875 -51.195312 17.738281 -53.144531 15.8125 -55.375 C 13.894531 -57.613281 12.363281 -60.210938 11.21875 -63.171875 C 10.070312 -66.128906 9.5 -69.476562 9.5 -73.21875 C 9.5 -77.375 10.378906 -81.296875 12.140625 -84.984375 C 13.910156 -88.671875 16.40625 -91.890625 19.625 -94.640625 C 22.84375 -97.398438 26.660156 -99.554688 31.078125 -101.109375 C 35.492188 -102.671875 40.351562 -103.453125 45.65625 -103.453125 C 51.570312 -103.453125 57.410156 -102.304688 63.171875 -100.015625 C 68.941406 -97.734375 74.003906 -94.410156 78.359375 -90.046875 L 66.6875 -75.5625 C 63.363281 -78.15625 60.035156 -80.148438 56.703125 -81.546875 C 53.378906 -82.953125 49.695312 -83.65625 45.65625 -83.65625 C 41.707031 -83.65625 38.5625 -82.847656 36.21875 -81.234375 C 33.882812 -79.628906 32.71875 -77.375 32.71875 -74.46875 C 32.71875 -72.914062 33.101562 -71.59375 33.875 -70.5 C 34.65625 -69.40625 35.75 -68.414062 37.15625 -67.53125 C 38.5625 -66.65625 40.195312 -65.828125 42.0625 -65.046875 C 43.9375 -64.265625 45.960938 -63.40625 48.140625 -62.46875 L 61.234375 -57.171875 C 67.460938 -54.679688 72.367188 -51.253906 75.953125 -46.890625 C 79.535156 -42.523438 81.328125 -36.757812 81.328125 -29.59375 C 81.328125 -25.34375 80.46875 -21.320312 78.75 -17.53125 C 77.039062 -13.738281 74.550781 -10.410156 71.28125 -7.546875 C 68.007812 -4.691406 63.984375 -2.40625 59.203125 -0.6875 C 54.421875 1.019531 49.019531 1.875 43 1.875 Z M 43 1.875 "/></g></g></g><g fill="#3f9fc4" fill-opacity="1"><g transform="translate(961.951576, 1722.865455)"><g><path d="M 53.28125 1.875 C 46.425781 1.875 40.164062 0.65625 34.5 -1.78125 C 28.84375 -4.226562 23.988281 -7.734375 19.9375 -12.296875 C 15.882812 -16.867188 12.742188 -22.425781 10.515625 -28.96875 C 8.285156 -35.519531 7.171875 -42.945312 7.171875 -51.25 C 7.171875 -59.5625 8.285156 -66.960938 10.515625 -73.453125 C 12.742188 -79.953125 15.882812 -85.40625 19.9375 -89.8125 C 23.988281 -94.226562 28.84375 -97.601562 34.5 -99.9375 C 40.164062 -102.28125 46.425781 -103.453125 53.28125 -103.453125 C 60.132812 -103.453125 66.390625 -102.28125 72.046875 -99.9375 C 77.710938 -97.601562 82.570312 -94.203125 86.625 -89.734375 C 90.675781 -85.273438 93.816406 -79.796875 96.046875 -73.296875 C 98.273438 -66.804688 99.390625 -59.457031 99.390625 -51.25 C 99.390625 -42.945312 98.273438 -35.519531 96.046875 -28.96875 C 93.816406 -22.425781 90.675781 -16.867188 86.625 -12.296875 C 82.570312 -7.734375 77.710938 -4.226562 72.046875 -1.78125 C 66.390625 0.65625 60.132812 1.875 53.28125 1.875 Z M 53.28125 -17.921875 C 60.238281 -17.921875 65.742188 -20.90625 69.796875 -26.875 C 73.847656 -32.84375 75.875 -40.96875 75.875 -51.25 C 75.875 -61.4375 73.847656 -69.382812 69.796875 -75.09375 C 65.742188 -80.800781 60.238281 -83.65625 53.28125 -83.65625 C 46.320312 -83.65625 40.816406 -80.800781 36.765625 -75.09375 C 32.710938 -69.382812 30.6875 -61.4375 30.6875 -51.25 C 30.6875 -40.96875 32.710938 -32.84375 36.765625 -26.875 C 40.816406 -20.90625 46.320312 -17.921875 53.28125 -17.921875 Z M 53.28125 -17.921875 "/></g></g></g><g fill="#3f9fc4" fill-opacity="1"><g transform="translate(1068.52, 1722.865455)"><g><path d="M 52.03125 1.875 C 38.84375 1.875 28.769531 -2.019531 21.8125 -9.8125 C 14.851562 -17.601562 11.375 -30.015625 11.375 -47.046875 L 11.375 -101.578125 L 34.4375 -101.578125 L 34.4375 -44.71875 C 34.4375 -34.738281 35.941406 -27.773438 38.953125 -23.828125 C 41.960938 -19.890625 46.320312 -17.921875 52.03125 -17.921875 C 57.75 -17.921875 62.164062 -19.890625 65.28125 -23.828125 C 68.394531 -27.773438 69.953125 -34.738281 69.953125 -44.71875 L 69.953125 -101.578125 L 92.078125 -101.578125 L 92.078125 -47.046875 C 92.078125 -30.015625 88.675781 -17.601562 81.875 -9.8125 C 75.070312 -2.019531 65.125 1.875 52.03125 1.875 Z M 52.03125 1.875 "/></g></g></g><g fill="#3f9fc4" fill-opacity="1"><g transform="translate(1172.128168, 1722.865455)"><g><path d="M 12 0 L 12 -101.578125 L 35.515625 -101.578125 L 62 -51.09375 L 71.984375 -28.671875 L 72.59375 -28.671875 C 72.082031 -34.066406 71.488281 -40.085938 70.8125 -46.734375 C 70.132812 -53.378906 69.796875 -59.71875 69.796875 -65.75 L 69.796875 -101.578125 L 91.609375 -101.578125 L 91.609375 0 L 68.078125 0 L 41.59375 -50.640625 L 31.625 -72.75 L 31 -72.75 C 31.519531 -67.144531 32.117188 -61.125 32.796875 -54.6875 C 33.472656 -48.25 33.8125 -42.015625 33.8125 -35.984375 L 33.8125 0 Z M 12 0 "/></g></g></g><g fill="#3f9fc4" fill-opacity="1"><g transform="translate(1275.736336, 1722.865455)"><g><path d="M 12 0 L 12 -101.578125 L 40.65625 -101.578125 C 48.445312 -101.578125 55.457031 -100.585938 61.6875 -98.609375 C 67.925781 -96.640625 73.273438 -93.601562 77.734375 -89.5 C 82.203125 -85.394531 85.628906 -80.175781 88.015625 -73.84375 C 90.410156 -67.507812 91.609375 -59.976562 91.609375 -51.25 C 91.609375 -42.53125 90.410156 -34.945312 88.015625 -28.5 C 85.628906 -22.0625 82.253906 -16.738281 77.890625 -12.53125 C 73.535156 -8.332031 68.316406 -5.191406 62.234375 -3.109375 C 56.160156 -1.035156 49.382812 0 41.90625 0 Z M 34.90625 -18.546875 L 39.265625 -18.546875 C 43.617188 -18.546875 47.5625 -19.113281 51.09375 -20.25 C 54.625 -21.394531 57.632812 -23.238281 60.125 -25.78125 C 62.625 -28.320312 64.570312 -31.671875 65.96875 -35.828125 C 67.375 -39.984375 68.078125 -45.125 68.078125 -51.25 C 68.078125 -57.28125 67.375 -62.34375 65.96875 -66.4375 C 64.570312 -70.539062 62.625 -73.8125 60.125 -76.25 C 57.632812 -78.695312 54.625 -80.441406 51.09375 -81.484375 C 47.5625 -82.523438 43.617188 -83.046875 39.265625 -83.046875 L 34.90625 -83.046875 Z M 34.90625 -18.546875 "/></g></g></g><g fill="#3f9fc4" fill-opacity="1"><g transform="translate(808.804567, 1863.053144)"><g><path d="M 43 1.875 C 36.351562 1.875 29.734375 0.65625 23.140625 -1.78125 C 16.546875 -4.226562 10.648438 -7.894531 5.453125 -12.78125 L 18.546875 -28.515625 C 22.179688 -25.398438 26.203125 -22.851562 30.609375 -20.875 C 35.023438 -18.90625 39.363281 -17.921875 43.625 -17.921875 C 48.40625 -17.921875 51.960938 -18.800781 54.296875 -20.5625 C 56.628906 -22.332031 57.796875 -24.722656 57.796875 -27.734375 C 57.796875 -29.285156 57.457031 -30.632812 56.78125 -31.78125 C 56.113281 -32.925781 55.128906 -33.9375 53.828125 -34.8125 C 52.523438 -35.695312 50.960938 -36.53125 49.140625 -37.3125 C 47.328125 -38.09375 45.332031 -38.953125 43.15625 -39.890625 L 29.90625 -45.5 C 27.3125 -46.53125 24.796875 -47.875 22.359375 -49.53125 C 19.921875 -51.195312 17.738281 -53.144531 15.8125 -55.375 C 13.894531 -57.613281 12.363281 -60.210938 11.21875 -63.171875 C 10.070312 -66.128906 9.5 -69.476562 9.5 -73.21875 C 9.5 -77.375 10.378906 -81.296875 12.140625 -84.984375 C 13.910156 -88.671875 16.40625 -91.890625 19.625 -94.640625 C 22.84375 -97.398438 26.660156 -99.554688 31.078125 -101.109375 C 35.492188 -102.671875 40.351562 -103.453125 45.65625 -103.453125 C 51.570312 -103.453125 57.410156 -102.304688 63.171875 -100.015625 C 68.941406 -97.734375 74.003906 -94.410156 78.359375 -90.046875 L 66.6875 -75.5625 C 63.363281 -78.15625 60.035156 -80.148438 56.703125 -81.546875 C 53.378906 -82.953125 49.695312 -83.65625 45.65625 -83.65625 C 41.707031 -83.65625 38.5625 -82.847656 36.21875 -81.234375 C 33.882812 -79.628906 32.71875 -77.375 32.71875 -74.46875 C 32.71875 -72.914062 33.101562 -71.59375 33.875 -70.5 C 34.65625 -69.40625 35.75 -68.414062 37.15625 -67.53125 C 38.5625 -66.65625 40.195312 -65.828125 42.0625 -65.046875 C 43.9375 -64.265625 45.960938 -63.40625 48.140625 -62.46875 L 61.234375 -57.171875 C 67.460938 -54.679688 72.367188 -51.253906 75.953125 -46.890625 C 79.535156 -42.523438 81.328125 -36.757812 81.328125 -29.59375 C 81.328125 -25.34375 80.46875 -21.320312 78.75 -17.53125 C 77.039062 -13.738281 74.550781 -10.410156 71.28125 -7.546875 C 68.007812 -4.691406 63.984375 -2.40625 59.203125 -0.6875 C 54.421875 1.019531 49.019531 1.875 43 1.875 Z M 43 1.875 "/></g></g></g><g fill="#3f9fc4" fill-opacity="1"><g transform="translate(895.430363, 1863.053144)"><g><path d="M 29.453125 0 L 29.453125 -36.140625 L -1.25 -101.578125 L 23.375 -101.578125 L 32.40625 -78.203125 C 33.863281 -74.367188 35.238281 -70.660156 36.53125 -67.078125 C 37.832031 -63.492188 39.207031 -59.726562 40.65625 -55.78125 L 41.28125 -55.78125 C 42.738281 -59.726562 44.164062 -63.492188 45.5625 -67.078125 C 46.96875 -70.660156 48.398438 -74.367188 49.859375 -78.203125 L 59.046875 -101.578125 L 83.046875 -101.578125 L 52.34375 -36.140625 L 52.34375 0 Z M 29.453125 0 "/></g></g></g><g fill="#3f9fc4" fill-opacity="1"><g transform="translate(977.2263, 1863.053144)"><g><path d="M 43 1.875 C 36.351562 1.875 29.734375 0.65625 23.140625 -1.78125 C 16.546875 -4.226562 10.648438 -7.894531 5.453125 -12.78125 L 18.546875 -28.515625 C 22.179688 -25.398438 26.203125 -22.851562 30.609375 -20.875 C 35.023438 -18.90625 39.363281 -17.921875 43.625 -17.921875 C 48.40625 -17.921875 51.960938 -18.800781 54.296875 -20.5625 C 56.628906 -22.332031 57.796875 -24.722656 57.796875 -27.734375 C 57.796875 -29.285156 57.457031 -30.632812 56.78125 -31.78125 C 56.113281 -32.925781 55.128906 -33.9375 53.828125 -34.8125 C 52.523438 -35.695312 50.960938 -36.53125 49.140625 -37.3125 C 47.328125 -38.09375 45.332031 -38.953125 43.15625 -39.890625 L 29.90625 -45.5 C 27.3125 -46.53125 24.796875 -47.875 22.359375 -49.53125 C 19.921875 -51.195312 17.738281 -53.144531 15.8125 -55.375 C 13.894531 -57.613281 12.363281 -60.210938 11.21875 -63.171875 C 10.070312 -66.128906 9.5 -69.476562 9.5 -73.21875 C 9.5 -77.375 10.378906 -81.296875 12.140625 -84.984375 C 13.910156 -88.671875 16.40625 -91.890625 19.625 -94.640625 C 22.84375 -97.398438 26.660156 -99.554688 31.078125 -101.109375 C 35.492188 -102.671875 40.351562 -103.453125 45.65625 -103.453125 C 51.570312 -103.453125 57.410156 -102.304688 63.171875 -100.015625 C 68.941406 -97.734375 74.003906 -94.410156 78.359375 -90.046875 L 66.6875 -75.5625 C 63.363281 -78.15625 60.035156 -80.148438 56.703125 -81.546875 C 53.378906 -82.953125 49.695312 -83.65625 45.65625 -83.65625 C 41.707031 -83.65625 38.5625 -82.847656 36.21875 -81.234375 C 33.882812 -79.628906 32.71875 -77.375 32.71875 -74.46875 C 32.71875 -72.914062 33.101562 -71.59375 33.875 -70.5 C 34.65625 -69.40625 35.75 -68.414062 37.15625 -67.53125 C 38.5625 -66.65625 40.195312 -65.828125 42.0625 -65.046875 C 43.9375 -64.265625 45.960938 -63.40625 48.140625 -62.46875 L 61.234375 -57.171875 C 67.460938 -54.679688 72.367188 -51.253906 75.953125 -46.890625 C 79.535156 -42.523438 81.328125 -36.757812 81.328125 -29.59375 C 81.328125 -25.34375 80.46875 -21.320312 78.75 -17.53125 C 77.039062 -13.738281 74.550781 -10.410156 71.28125 -7.546875 C 68.007812 -4.691406 63.984375 -2.40625 59.203125 -0.6875 C 54.421875 1.019531 49.019531 1.875 43 1.875 Z M 43 1.875 "/></g></g></g><g fill="#3f9fc4" fill-opacity="1"><g transform="translate(1063.852107, 1863.053144)"><g><path d="M 31.78125 0 L 31.78125 -82.265625 L 3.890625 -82.265625 L 3.890625 -101.578125 L 82.734375 -101.578125 L 82.734375 -82.265625 L 54.84375 -82.265625 L 54.84375 0 Z M 31.78125 0 "/></g></g></g><g fill="#3f9fc4" fill-opacity="1"><g transform="translate(1150.477903, 1863.053144)"><g><path d="M 12 0 L 12 -101.578125 L 75.5625 -101.578125 L 75.5625 -82.265625 L 34.90625 -82.265625 L 34.90625 -61.84375 L 69.484375 -61.84375 L 69.484375 -42.6875 L 34.90625 -42.6875 L 34.90625 -19.3125 L 77.125 -19.3125 L 77.125 0 Z M 12 0 "/></g></g></g><g fill="#3f9fc4" fill-opacity="1"><g transform="translate(1235.857304, 1863.053144)"><g><path d="M 12 0 L 12 -101.578125 L 37.078125 -101.578125 L 53.4375 -56.390625 C 54.476562 -53.378906 55.460938 -50.289062 56.390625 -47.125 C 57.328125 -43.957031 58.316406 -40.816406 59.359375 -37.703125 L 59.984375 -37.703125 C 61.023438 -40.816406 61.984375 -43.957031 62.859375 -47.125 C 63.742188 -50.289062 64.707031 -53.378906 65.75 -56.390625 L 81.796875 -101.578125 L 106.71875 -101.578125 L 106.71875 0 L 85.84375 0 L 85.84375 -37.234375 C 85.84375 -39.722656 85.945312 -42.472656 86.15625 -45.484375 C 86.363281 -48.503906 86.625 -51.546875 86.9375 -54.609375 C 87.25 -57.671875 87.5625 -60.679688 87.875 -63.640625 C 88.1875 -66.597656 88.492188 -69.328125 88.796875 -71.828125 L 88.1875 -71.828125 L 79.921875 -47.671875 L 65.4375 -8.875 L 52.8125 -8.875 L 38.328125 -47.671875 L 30.21875 -71.828125 L 29.59375 -71.828125 C 29.90625 -69.328125 30.21875 -66.597656 30.53125 -63.640625 C 30.84375 -60.679688 31.15625 -57.671875 31.46875 -54.609375 C 31.78125 -51.546875 32.039062 -48.503906 32.25 -45.484375 C 32.457031 -42.472656 32.5625 -39.722656 32.5625 -37.234375 L 32.5625 0 Z M 12 0 "/></g></g></g><g fill="#3f9fc4" fill-opacity="1"><g transform="translate(1354.578277, 1863.053144)"><g><path d="M 43 1.875 C 36.351562 1.875 29.734375 0.65625 23.140625 -1.78125 C 16.546875 -4.226562 10.648438 -7.894531 5.453125 -12.78125 L 18.546875 -28.515625 C 22.179688 -25.398438 26.203125 -22.851562 30.609375 -20.875 C 35.023438 -18.90625 39.363281 -17.921875 43.625 -17.921875 C 48.40625 -17.921875 51.960938 -18.800781 54.296875 -20.5625 C 56.628906 -22.332031 57.796875 -24.722656 57.796875 -27.734375 C 57.796875 -29.285156 57.457031 -30.632812 56.78125 -31.78125 C 56.113281 -32.925781 55.128906 -33.9375 53.828125 -34.8125 C 52.523438 -35.695312 50.960938 -36.53125 49.140625 -37.3125 C 47.328125 -38.09375 45.332031 -38.953125 43.15625 -39.890625 L 29.90625 -45.5 C 27.3125 -46.53125 24.796875 -47.875 22.359375 -49.53125 C 19.921875 -51.195312 17.738281 -53.144531 15.8125 -55.375 C 13.894531 -57.613281 12.363281 -60.210938 11.21875 -63.171875 C 10.070312 -66.128906 9.5 -69.476562 9.5 -73.21875 C 9.5 -77.375 10.378906 -81.296875 12.140625 -84.984375 C 13.910156 -88.671875 16.40625 -91.890625 19.625 -94.640625 C 22.84375 -97.398438 26.660156 -99.554688 31.078125 -101.109375 C 35.492188 -102.671875 40.351562 -103.453125 45.65625 -103.453125 C 51.570312 -103.453125 57.410156 -102.304688 63.171875 -100.015625 C 68.941406 -97.734375 74.003906 -94.410156 78.359375 -90.046875 L 66.6875 -75.5625 C 63.363281 -78.15625 60.035156 -80.148438 56.703125 -81.546875 C 53.378906 -82.953125 49.695312 -83.65625 45.65625 -83.65625 C 41.707031 -83.65625 38.5625 -82.847656 36.21875 -81.234375 C 33.882812 -79.628906 32.71875 -77.375 32.71875 -74.46875 C 32.71875 -72.914062 33.101562 -71.59375 33.875 -70.5 C 34.65625 -69.40625 35.75 -68.414062 37.15625 -67.53125 C 38.5625 -66.65625 40.195312 -65.828125 42.0625 -65.046875 C 43.9375 -64.265625 45.960938 -63.40625 48.140625 -62.46875 L 61.234375 -57.171875 C 67.460938 -54.679688 72.367188 -51.253906 75.953125 -46.890625 C 79.535156 -42.523438 81.328125 -36.757812 81.328125 -29.59375 C 81.328125 -25.34375 80.46875 -21.320312 78.75 -17.53125 C 77.039062 -13.738281 74.550781 -10.410156 71.28125 -7.546875 C 68.007812 -4.691406 63.984375 -2.40625 59.203125 -0.6875 C 54.421875 1.019531 49.019531 1.875 43 1.875 Z M 43 1.875 "/></g></g></g></svg>