<svg xmlns="http://www.w3.org/2000/svg" xmlns:xlink="http://www.w3.org/1999/xlink" width="3000" zoomAndPan="magnify" viewBox="0 0 2250 2250.000011" height="3000" preserveAspectRatio="xMidYMid meet" version="1.0"><defs><g/><clipPath id="9d5cd786a4"><path d="M 707.234375 812.773438 L 1543.113281 812.773438 L 1543.113281 1491.96875 L 707.234375 1491.96875 Z M 707.234375 812.773438 " clip-rule="nonzero"/></clipPath></defs><g clip-path="url(#9d5cd786a4)"><path fill="#3f9fc4" d="M 746.421875 812.773438 C 724.839844 812.773438 707.238281 830.375 707.238281 851.957031 L 707.238281 1452.785156 C 707.238281 1474.367188 724.839844 1491.96875 746.421875 1491.96875 L 1503.925781 1491.96875 C 1525.507812 1491.96875 1543.109375 1474.367188 1543.109375 1452.785156 L 1543.109375 851.957031 C 1543.109375 830.375 1525.507812 812.773438 1503.925781 812.773438 Z M 746.421875 838.894531 L 1503.925781 838.894531 C 1511.121094 838.894531 1516.988281 844.761719 1516.988281 851.957031 L 1516.988281 1452.785156 C 1516.988281 1459.980469 1511.121094 1465.847656 1503.925781 1465.847656 L 746.421875 1465.847656 C 739.226562 1465.847656 733.359375 1459.980469 733.359375 1452.785156 L 733.359375 851.957031 C 733.359375 844.761719 739.226562 838.894531 746.421875 838.894531 Z M 928.859375 917.265625 C 893.25 917.316406 859.679688 930.222656 832.945312 954.355469 C 802.84375 981.550781 785.601562 1020.378906 785.601562 1061.910156 C 785.753906 1082.980469 803.355469 1100.125 824.78125 1100.125 L 1033.699219 1100.125 C 1055.28125 1100.125 1072.878906 1082.726562 1072.929688 1061.347656 C 1072.984375 1052.726562 1072.167969 1043.949219 1070.6875 1035.277344 C 1059.617188 972.621094 1007.628906 924.457031 944.164062 918.03125 C 939.0625 917.519531 933.910156 917.265625 928.859375 917.265625 Z M 1164.355469 917.265625 C 1157.109375 917.265625 1151.292969 923.132812 1151.292969 930.324219 L 1151.292969 1087.0625 C 1151.292969 1094.257812 1157.109375 1100.125 1164.355469 1100.125 C 1171.597656 1100.125 1177.414062 1094.257812 1177.414062 1087.0625 L 1177.414062 930.324219 C 1177.414062 923.132812 1171.597656 917.265625 1164.355469 917.265625 Z M 1294.960938 917.265625 C 1287.714844 917.265625 1281.898438 923.132812 1281.898438 930.324219 L 1281.898438 982.570312 C 1281.898438 989.765625 1287.714844 995.632812 1294.960938 995.632812 C 1302.203125 995.632812 1308.019531 989.765625 1308.019531 982.570312 L 1308.019531 930.324219 C 1308.019531 923.132812 1302.203125 917.265625 1294.960938 917.265625 Z M 1425.5625 917.265625 C 1418.320312 917.265625 1412.503906 923.132812 1412.503906 930.324219 L 1412.503906 1113.1875 C 1412.503906 1120.378906 1418.320312 1126.25 1425.5625 1126.25 C 1432.808594 1126.25 1438.625 1120.378906 1438.625 1113.1875 L 1438.625 930.324219 C 1438.625 923.132812 1432.808594 917.265625 1425.5625 917.265625 Z M 929.113281 943.386719 C 933.246094 943.386719 937.378906 943.589844 941.5625 944 C 992.578125 949.203125 1036.046875 989.460938 1044.972656 1039.816406 C 1046.199219 1046.960938 1046.863281 1054.15625 1046.8125 1061.296875 C 1046.8125 1068.289062 1040.894531 1074.003906 1033.699219 1074.003906 L 944.519531 1074.003906 L 979.671875 1015.429688 C 983.34375 1009.257812 981.355469 1001.195312 975.183594 997.46875 C 968.957031 993.796875 960.949219 995.785156 957.222656 1001.960938 L 918.042969 1067.265625 C 916.816406 1069.410156 914.574219 1074.003906 914.574219 1074.003906 L 824.78125 1074.003906 C 817.792969 1074.003906 811.773438 1068.390625 811.722656 1060.941406 C 811.722656 1027.777344 825.855469 995.992188 850.496094 973.746094 C 872.382812 953.949219 899.929688 943.386719 929.113281 943.386719 Z M 1294.960938 1021.757812 C 1266.082031 1021.757812 1242.71875 1045.125 1242.71875 1074.003906 C 1242.71875 1098.289062 1259.296875 1118.800781 1281.898438 1124.566406 L 1281.898438 1296.046875 C 1281.898438 1303.242188 1287.765625 1309.109375 1294.960938 1309.109375 C 1302.152344 1309.109375 1308.019531 1303.242188 1308.019531 1296.046875 L 1308.019531 1124.566406 C 1330.621094 1118.800781 1347.203125 1098.289062 1347.203125 1074.003906 C 1347.203125 1045.125 1323.835938 1021.757812 1294.960938 1021.757812 Z M 1294.960938 1047.878906 C 1299.652344 1047.878906 1304.246094 1049.15625 1308.019531 1051.398438 C 1315.875 1055.992188 1321.082031 1064.359375 1321.082031 1074.003906 C 1321.082031 1083.644531 1315.875 1092.011719 1308.019531 1096.605469 C 1304.246094 1098.851562 1299.652344 1100.125 1294.960938 1100.125 C 1290.265625 1100.125 1285.675781 1098.851562 1281.898438 1096.605469 C 1274.042969 1092.011719 1268.839844 1083.644531 1268.839844 1074.003906 C 1268.839844 1064.359375 1274.042969 1055.992188 1281.898438 1051.398438 C 1285.675781 1049.15625 1290.265625 1047.878906 1294.960938 1047.878906 Z M 1164.355469 1126.25 C 1135.480469 1126.25 1112.113281 1149.617188 1112.113281 1178.496094 C 1112.113281 1202.78125 1128.695312 1223.292969 1151.292969 1229.054688 L 1151.292969 1296.046875 C 1151.292969 1303.242188 1157.160156 1309.109375 1164.355469 1309.109375 C 1171.546875 1309.109375 1177.414062 1303.242188 1177.414062 1296.046875 L 1177.414062 1229.054688 C 1200.015625 1223.292969 1216.597656 1202.78125 1216.597656 1178.496094 C 1216.597656 1149.617188 1193.230469 1126.25 1164.355469 1126.25 Z M 824.78125 1152.371094 C 817.539062 1152.371094 811.722656 1158.238281 811.722656 1165.433594 C 811.722656 1172.625 817.539062 1178.496094 824.78125 1178.496094 L 929.265625 1178.496094 C 936.511719 1178.496094 942.328125 1172.625 942.328125 1165.433594 C 942.328125 1158.238281 936.511719 1152.371094 929.265625 1152.371094 Z M 981.507812 1152.371094 C 974.265625 1152.371094 968.449219 1158.238281 968.449219 1165.433594 C 968.449219 1172.625 974.265625 1178.496094 981.507812 1178.496094 L 1033.75 1178.496094 C 1040.996094 1178.496094 1046.8125 1172.625 1046.8125 1165.433594 C 1046.8125 1158.238281 1040.996094 1152.371094 1033.75 1152.371094 Z M 1164.355469 1152.371094 C 1178.742188 1152.371094 1190.476562 1164.105469 1190.476562 1178.496094 C 1190.476562 1188.136719 1185.273438 1196.503906 1177.414062 1201.097656 C 1173.640625 1203.339844 1169.046875 1204.617188 1164.355469 1204.617188 C 1159.660156 1204.617188 1155.070312 1203.339844 1151.292969 1201.097656 C 1143.4375 1196.503906 1138.234375 1188.136719 1138.234375 1178.496094 C 1138.234375 1164.105469 1149.96875 1152.371094 1164.355469 1152.371094 Z M 1425.5625 1152.371094 C 1396.6875 1152.371094 1373.320312 1175.738281 1373.320312 1204.617188 C 1373.320312 1228.902344 1389.902344 1249.414062 1412.503906 1255.179688 L 1412.503906 1296.046875 C 1412.503906 1303.242188 1418.371094 1309.109375 1425.5625 1309.109375 C 1432.757812 1309.109375 1438.625 1303.242188 1438.625 1296.046875 L 1438.625 1255.179688 C 1461.226562 1249.414062 1477.804688 1228.902344 1477.804688 1204.617188 C 1477.804688 1175.738281 1454.441406 1152.371094 1425.5625 1152.371094 Z M 1425.5625 1178.496094 C 1439.949219 1178.496094 1451.683594 1190.230469 1451.683594 1204.617188 C 1451.683594 1214.261719 1446.480469 1222.628906 1438.625 1227.21875 C 1434.847656 1229.464844 1430.257812 1230.742188 1425.5625 1230.742188 C 1420.871094 1230.742188 1416.277344 1229.464844 1412.503906 1227.21875 C 1404.648438 1222.628906 1399.441406 1214.261719 1399.441406 1204.617188 C 1399.441406 1190.230469 1411.175781 1178.496094 1425.5625 1178.496094 Z M 824.78125 1204.617188 C 817.539062 1204.617188 811.722656 1210.484375 811.722656 1217.679688 C 811.722656 1224.871094 817.539062 1230.742188 824.78125 1230.742188 L 981.507812 1230.742188 C 988.753906 1230.742188 994.570312 1224.871094 994.570312 1217.679688 C 994.570312 1210.484375 988.753906 1204.617188 981.507812 1204.617188 Z M 824.78125 1256.863281 C 817.539062 1256.863281 811.722656 1262.730469 811.722656 1269.925781 C 811.722656 1277.117188 817.539062 1282.984375 824.78125 1282.984375 L 1007.628906 1282.984375 C 1014.875 1282.984375 1020.691406 1277.117188 1020.691406 1269.925781 C 1020.691406 1262.730469 1014.875 1256.863281 1007.628906 1256.863281 Z M 798.660156 1361.355469 C 791.417969 1361.355469 785.601562 1367.222656 785.601562 1374.417969 L 785.601562 1400.539062 C 785.601562 1407.734375 791.417969 1413.601562 798.660156 1413.601562 C 805.90625 1413.601562 811.722656 1407.734375 811.722656 1400.539062 L 811.722656 1374.417969 C 811.722656 1367.222656 805.90625 1361.355469 798.660156 1361.355469 Z M 863.964844 1361.355469 C 856.71875 1361.355469 850.902344 1367.222656 850.902344 1374.417969 L 850.902344 1400.539062 C 850.902344 1407.734375 856.71875 1413.601562 863.964844 1413.601562 C 871.207031 1413.601562 877.023438 1407.734375 877.023438 1400.539062 L 877.023438 1374.417969 C 877.023438 1367.222656 871.207031 1361.355469 863.964844 1361.355469 Z M 929.265625 1361.355469 C 922.023438 1361.355469 916.207031 1367.222656 916.207031 1374.417969 L 916.207031 1400.539062 C 916.207031 1407.734375 922.023438 1413.601562 929.265625 1413.601562 C 936.511719 1413.601562 942.328125 1407.734375 942.328125 1400.539062 L 942.328125 1374.417969 C 942.328125 1367.222656 936.511719 1361.355469 929.265625 1361.355469 Z M 994.570312 1361.355469 C 987.324219 1361.355469 981.507812 1367.222656 981.507812 1374.417969 L 981.507812 1400.539062 C 981.507812 1407.734375 987.324219 1413.601562 994.570312 1413.601562 C 1001.8125 1413.601562 1007.628906 1407.734375 1007.628906 1400.539062 L 1007.628906 1374.417969 C 1007.628906 1367.222656 1001.8125 1361.355469 994.570312 1361.355469 Z M 1059.871094 1361.355469 C 1052.625 1361.355469 1046.8125 1367.222656 1046.8125 1374.417969 L 1046.8125 1400.539062 C 1046.8125 1407.734375 1052.625 1413.601562 1059.871094 1413.601562 C 1067.117188 1413.601562 1072.929688 1407.734375 1072.929688 1400.539062 L 1072.929688 1374.417969 C 1072.929688 1367.222656 1067.117188 1361.355469 1059.871094 1361.355469 Z M 1125.171875 1361.355469 C 1117.929688 1361.355469 1112.113281 1367.222656 1112.113281 1374.417969 L 1112.113281 1400.539062 C 1112.113281 1407.734375 1117.929688 1413.601562 1125.171875 1413.601562 C 1132.417969 1413.601562 1138.234375 1407.734375 1138.234375 1400.539062 L 1138.234375 1374.417969 C 1138.234375 1367.222656 1132.417969 1361.355469 1125.171875 1361.355469 Z M 1190.476562 1361.355469 C 1183.230469 1361.355469 1177.414062 1367.222656 1177.414062 1374.417969 L 1177.414062 1400.539062 C 1177.414062 1407.734375 1183.230469 1413.601562 1190.476562 1413.601562 C 1197.71875 1413.601562 1203.535156 1407.734375 1203.535156 1400.539062 L 1203.535156 1374.417969 C 1203.535156 1367.222656 1197.71875 1361.355469 1190.476562 1361.355469 Z M 1255.777344 1361.355469 C 1248.535156 1361.355469 1242.71875 1367.222656 1242.71875 1374.417969 L 1242.71875 1400.539062 C 1242.71875 1407.734375 1248.535156 1413.601562 1255.777344 1413.601562 C 1263.023438 1413.601562 1268.839844 1407.734375 1268.839844 1400.539062 L 1268.839844 1374.417969 C 1268.839844 1367.222656 1263.023438 1361.355469 1255.777344 1361.355469 Z M 1321.082031 1361.355469 C 1313.835938 1361.355469 1308.019531 1367.222656 1308.019531 1374.417969 L 1308.019531 1400.539062 C 1308.019531 1407.734375 1313.835938 1413.601562 1321.082031 1413.601562 C 1328.324219 1413.601562 1334.140625 1407.734375 1334.140625 1400.539062 L 1334.140625 1374.417969 C 1334.140625 1367.222656 1328.324219 1361.355469 1321.082031 1361.355469 Z M 1386.382812 1361.355469 C 1379.136719 1361.355469 1373.320312 1367.222656 1373.320312 1374.417969 L 1373.320312 1400.539062 C 1373.320312 1407.734375 1379.136719 1413.601562 1386.382812 1413.601562 C 1393.628906 1413.601562 1399.441406 1407.734375 1399.441406 1400.539062 L 1399.441406 1374.417969 C 1399.441406 1367.222656 1393.628906 1361.355469 1386.382812 1361.355469 Z M 1451.683594 1361.355469 C 1444.441406 1361.355469 1438.625 1367.222656 1438.625 1374.417969 L 1438.625 1400.539062 C 1438.625 1407.734375 1444.441406 1413.601562 1451.683594 1413.601562 C 1458.929688 1413.601562 1464.746094 1407.734375 1464.746094 1400.539062 L 1464.746094 1374.417969 C 1464.746094 1367.222656 1458.929688 1361.355469 1451.683594 1361.355469 Z M 1451.683594 1361.355469 " fill-opacity="1" fill-rule="nonzero"/></g><g fill="#3f9fc4" fill-opacity="1"><g transform="translate(552.427097, 1670.878117)"><g><path d="M 35.828125 -51.40625 L 33.34375 -42.0625 L 55 -42.0625 L 52.65625 -51.40625 C 51.207031 -56.5 49.804688 -61.898438 48.453125 -67.609375 C 47.097656 -73.328125 45.75 -78.832031 44.40625 -84.125 L 43.78125 -84.125 C 42.53125 -78.726562 41.253906 -73.195312 39.953125 -67.53125 C 38.660156 -61.875 37.285156 -56.5 35.828125 -51.40625 Z M -0.9375 0 L 30.84375 -101.578125 L 58.421875 -101.578125 L 90.203125 0 L 65.90625 0 L 59.671875 -24.15625 L 28.671875 -24.15625 L 22.4375 0 Z M -0.9375 0 "/></g></g></g><g fill="#3f9fc4" fill-opacity="1"><g transform="translate(641.70239, 1670.878117)"><g><path d="M 54.375 1.875 C 47.9375 1.875 41.859375 0.757812 36.140625 -1.46875 C 30.429688 -3.707031 25.421875 -7.007812 21.109375 -11.375 C 16.796875 -15.738281 13.394531 -21.164062 10.90625 -27.65625 C 8.414062 -34.144531 7.171875 -41.648438 7.171875 -50.171875 C 7.171875 -58.578125 8.46875 -66.078125 11.0625 -72.671875 C 13.65625 -79.273438 17.132812 -84.859375 21.5 -89.421875 C 25.863281 -93.992188 30.953125 -97.472656 36.765625 -99.859375 C 42.585938 -102.253906 48.71875 -103.453125 55.15625 -103.453125 C 61.695312 -103.453125 67.5625 -102.125 72.75 -99.46875 C 77.945312 -96.820312 82.257812 -93.734375 85.6875 -90.203125 L 73.53125 -75.5625 C 70.9375 -77.945312 68.210938 -79.890625 65.359375 -81.390625 C 62.503906 -82.898438 59.257812 -83.65625 55.625 -83.65625 C 52.195312 -83.65625 48.945312 -82.898438 45.875 -81.390625 C 42.8125 -79.890625 40.164062 -77.738281 37.9375 -74.9375 C 35.707031 -72.132812 33.941406 -68.707031 32.640625 -64.65625 C 31.335938 -60.601562 30.6875 -56.035156 30.6875 -50.953125 C 30.6875 -40.453125 32.921875 -32.320312 37.390625 -26.5625 C 41.859375 -20.800781 47.832031 -17.921875 55.3125 -17.921875 C 59.46875 -17.921875 63.179688 -18.828125 66.453125 -20.640625 C 69.722656 -22.460938 72.601562 -24.722656 75.09375 -27.421875 L 87.25 -13.09375 C 78.726562 -3.113281 67.769531 1.875 54.375 1.875 Z M 54.375 1.875 "/></g></g></g><g fill="#3f9fc4" fill-opacity="1"><g transform="translate(732.379928, 1670.878117)"><g><path d="M 12 0 L 12 -101.578125 L 48.609375 -101.578125 C 54.003906 -101.578125 59.066406 -101.054688 63.796875 -100.015625 C 68.523438 -98.984375 72.65625 -97.242188 76.1875 -94.796875 C 79.71875 -92.359375 82.519531 -89.113281 84.59375 -85.0625 C 86.675781 -81.007812 87.71875 -75.972656 87.71875 -69.953125 C 87.71875 -62.472656 86.078125 -56.316406 82.796875 -51.484375 C 79.523438 -46.660156 75.140625 -43.050781 69.640625 -40.65625 L 92.703125 0 L 67 0 L 47.515625 -36.609375 L 34.90625 -36.609375 L 34.90625 0 Z M 34.90625 -54.84375 L 46.734375 -54.84375 C 52.765625 -54.84375 57.363281 -56.113281 60.53125 -58.65625 C 63.695312 -61.195312 65.28125 -64.960938 65.28125 -69.953125 C 65.28125 -74.941406 63.695312 -78.421875 60.53125 -80.390625 C 57.363281 -82.359375 52.765625 -83.34375 46.734375 -83.34375 L 34.90625 -83.34375 Z M 34.90625 -54.84375 "/></g></g></g><g fill="#3f9fc4" fill-opacity="1"><g transform="translate(827.887369, 1670.878117)"><g><path d="M 29.453125 0 L 29.453125 -36.140625 L -1.25 -101.578125 L 23.375 -101.578125 L 32.40625 -78.203125 C 33.863281 -74.367188 35.238281 -70.660156 36.53125 -67.078125 C 37.832031 -63.492188 39.207031 -59.726562 40.65625 -55.78125 L 41.28125 -55.78125 C 42.738281 -59.726562 44.164062 -63.492188 45.5625 -67.078125 C 46.96875 -70.660156 48.398438 -74.367188 49.859375 -78.203125 L 59.046875 -101.578125 L 83.046875 -101.578125 L 52.34375 -36.140625 L 52.34375 0 Z M 29.453125 0 "/></g></g></g><g fill="#3f9fc4" fill-opacity="1"><g transform="translate(909.684097, 1670.878117)"><g><path d="M 12 0 L 12 -101.578125 L 34.90625 -101.578125 L 34.90625 -19.3125 L 75.09375 -19.3125 L 75.09375 0 Z M 12 0 "/></g></g></g><g fill="#3f9fc4" fill-opacity="1"><g transform="translate(990.390232, 1670.878117)"><g><path d="M 12 0 L 12 -101.578125 L 34.90625 -101.578125 L 34.90625 0 Z M 12 0 "/></g></g></g><g fill="#3f9fc4" fill-opacity="1"><g transform="translate(1037.287024, 1670.878117)"><g><path d="M 54.375 1.875 C 47.9375 1.875 41.859375 0.757812 36.140625 -1.46875 C 30.429688 -3.707031 25.421875 -7.007812 21.109375 -11.375 C 16.796875 -15.738281 13.394531 -21.164062 10.90625 -27.65625 C 8.414062 -34.144531 7.171875 -41.648438 7.171875 -50.171875 C 7.171875 -58.578125 8.46875 -66.078125 11.0625 -72.671875 C 13.65625 -79.273438 17.132812 -84.859375 21.5 -89.421875 C 25.863281 -93.992188 30.953125 -97.472656 36.765625 -99.859375 C 42.585938 -102.253906 48.71875 -103.453125 55.15625 -103.453125 C 61.695312 -103.453125 67.5625 -102.125 72.75 -99.46875 C 77.945312 -96.820312 82.257812 -93.734375 85.6875 -90.203125 L 73.53125 -75.5625 C 70.9375 -77.945312 68.210938 -79.890625 65.359375 -81.390625 C 62.503906 -82.898438 59.257812 -83.65625 55.625 -83.65625 C 52.195312 -83.65625 48.945312 -82.898438 45.875 -81.390625 C 42.8125 -79.890625 40.164062 -77.738281 37.9375 -74.9375 C 35.707031 -72.132812 33.941406 -68.707031 32.640625 -64.65625 C 31.335938 -60.601562 30.6875 -56.035156 30.6875 -50.953125 C 30.6875 -40.453125 32.921875 -32.320312 37.390625 -26.5625 C 41.859375 -20.800781 47.832031 -17.921875 55.3125 -17.921875 C 59.46875 -17.921875 63.179688 -18.828125 66.453125 -20.640625 C 69.722656 -22.460938 72.601562 -24.722656 75.09375 -27.421875 L 87.25 -13.09375 C 78.726562 -3.113281 67.769531 1.875 54.375 1.875 Z M 54.375 1.875 "/></g></g></g><g fill="#3f9fc4" fill-opacity="1"><g transform="translate(1127.964579, 1670.878117)"><g/></g></g><g fill="#3f9fc4" fill-opacity="1"><g transform="translate(1159.125224, 1670.878117)"><g><path d="M 12 0 L 12 -101.578125 L 46.890625 -101.578125 C 52.503906 -101.578125 57.75 -101.03125 62.625 -99.9375 C 67.507812 -98.851562 71.769531 -97.035156 75.40625 -94.484375 C 79.039062 -91.941406 81.921875 -88.566406 84.046875 -84.359375 C 86.179688 -80.148438 87.25 -74.984375 87.25 -68.859375 C 87.25 -62.941406 86.179688 -57.800781 84.046875 -53.4375 C 81.921875 -49.070312 79.039062 -45.488281 75.40625 -42.6875 C 71.769531 -39.882812 67.5625 -37.804688 62.78125 -36.453125 C 58.007812 -35.109375 52.921875 -34.4375 47.515625 -34.4375 L 34.90625 -34.4375 L 34.90625 0 Z M 34.90625 -52.65625 L 46.109375 -52.65625 C 58.578125 -52.65625 64.8125 -58.054688 64.8125 -68.859375 C 64.8125 -74.160156 63.148438 -77.898438 59.828125 -80.078125 C 56.503906 -82.253906 51.726562 -83.34375 45.5 -83.34375 L 34.90625 -83.34375 Z M 34.90625 -52.65625 "/></g></g></g><g fill="#3f9fc4" fill-opacity="1"><g transform="translate(1251.984003, 1670.878117)"><g><path d="M 35.828125 -51.40625 L 33.34375 -42.0625 L 55 -42.0625 L 52.65625 -51.40625 C 51.207031 -56.5 49.804688 -61.898438 48.453125 -67.609375 C 47.097656 -73.328125 45.75 -78.832031 44.40625 -84.125 L 43.78125 -84.125 C 42.53125 -78.726562 41.253906 -73.195312 39.953125 -67.53125 C 38.660156 -61.875 37.285156 -56.5 35.828125 -51.40625 Z M -0.9375 0 L 30.84375 -101.578125 L 58.421875 -101.578125 L 90.203125 0 L 65.90625 0 L 59.671875 -24.15625 L 28.671875 -24.15625 L 22.4375 0 Z M -0.9375 0 "/></g></g></g><g fill="#3f9fc4" fill-opacity="1"><g transform="translate(1341.259315, 1670.878117)"><g><path d="M 12 0 L 12 -101.578125 L 35.515625 -101.578125 L 62 -51.09375 L 71.984375 -28.671875 L 72.59375 -28.671875 C 72.082031 -34.066406 71.488281 -40.085938 70.8125 -46.734375 C 70.132812 -53.378906 69.796875 -59.71875 69.796875 -65.75 L 69.796875 -101.578125 L 91.609375 -101.578125 L 91.609375 0 L 68.078125 0 L 41.59375 -50.640625 L 31.625 -72.75 L 31 -72.75 C 31.519531 -67.144531 32.117188 -61.125 32.796875 -54.6875 C 33.472656 -48.25 33.8125 -42.015625 33.8125 -35.984375 L 33.8125 0 Z M 12 0 "/></g></g></g><g fill="#3f9fc4" fill-opacity="1"><g transform="translate(1444.868496, 1670.878117)"><g><path d="M 12 0 L 12 -101.578125 L 75.5625 -101.578125 L 75.5625 -82.265625 L 34.90625 -82.265625 L 34.90625 -61.84375 L 69.484375 -61.84375 L 69.484375 -42.6875 L 34.90625 -42.6875 L 34.90625 -19.3125 L 77.125 -19.3125 L 77.125 0 Z M 12 0 "/></g></g></g><g fill="#3f9fc4" fill-opacity="1"><g transform="translate(1530.248764, 1670.878117)"><g><path d="M 12 0 L 12 -101.578125 L 34.90625 -101.578125 L 34.90625 -19.3125 L 75.09375 -19.3125 L 75.09375 0 Z M 12 0 "/></g></g></g><g fill="#3f9fc4" fill-opacity="1"><g transform="translate(1610.954862, 1670.878117)"><g><path d="M 43 1.875 C 36.351562 1.875 29.734375 0.65625 23.140625 -1.78125 C 16.546875 -4.226562 10.648438 -7.894531 5.453125 -12.78125 L 18.546875 -28.515625 C 22.179688 -25.398438 26.203125 -22.851562 30.609375 -20.875 C 35.023438 -18.90625 39.363281 -17.921875 43.625 -17.921875 C 48.40625 -17.921875 51.960938 -18.800781 54.296875 -20.5625 C 56.628906 -22.332031 57.796875 -24.722656 57.796875 -27.734375 C 57.796875 -29.285156 57.457031 -30.632812 56.78125 -31.78125 C 56.113281 -32.925781 55.128906 -33.9375 53.828125 -34.8125 C 52.523438 -35.695312 50.960938 -36.53125 49.140625 -37.3125 C 47.328125 -38.09375 45.332031 -38.953125 43.15625 -39.890625 L 29.90625 -45.5 C 27.3125 -46.53125 24.796875 -47.875 22.359375 -49.53125 C 19.921875 -51.195312 17.738281 -53.144531 15.8125 -55.375 C 13.894531 -57.613281 12.363281 -60.210938 11.21875 -63.171875 C 10.070312 -66.128906 9.5 -69.476562 9.5 -73.21875 C 9.5 -77.375 10.378906 -81.296875 12.140625 -84.984375 C 13.910156 -88.671875 16.40625 -91.890625 19.625 -94.640625 C 22.84375 -97.398438 26.660156 -99.554688 31.078125 -101.109375 C 35.492188 -102.671875 40.351562 -103.453125 45.65625 -103.453125 C 51.570312 -103.453125 57.410156 -102.304688 63.171875 -100.015625 C 68.941406 -97.734375 74.003906 -94.410156 78.359375 -90.046875 L 66.6875 -75.5625 C 63.363281 -78.15625 60.035156 -80.148438 56.703125 -81.546875 C 53.378906 -82.953125 49.695312 -83.65625 45.65625 -83.65625 C 41.707031 -83.65625 38.5625 -82.847656 36.21875 -81.234375 C 33.882812 -79.628906 32.71875 -77.375 32.71875 -74.46875 C 32.71875 -72.914062 33.101562 -71.59375 33.875 -70.5 C 34.65625 -69.40625 35.75 -68.414062 37.15625 -67.53125 C 38.5625 -66.65625 40.195312 -65.828125 42.0625 -65.046875 C 43.9375 -64.265625 45.960938 -63.40625 48.140625 -62.46875 L 61.234375 -57.171875 C 67.460938 -54.679688 72.367188 -51.253906 75.953125 -46.890625 C 79.535156 -42.523438 81.328125 -36.757812 81.328125 -29.59375 C 81.328125 -25.34375 80.46875 -21.320312 78.75 -17.53125 C 77.039062 -13.738281 74.550781 -10.410156 71.28125 -7.546875 C 68.007812 -4.691406 63.984375 -2.40625 59.203125 -0.6875 C 54.421875 1.019531 49.019531 1.875 43 1.875 Z M 43 1.875 "/></g></g></g></svg>