<svg xmlns="http://www.w3.org/2000/svg" xmlns:xlink="http://www.w3.org/1999/xlink" width="3000" zoomAndPan="magnify" viewBox="0 0 2250 2250.000011" height="3000" preserveAspectRatio="xMidYMid meet" version="1.0"><defs><g/><clipPath id="7c3f9b1ccb"><path d="M 1097 735.699219 L 1125 735.699219 L 1125 815 L 1097 815 Z M 1097 735.699219 " clip-rule="nonzero"/></clipPath><clipPath id="47a659526b"><path d="M 1380 1070 L 1459.011719 1070 L 1459.011719 1098 L 1380 1098 Z M 1380 1070 " clip-rule="nonzero"/></clipPath><clipPath id="a273538cd8"><path d="M 763.320312 1070 L 842 1070 L 842 1098 L 763.320312 1098 Z M 763.320312 1070 " clip-rule="nonzero"/></clipPath></defs><path fill="#3f9fc4" d="M 1195.953125 1326.785156 C 1194.371094 1326.785156 1192.757812 1326.511719 1191.199219 1325.902344 C 1184.324219 1323.261719 1180.886719 1315.550781 1183.507812 1308.675781 C 1184.289062 1306.625 1183.871094 1303.84375 1182.984375 1298.6875 C 1182.238281 1294.257812 1181.296875 1288.753906 1181.296875 1282.117188 C 1181.296875 1221.542969 1209.199219 1191.339844 1236.207031 1162.128906 C 1263.15625 1132.96875 1288.613281 1105.425781 1288.613281 1044.933594 C 1288.613281 947.089844 1209.011719 867.480469 1111.179688 867.480469 C 1013.34375 867.480469 933.742188 947.089844 933.742188 1044.933594 C 933.742188 1105.421875 959.199219 1132.96875 986.148438 1162.128906 C 1013.136719 1191.339844 1041.054688 1221.523438 1041.054688 1282.117188 C 1041.054688 1288.746094 1040.121094 1294.257812 1039.367188 1298.6875 C 1038.503906 1303.84375 1038.0625 1306.625 1038.847656 1308.675781 C 1041.488281 1315.550781 1038.03125 1323.261719 1031.15625 1325.902344 C 1024.28125 1328.542969 1016.570312 1325.085938 1013.929688 1318.210938 C 1010.511719 1309.261719 1011.867188 1301.277344 1013.066406 1294.222656 C 1013.742188 1290.246094 1014.382812 1286.511719 1014.382812 1282.136719 C 1014.382812 1231.996094 992.226562 1208.015625 966.5625 1180.261719 C 938.671875 1150.097656 907.066406 1115.898438 907.066406 1044.972656 C 907.066406 932.421875 998.628906 840.839844 1111.175781 840.839844 C 1223.722656 840.839844 1315.285156 932.414062 1315.285156 1044.972656 C 1315.285156 1115.898438 1283.679688 1150.097656 1255.789062 1180.28125 C 1230.125 1208.050781 1207.96875 1232.015625 1207.96875 1282.15625 C 1207.96875 1286.535156 1208.609375 1290.28125 1209.285156 1294.246094 C 1210.484375 1301.296875 1211.839844 1309.28125 1208.421875 1318.230469 C 1206.363281 1323.523438 1201.3125 1326.785156 1195.953125 1326.785156 Z M 1195.953125 1326.785156 " fill-opacity="1" fill-rule="evenodd"/><path fill="#3f9fc4" d="M 982.917969 1058.277344 C 975.550781 1058.277344 969.578125 1052.304688 969.578125 1044.9375 C 969.578125 966.855469 1033.101562 903.328125 1111.175781 903.328125 C 1118.539062 903.328125 1124.511719 909.300781 1124.511719 916.664062 C 1124.511719 924.03125 1118.539062 930.003906 1111.175781 930.003906 C 1047.8125 930.003906 996.253906 981.566406 996.253906 1044.9375 C 996.253906 1052.320312 990.28125 1058.277344 982.917969 1058.277344 Z M 982.917969 1058.277344 " fill-opacity="1" fill-rule="evenodd"/><path fill="#3f9fc4" d="M 1128.03125 1512.875 L 1094.3125 1512.875 C 1066.773438 1512.875 1044.375 1490.46875 1044.375 1462.925781 L 1044.375 1426.320312 C 1044.375 1418.953125 1050.34375 1412.980469 1057.710938 1412.980469 C 1065.074219 1412.980469 1071.046875 1418.953125 1071.046875 1426.320312 L 1071.046875 1462.925781 C 1071.046875 1475.761719 1081.484375 1486.195312 1094.3125 1486.195312 L 1128.03125 1486.195312 C 1140.867188 1486.195312 1151.300781 1475.757812 1151.300781 1462.925781 L 1151.300781 1426.320312 C 1151.300781 1418.953125 1157.273438 1412.980469 1164.636719 1412.980469 C 1172.003906 1412.980469 1177.972656 1418.953125 1177.972656 1426.320312 L 1177.972656 1462.925781 C 1177.960938 1490.46875 1155.558594 1512.875 1128.03125 1512.875 Z M 1128.03125 1512.875 " fill-opacity="1" fill-rule="evenodd"/><path fill="#3f9fc4" d="M 1186.519531 1382.410156 L 1035.824219 1382.410156 C 1012.695312 1382.410156 993.871094 1363.582031 993.871094 1340.453125 C 993.871094 1317.320312 1012.695312 1298.492188 1035.824219 1298.492188 L 1186.519531 1298.5 C 1209.644531 1298.5 1228.472656 1317.328125 1228.472656 1340.457031 C 1228.472656 1363.589844 1209.652344 1382.410156 1186.519531 1382.410156 Z M 1035.824219 1325.171875 C 1027.398438 1325.171875 1020.542969 1332.03125 1020.542969 1340.457031 C 1020.542969 1348.882812 1027.398438 1355.738281 1035.824219 1355.738281 L 1186.519531 1355.738281 C 1194.941406 1355.738281 1201.796875 1348.882812 1201.796875 1340.457031 C 1201.796875 1332.03125 1194.941406 1325.171875 1186.519531 1325.171875 Z M 1035.824219 1325.171875 " fill-opacity="1" fill-rule="evenodd"/><path fill="#3f9fc4" d="M 1169.957031 1439.671875 L 1052.390625 1439.671875 C 1029.261719 1439.671875 1010.4375 1420.84375 1010.4375 1397.710938 C 1010.4375 1374.582031 1029.261719 1355.753906 1052.390625 1355.753906 C 1059.757812 1355.753906 1065.726562 1361.726562 1065.726562 1369.089844 C 1065.726562 1376.457031 1059.757812 1382.429688 1052.390625 1382.429688 C 1043.964844 1382.429688 1037.109375 1389.285156 1037.109375 1397.710938 C 1037.109375 1406.136719 1043.964844 1412.992188 1052.390625 1412.992188 L 1169.957031 1412.992188 C 1178.378906 1412.992188 1185.234375 1406.136719 1185.234375 1397.710938 C 1185.234375 1389.285156 1178.378906 1382.429688 1169.957031 1382.429688 C 1162.589844 1382.429688 1156.617188 1376.457031 1156.617188 1369.089844 C 1156.617188 1361.726562 1162.589844 1355.753906 1169.957031 1355.753906 C 1193.082031 1355.753906 1211.910156 1374.582031 1211.910156 1397.710938 C 1211.910156 1420.84375 1193.085938 1439.671875 1169.957031 1439.671875 Z M 1169.957031 1439.671875 " fill-opacity="1" fill-rule="evenodd"/><g clip-path="url(#7c3f9b1ccb)"><path fill="#3f9fc4" d="M 1111.171875 814.046875 C 1103.804688 814.046875 1097.835938 808.074219 1097.835938 800.707031 L 1097.835938 749.25 C 1097.835938 741.882812 1103.804688 735.910156 1111.171875 735.910156 C 1118.535156 735.910156 1124.507812 741.882812 1124.507812 749.25 L 1124.507812 800.707031 C 1124.507812 808.070312 1118.535156 814.046875 1111.171875 814.046875 Z M 1111.171875 814.046875 " fill-opacity="1" fill-rule="evenodd"/></g><path fill="#3f9fc4" d="M 1252.679688 851.976562 C 1250.417969 851.976562 1248.128906 851.40625 1246.027344 850.1875 C 1239.65625 846.503906 1237.464844 838.34375 1241.148438 831.96875 L 1266.882812 787.410156 C 1270.5625 781.035156 1278.722656 778.84375 1285.097656 782.527344 C 1291.472656 786.210938 1293.660156 794.371094 1289.976562 800.746094 L 1264.246094 845.308594 C 1261.78125 849.582031 1257.285156 851.976562 1252.679688 851.976562 Z M 1252.679688 851.976562 " fill-opacity="1" fill-rule="evenodd"/><path fill="#3f9fc4" d="M 1356.3125 955.589844 C 1351.707031 955.589844 1347.210938 953.195312 1344.742188 948.921875 C 1341.058594 942.546875 1343.25 934.386719 1349.621094 930.703125 L 1394.179688 904.96875 C 1400.554688 901.285156 1408.714844 903.472656 1412.398438 909.847656 C 1416.078125 916.222656 1413.890625 924.382812 1407.519531 928.066406 L 1362.960938 953.800781 C 1360.867188 955.011719 1358.566406 955.589844 1356.3125 955.589844 Z M 1356.3125 955.589844 " fill-opacity="1" fill-rule="evenodd"/><g clip-path="url(#47a659526b)"><path fill="#3f9fc4" d="M 1445.671875 1097.128906 L 1394.21875 1097.128906 C 1386.855469 1097.128906 1380.882812 1091.15625 1380.882812 1083.789062 C 1380.882812 1076.421875 1386.855469 1070.449219 1394.21875 1070.449219 L 1445.671875 1070.449219 C 1453.035156 1070.449219 1459.007812 1076.421875 1459.007812 1083.789062 C 1459.007812 1091.15625 1453.035156 1097.128906 1445.671875 1097.128906 Z M 1445.671875 1097.128906 " fill-opacity="1" fill-rule="evenodd"/></g><path fill="#3f9fc4" d="M 1400.839844 1264.402344 C 1398.578125 1264.402344 1396.289062 1263.832031 1394.1875 1262.613281 L 1349.628906 1236.878906 C 1343.253906 1233.195312 1341.066406 1225.035156 1344.75 1218.660156 C 1348.433594 1212.285156 1356.574219 1210.097656 1362.964844 1213.78125 L 1407.523438 1239.515625 C 1413.898438 1243.199219 1416.085938 1251.359375 1412.402344 1257.734375 C 1409.9375 1262.007812 1405.453125 1264.402344 1400.839844 1264.402344 Z M 1400.839844 1264.402344 " fill-opacity="1" fill-rule="evenodd"/><path fill="#3f9fc4" d="M 821.492188 1264.402344 C 816.886719 1264.402344 812.390625 1262.007812 809.921875 1257.734375 C 806.238281 1251.359375 808.429688 1243.199219 814.800781 1239.515625 L 859.359375 1213.78125 C 865.734375 1210.097656 873.894531 1212.285156 877.578125 1218.660156 C 881.257812 1225.035156 879.070312 1233.195312 872.699219 1236.878906 L 828.136719 1262.613281 C 826.039062 1263.835938 823.75 1264.402344 821.492188 1264.402344 Z M 821.492188 1264.402344 " fill-opacity="1" fill-rule="evenodd"/><g clip-path="url(#a273538cd8)"><path fill="#3f9fc4" d="M 828.109375 1097.128906 L 776.65625 1097.128906 C 769.292969 1097.128906 763.320312 1091.15625 763.320312 1083.789062 C 763.320312 1076.421875 769.292969 1070.449219 776.65625 1070.449219 L 828.109375 1070.449219 C 835.472656 1070.449219 841.445312 1076.421875 841.445312 1083.789062 C 841.445312 1091.15625 835.46875 1097.128906 828.109375 1097.128906 Z M 828.109375 1097.128906 " fill-opacity="1" fill-rule="evenodd"/></g><path fill="#3f9fc4" d="M 866.015625 955.589844 C 863.757812 955.589844 861.46875 955.019531 859.367188 953.800781 L 814.808594 928.066406 C 808.433594 924.382812 806.246094 916.222656 809.929688 909.847656 C 813.613281 903.472656 821.773438 901.285156 828.144531 904.96875 L 872.703125 930.703125 C 879.078125 934.386719 881.265625 942.546875 877.582031 948.921875 C 875.113281 953.203125 870.632812 955.589844 866.015625 955.589844 Z M 866.015625 955.589844 " fill-opacity="1" fill-rule="evenodd"/><path fill="#3f9fc4" d="M 969.648438 851.976562 C 965.042969 851.976562 960.550781 849.582031 958.082031 845.308594 L 932.347656 800.746094 C 928.667969 794.371094 930.855469 786.210938 937.230469 782.527344 C 943.601562 778.84375 951.761719 781.03125 955.445312 787.40625 L 981.179688 831.96875 C 984.859375 838.34375 982.671875 846.503906 976.296875 850.1875 C 974.21875 851.398438 971.90625 851.976562 969.648438 851.976562 Z M 969.648438 851.976562 " fill-opacity="1" fill-rule="evenodd"/><path fill="#3f9fc4" d="M 1138.265625 1325.171875 C 1130.898438 1325.171875 1124.929688 1319.203125 1124.929688 1311.835938 L 1124.929688 1191.222656 C 1124.929688 1187.675781 1126.332031 1184.292969 1128.835938 1181.792969 L 1169.523438 1141.101562 C 1172.128906 1138.496094 1173.550781 1135.0625 1173.550781 1131.378906 C 1173.550781 1127.695312 1172.128906 1124.257812 1169.523438 1121.652344 C 1166.917969 1119.050781 1163.484375 1117.625 1159.800781 1117.625 C 1156.117188 1117.625 1152.679688 1119.050781 1150.078125 1121.652344 L 1120.609375 1151.128906 C 1118.105469 1153.632812 1114.722656 1155.039062 1111.179688 1155.039062 C 1107.636719 1155.039062 1104.253906 1153.632812 1101.753906 1151.128906 L 1072.28125 1121.652344 C 1066.917969 1116.289062 1058.195312 1116.289062 1052.832031 1121.652344 C 1050.226562 1124.257812 1048.804688 1127.695312 1048.804688 1131.378906 C 1048.804688 1135.0625 1050.226562 1138.5 1052.832031 1141.101562 L 1093.519531 1181.792969 C 1096.023438 1184.296875 1097.429688 1187.679688 1097.429688 1191.222656 L 1097.429688 1311.835938 C 1097.429688 1319.203125 1091.457031 1325.171875 1084.089844 1325.171875 C 1076.726562 1325.171875 1070.753906 1319.203125 1070.753906 1311.835938 L 1070.753906 1196.742188 L 1033.972656 1159.957031 C 1026.332031 1152.316406 1022.132812 1142.171875 1022.132812 1131.375 C 1022.132812 1120.570312 1026.335938 1110.429688 1033.972656 1102.789062 C 1049.738281 1087.023438 1075.390625 1087.023438 1091.140625 1102.789062 L 1111.179688 1122.828125 L 1131.214844 1102.789062 C 1138.855469 1095.148438 1149 1090.945312 1159.796875 1090.945312 C 1170.59375 1090.945312 1180.734375 1095.148438 1188.378906 1102.789062 C 1196.019531 1110.429688 1200.21875 1120.574219 1200.21875 1131.375 C 1200.21875 1142.175781 1196.015625 1152.316406 1188.378906 1159.957031 L 1151.597656 1196.742188 L 1151.597656 1311.835938 C 1151.601562 1319.195312 1145.625 1325.171875 1138.265625 1325.171875 Z M 1138.265625 1325.171875 " fill-opacity="1" fill-rule="evenodd"/><g fill="#3f9fc4" fill-opacity="1"><g transform="translate(790.722309, 1670.878117)"><g><path d="M 12 0 L 12 -101.578125 L 34.90625 -101.578125 L 34.90625 -19.3125 L 75.09375 -19.3125 L 75.09375 0 Z M 12 0 "/></g></g></g><g fill="#3f9fc4" fill-opacity="1"><g transform="translate(871.428435, 1670.878117)"><g><path d="M 12 0 L 12 -101.578125 L 34.90625 -101.578125 L 34.90625 0 Z M 12 0 "/></g></g></g><g fill="#3f9fc4" fill-opacity="1"><g transform="translate(918.325218, 1670.878117)"><g><path d="M 56.859375 1.875 C 49.898438 1.875 43.382812 0.757812 37.3125 -1.46875 C 31.238281 -3.707031 25.96875 -7.007812 21.5 -11.375 C 17.03125 -15.738281 13.523438 -21.164062 10.984375 -27.65625 C 8.441406 -34.144531 7.171875 -41.648438 7.171875 -50.171875 C 7.171875 -58.578125 8.46875 -66.078125 11.0625 -72.671875 C 13.65625 -79.273438 17.210938 -84.859375 21.734375 -89.421875 C 26.253906 -93.992188 31.523438 -97.472656 37.546875 -99.859375 C 43.566406 -102.253906 49.953125 -103.453125 56.703125 -103.453125 C 64.078125 -103.453125 70.410156 -102.097656 75.703125 -99.390625 C 81.003906 -96.691406 85.316406 -93.628906 88.640625 -90.203125 L 76.65625 -75.5625 C 74.050781 -77.84375 71.296875 -79.757812 68.390625 -81.3125 C 65.484375 -82.875 61.847656 -83.65625 57.484375 -83.65625 C 53.535156 -83.65625 49.925781 -82.898438 46.65625 -81.390625 C 43.382812 -79.890625 40.554688 -77.738281 38.171875 -74.9375 C 35.785156 -72.132812 33.941406 -68.707031 32.640625 -64.65625 C 31.335938 -60.601562 30.6875 -56.035156 30.6875 -50.953125 C 30.6875 -40.453125 33.050781 -32.320312 37.78125 -26.5625 C 42.507812 -20.800781 49.648438 -17.921875 59.203125 -17.921875 C 61.273438 -17.921875 63.296875 -18.175781 65.265625 -18.6875 C 67.242188 -19.207031 68.859375 -19.988281 70.109375 -21.03125 L 70.109375 -38.484375 L 53.28125 -38.484375 L 53.28125 -57.171875 L 90.359375 -57.171875 L 90.359375 -10.4375 C 86.828125 -7.007812 82.148438 -4.097656 76.328125 -1.703125 C 70.515625 0.679688 64.023438 1.875 56.859375 1.875 Z M 56.859375 1.875 "/></g></g></g><g fill="#3f9fc4" fill-opacity="1"><g transform="translate(1017.72772, 1670.878117)"><g><path d="M 12 0 L 12 -101.578125 L 34.90625 -101.578125 L 34.90625 -62.46875 L 69.953125 -62.46875 L 69.953125 -101.578125 L 93.015625 -101.578125 L 93.015625 0 L 69.953125 0 L 69.953125 -42.375 L 34.90625 -42.375 L 34.90625 0 Z M 12 0 "/></g></g></g><g fill="#3f9fc4" fill-opacity="1"><g transform="translate(1122.739145, 1670.878117)"><g><path d="M 31.78125 0 L 31.78125 -82.265625 L 3.890625 -82.265625 L 3.890625 -101.578125 L 82.734375 -101.578125 L 82.734375 -82.265625 L 54.84375 -82.265625 L 54.84375 0 Z M 31.78125 0 "/></g></g></g><g fill="#3f9fc4" fill-opacity="1"><g transform="translate(1209.365795, 1670.878117)"><g><path d="M 12 0 L 12 -101.578125 L 34.90625 -101.578125 L 34.90625 0 Z M 12 0 "/></g></g></g><g fill="#3f9fc4" fill-opacity="1"><g transform="translate(1256.262586, 1670.878117)"><g><path d="M 12 0 L 12 -101.578125 L 35.515625 -101.578125 L 62 -51.09375 L 71.984375 -28.671875 L 72.59375 -28.671875 C 72.082031 -34.066406 71.488281 -40.085938 70.8125 -46.734375 C 70.132812 -53.378906 69.796875 -59.71875 69.796875 -65.75 L 69.796875 -101.578125 L 91.609375 -101.578125 L 91.609375 0 L 68.078125 0 L 41.59375 -50.640625 L 31.625 -72.75 L 31 -72.75 C 31.519531 -67.144531 32.117188 -61.125 32.796875 -54.6875 C 33.472656 -48.25 33.8125 -42.015625 33.8125 -35.984375 L 33.8125 0 Z M 12 0 "/></g></g></g><g fill="#3f9fc4" fill-opacity="1"><g transform="translate(1359.871767, 1670.878117)"><g><path d="M 56.859375 1.875 C 49.898438 1.875 43.382812 0.757812 37.3125 -1.46875 C 31.238281 -3.707031 25.96875 -7.007812 21.5 -11.375 C 17.03125 -15.738281 13.523438 -21.164062 10.984375 -27.65625 C 8.441406 -34.144531 7.171875 -41.648438 7.171875 -50.171875 C 7.171875 -58.578125 8.46875 -66.078125 11.0625 -72.671875 C 13.65625 -79.273438 17.210938 -84.859375 21.734375 -89.421875 C 26.253906 -93.992188 31.523438 -97.472656 37.546875 -99.859375 C 43.566406 -102.253906 49.953125 -103.453125 56.703125 -103.453125 C 64.078125 -103.453125 70.410156 -102.097656 75.703125 -99.390625 C 81.003906 -96.691406 85.316406 -93.628906 88.640625 -90.203125 L 76.65625 -75.5625 C 74.050781 -77.84375 71.296875 -79.757812 68.390625 -81.3125 C 65.484375 -82.875 61.847656 -83.65625 57.484375 -83.65625 C 53.535156 -83.65625 49.925781 -82.898438 46.65625 -81.390625 C 43.382812 -79.890625 40.554688 -77.738281 38.171875 -74.9375 C 35.785156 -72.132812 33.941406 -68.707031 32.640625 -64.65625 C 31.335938 -60.601562 30.6875 -56.035156 30.6875 -50.953125 C 30.6875 -40.453125 33.050781 -32.320312 37.78125 -26.5625 C 42.507812 -20.800781 49.648438 -17.921875 59.203125 -17.921875 C 61.273438 -17.921875 63.296875 -18.175781 65.265625 -18.6875 C 67.242188 -19.207031 68.859375 -19.988281 70.109375 -21.03125 L 70.109375 -38.484375 L 53.28125 -38.484375 L 53.28125 -57.171875 L 90.359375 -57.171875 L 90.359375 -10.4375 C 86.828125 -7.007812 82.148438 -4.097656 76.328125 -1.703125 C 70.515625 0.679688 64.023438 1.875 56.859375 1.875 Z M 56.859375 1.875 "/></g></g></g></svg>