<svg xmlns="http://www.w3.org/2000/svg" xmlns:xlink="http://www.w3.org/1999/xlink" width="3000" zoomAndPan="magnify" viewBox="0 0 2250 2250.000011" height="3000" preserveAspectRatio="xMidYMid meet" version="1.0"><defs><clipPath id="1e53a15b66"><path d="M 0.5 72.84375 L 2164 72.84375 L 2164 2249 L 0.5 2249 Z M 0.5 72.84375 " clip-rule="nonzero"/></clipPath><clipPath id="19a877dcfb"><path d="M 0.5 72.84375 L 2176.78125 72.84375 L 2176.78125 2249 L 0.5 2249 Z M 0.5 72.84375 " clip-rule="nonzero"/></clipPath></defs><g clip-path="url(#1e53a15b66)"><path fill="#20448e" d="M -117.386719 51.96875 C 399.957031 195.242188 25.382812 493.433594 291.507812 835.410156 C 428.640625 1011.648438 760.945312 837.507812 788.84375 1104 C 811.308594 1318.644531 357.742188 1634.609375 510.582031 1786.425781 C 660.75 1935.601562 827.300781 1613.371094 992.671875 1699.617188 C 1173.601562 1793.980469 797.410156 2040.96875 1032.15625 2077.867188 C 1095.59375 2087.820312 1158.976562 2082.660156 1222.597656 2076.796875 C 1365.761719 2063.621094 1507.097656 2048.605469 1650.730469 2065.128906 C 1710.621094 2072.003906 2203.039062 2216.765625 2161.507812 2327.453125 C 2117.398438 2445.074219 1645.855469 2391.753906 1574.011719 2386.574219 C 1327.308594 2368.804688 1072.8125 2349.015625 825.234375 2358.125 C 587.191406 2366.867188 360.644531 2396.992188 121.484375 2379.726562 C -27.449219 2368.964844 -308.546875 2318.6875 -343.777344 2139.75 " fill-opacity="1" fill-rule="evenodd"/></g><g clip-path="url(#19a877dcfb)"><path fill="#3f9fc4" d="M -105.898438 23.898438 C -34.894531 34.78125 17.3125 59.121094 55.359375 93.640625 C 112.65625 145.609375 137.632812 220.167969 148.097656 303.570312 C 166.351562 449.078125 140.535156 621.128906 151.105469 755.835938 C 160.070312 870.089844 189.78125 962.117188 249.121094 1059.226562 C 347.738281 1220.59375 502.695312 1272.015625 669.148438 1305.085938 C 829.222656 1336.882812 1000.015625 1351.289062 1137.039062 1439.289062 C 1379.886719 1595.253906 1410.925781 1806.394531 1473.6875 1977.777344 C 1506.722656 2067.972656 1548.273438 2147.566406 1629.265625 2204.835938 C 1709.390625 2261.5 1828.785156 2296.503906 2019.242188 2296.179688 C 2128.359375 2296 2228.027344 2267.988281 2331.5625 2236.855469 C 2340.085938 2234.277344 2344.921875 2225.289062 2342.339844 2216.765625 C 2339.78125 2208.242188 2330.792969 2203.40625 2322.269531 2205.964844 C 2221.777344 2236.191406 2125.117188 2263.757812 2019.183594 2263.9375 C 1838.015625 2264.242188 1724.097656 2232.402344 1647.878906 2178.519531 C 1572.523438 2125.242188 1534.695312 2050.601562 1503.960938 1966.675781 C 1439.183594 1789.789062 1405.117188 1573.148438 1154.460938 1412.144531 C 1014.074219 1321.992188 839.4375 1306.03125 675.429688 1273.46875 C 517.800781 1242.152344 370.023438 1195.222656 276.628906 1042.398438 C 220.085938 949.886719 191.789062 862.191406 183.246094 753.316406 C 172.644531 618.164062 198.40625 445.554688 180.085938 299.542969 C 168.601562 208.035156 139.898438 126.789062 77.023438 69.761719 C 34.953125 31.597656 -22.503906 4.050781 -101.015625 -7.980469 C -109.808594 -9.328125 -118.042969 -3.285156 -119.390625 5.519531 C -120.738281 14.308594 -114.695312 22.546875 -105.898438 23.898438 Z M 624.332031 1688.9375 C 644.128906 1306.574219 1328.71875 1577.363281 1221.371094 1887.945312 C 1155.355469 2078.953125 1100.820312 1728.453125 1058.914062 1678.941406 C 989.410156 1596.828125 859.4375 1569.703125 756.800781 1584.757812 C 702.609375 1592.714844 640.316406 1633.5 624.332031 1688.9375 Z M 624.332031 1688.9375 " fill-opacity="1" fill-rule="evenodd"/></g></svg>