<svg xmlns="http://www.w3.org/2000/svg" xmlns:xlink="http://www.w3.org/1999/xlink" width="3000" zoomAndPan="magnify" viewBox="0 0 2250 2250.000011" height="3000" preserveAspectRatio="xMidYMid meet" version="1.0"><defs><clipPath id="cbedf97bcd"><path d="M 0.5 0 L 2166 0 L 2166 2248.785156 L 0.5 2248.785156 Z M 0.5 0 " clip-rule="nonzero"/></clipPath><clipPath id="596d35efab"><path d="M 0.5 142 L 1657 142 L 1657 2248.785156 L 0.5 2248.785156 Z M 0.5 142 " clip-rule="nonzero"/></clipPath></defs><g clip-path="url(#cbedf97bcd)"><path fill="#20448e" d="M -25.660156 -152.964844 C -21.578125 -83.554688 -15.660156 -14.070312 2.5625 53.257812 C 86.40625 363.023438 538.453125 374.75 661.273438 674.367188 C 815.675781 1051.027344 526.257812 1491.472656 890.597656 1792.035156 C 1177.367188 2028.601562 2249.542969 1863.546875 2160.484375 2437.492188 C 2047.378906 3166.324219 349.488281 2556.90625 0.5 2313.632812 C -584.929688 1905.519531 -395.996094 779.589844 -296.457031 200.160156 " fill-opacity="1" fill-rule="evenodd"/></g><g clip-path="url(#596d35efab)"><path fill="#3f9fc4" d="M -207.59375 2254.6875 C -171.980469 2284.738281 -130.972656 2311.625 -83.925781 2334.816406 C -45.003906 2353.964844 60.011719 2373.949219 199.769531 2389.660156 C 530.539062 2426.871094 1053.765625 2437.941406 1368.191406 2343.277344 C 1550.132812 2288.5 1662.179688 2199.714844 1609.15625 2053.121094 C 1553.734375 1899.910156 1417.289062 1808.195312 1264.726562 1735.761719 C 1107.457031 1661.097656 932.828125 1607.058594 806.089844 1532.042969 C 637.128906 1432.03125 497.914062 1292.300781 397.695312 1123.84375 C 323.535156 999.1875 271.957031 859.882812 218.375 726.003906 C 106.597656 446.71875 -51.804688 378.714844 -316.125 172.980469 C -323.570312 167.183594 -324.910156 156.429688 -319.113281 148.984375 C -313.316406 141.535156 -302.566406 140.195312 -295.117188 145.992188 C -24.707031 356.46875 135.765625 427.570312 250.121094 713.296875 C 303.050781 845.539062 353.828125 983.226562 427.082031 1106.359375 C 524.367188 1269.882812 659.492188 1405.53125 823.507812 1502.613281 C 949.460938 1577.167969 1123.09375 1630.667969 1279.394531 1704.871094 C 1440.402344 1781.3125 1582.824219 1879.796875 1641.3125 2041.488281 C 1701.160156 2206.9375 1583.40625 2314.1875 1378.050781 2376.023438 C 1059.9375 2471.796875 530.597656 2461.28125 195.949219 2423.640625 C 50.527344 2407.292969 -58.53125 2385.425781 -99.035156 2365.484375 C -352.742188 2240.535156 -441.152344 2013.296875 -455.511719 1762.261719 C -469.597656 1516.046875 -412.03125 1246.921875 -373.433594 1032.824219 C -371.757812 1023.535156 -362.859375 1017.355469 -353.574219 1019.03125 C -344.285156 1020.703125 -338.105469 1029.605469 -339.78125 1038.890625 C -377.957031 1250.648438 -435.304688 1516.785156 -421.375 1760.308594 C -416.820312 1839.894531 -404.609375 1917.0625 -381.410156 1988.992188 L -161.699219 902.9375 C 4.21875 943.382812 56.273438 939.386719 148.675781 1073.703125 C 280.3125 1265.054688 145.917969 1515.675781 320.007812 1704.417969 C 424.539062 1817.75 888.621094 2069.125 818.53125 2231.644531 C 785.375 2308.503906 546.351562 2325.132812 476.835938 2330.839844 C 378.324219 2338.917969 281.773438 2371.320312 182.695312 2372.515625 C 50.953125 2374.097656 -93.695312 2333.019531 -207.59375 2254.6875 Z M -207.59375 2254.6875 " fill-opacity="1" fill-rule="evenodd"/></g></svg>