<svg xmlns="http://www.w3.org/2000/svg" xmlns:xlink="http://www.w3.org/1999/xlink" width="3000" zoomAndPan="magnify" viewBox="0 0 2250 2250.000011" height="3000" preserveAspectRatio="xMidYMid meet" version="1.0"><defs><g/><clipPath id="9de6820907"><path d="M 722 766.269531 L 1529.125 766.269531 L 1529.125 1574 L 722 1574 Z M 722 766.269531 " clip-rule="nonzero"/></clipPath></defs><path fill="#3f9fc4" d="M 1125.679688 936.039062 C 996.183594 936.039062 890.84375 1041.378906 890.84375 1170.875 C 890.84375 1300.355469 996.183594 1405.714844 1125.679688 1405.714844 C 1255.160156 1405.714844 1360.519531 1300.371094 1360.519531 1170.875 C 1360.503906 1041.378906 1255.160156 936.039062 1125.679688 936.039062 Z M 1244.023438 1337.976562 L 1201.648438 1295.601562 C 1184.964844 1278.738281 1160.929688 1270.640625 1137.132812 1274.039062 C 1096.933594 1279.945312 1055.765625 1266.300781 1026.988281 1237.539062 C 1000.925781 1211.476562 987.476562 1175.660156 989.160156 1139.59375 L 1057.046875 1207.480469 C 1060.179688 1210.613281 1064.519531 1212.238281 1068.960938 1211.789062 C 1095.980469 1209.300781 1118.628906 1201.738281 1136.265625 1189.304688 C 1137.667969 1188.320312 1138.875 1187.113281 1139.859375 1185.710938 C 1152.296875 1168.074219 1159.871094 1145.421875 1162.34375 1118.40625 C 1162.746094 1113.992188 1161.167969 1109.625 1158.035156 1106.492188 L 1090.148438 1038.605469 C 1126.171875 1036.921875 1162.03125 1050.371094 1188.09375 1076.433594 C 1216.871094 1105.210938 1230.515625 1146.394531 1224.582031 1186.664062 C 1221.226562 1210.328125 1229.292969 1234.421875 1246.097656 1251.035156 L 1289.144531 1294.078125 C 1276.425781 1310.914062 1261.246094 1325.75 1244.023438 1337.976562 Z M 1305.855469 1268.597656 L 1267.136719 1229.875 C 1256.9375 1219.796875 1252.074219 1205.199219 1254.101562 1190.914062 C 1261.394531 1141.441406 1244.605469 1090.761719 1209.195312 1055.335938 C 1169.011719 1015.136719 1109.949219 999.347656 1055.078125 1014.046875 C 1049.9375 1015.433594 1046 1019.519531 1044.613281 1024.664062 C 1043.242188 1029.808594 1044.792969 1035.371094 1048.550781 1039.140625 L 1131.882812 1122.492188 C 1129.527344 1140.054688 1124.503906 1154.789062 1116.941406 1166.371094 C 1105.359375 1173.945312 1090.625 1178.957031 1073.0625 1181.3125 L 989.816406 1098.082031 C 986.089844 1094.160156 980.542969 1092.582031 975.339844 1093.90625 C 970.105469 1095.234375 966.019531 1099.289062 964.617188 1104.496094 C 949.886719 1159.363281 965.707031 1218.425781 1005.90625 1258.609375 C 1041.316406 1294.019531 1092.042969 1310.839844 1141.410156 1303.53125 C 1155.753906 1301.488281 1170.367188 1306.351562 1180.507812 1316.609375 L 1217.691406 1353.796875 C 1189.988281 1367.796875 1158.78125 1375.863281 1125.679688 1375.863281 C 1012.628906 1375.863281 920.664062 1283.894531 920.664062 1170.84375 C 920.664062 1057.796875 1012.628906 965.828125 1125.679688 965.828125 C 1238.730469 965.828125 1330.699219 1057.796875 1330.699219 1170.84375 C 1330.683594 1206.226562 1321.675781 1239.539062 1305.855469 1268.597656 Z M 1305.855469 1268.597656 " fill-opacity="1" fill-rule="nonzero"/><g clip-path="url(#9de6820907)"><path fill="#3f9fc4" d="M 1525.949219 1117.316406 C 1524.234375 1104.507812 1514.050781 1094.058594 1501.152344 1091.910156 L 1444.703125 1082.382812 C 1437.5 1056.109375 1426.945312 1030.6875 1413.226562 1006.847656 L 1446.582031 960.191406 C 1454.261719 949.441406 1454.097656 935.246094 1446.164062 924.824219 C 1435.414062 910.734375 1423.648438 897.269531 1411.199219 884.835938 C 1398.496094 872.132812 1385.015625 860.335938 1371.121094 849.765625 C 1360.875 841.984375 1346.355469 841.804688 1335.78125 849.378906 L 1289.113281 882.746094 L 1289.113281 882.613281 C 1265.316406 869.058594 1239.878906 858.546875 1213.398438 851.421875 L 1204.050781 795 C 1201.917969 782.117188 1191.480469 771.917969 1178.640625 770.175781 C 1144.019531 765.539062 1107.191406 765.566406 1072.765625 770.175781 C 1059.957031 771.890625 1049.503906 782.074219 1047.355469 794.96875 L 1037.828125 851.421875 C 1011.558594 858.621094 986.132812 869.179688 962.292969 882.898438 L 915.636719 849.542969 C 904.902344 841.863281 890.695312 842.027344 880.269531 849.960938 C 866.179688 860.710938 852.71875 872.472656 840.28125 884.925781 C 827.847656 897.359375 816.066406 910.808594 805.300781 924.929688 C 797.460938 935.21875 797.296875 949.828125 804.898438 960.460938 L 838.148438 1007.039062 C 824.535156 1030.910156 813.980469 1056.335938 806.867188 1082.742188 L 750.445312 1092.089844 C 737.5625 1094.222656 727.367188 1104.660156 725.621094 1117.496094 C 723.308594 1134.777344 722.132812 1152.582031 722.132812 1170.382812 C 722.132812 1188.289062 723.308594 1206.109375 725.621094 1223.359375 C 727.335938 1236.167969 737.519531 1246.621094 750.417969 1248.765625 L 806.867188 1258.292969 C 814.070312 1284.566406 824.625 1309.988281 838.34375 1333.832031 L 804.988281 1380.484375 C 797.308594 1391.234375 797.472656 1405.429688 805.40625 1415.851562 C 816.15625 1429.941406 827.921875 1443.40625 840.371094 1455.84375 C 852.804688 1468.277344 866.253906 1480.054688 880.375 1490.820312 C 890.664062 1498.664062 905.261719 1498.828125 915.90625 1491.222656 L 962.488281 1457.972656 C 986.359375 1471.585938 1011.78125 1482.144531 1038.1875 1489.257812 L 1047.535156 1545.675781 C 1049.667969 1558.558594 1060.105469 1568.757812 1072.941406 1570.503906 C 1090.222656 1572.8125 1108.042969 1573.992188 1125.917969 1573.992188 C 1143.765625 1573.992188 1161.570312 1572.8125 1178.804688 1570.503906 C 1191.613281 1568.789062 1202.066406 1558.605469 1204.214844 1545.707031 L 1213.742188 1489.257812 C 1240.011719 1482.054688 1265.433594 1471.496094 1289.277344 1457.78125 L 1335.929688 1491.136719 C 1346.667969 1498.828125 1360.890625 1498.632812 1371.300781 1490.71875 C 1385.390625 1479.96875 1398.851562 1468.203125 1411.289062 1455.753906 C 1423.992188 1443.050781 1435.785156 1429.570312 1446.359375 1415.671875 C 1454.15625 1405.429688 1454.320312 1390.894531 1446.746094 1380.335938 L 1413.511719 1333.667969 C 1427.0625 1309.871094 1437.574219 1284.433594 1444.703125 1257.953125 L 1501.125 1248.601562 C 1514.003906 1246.472656 1524.203125 1236.035156 1525.949219 1223.195312 C 1528.261719 1205.914062 1529.4375 1188.097656 1529.4375 1170.21875 C 1529.4375 1152.355469 1528.261719 1134.570312 1525.949219 1117.316406 Z M 1496.261719 1219.171875 L 1439.828125 1228.519531 C 1428.449219 1230.414062 1419.117188 1238.910156 1416.03125 1250.183594 C 1409.5 1274.144531 1399.925781 1297.253906 1387.625 1318.859375 C 1381.839844 1329 1382.4375 1341.613281 1389.144531 1350.992188 L 1422.648438 1397.585938 C 1412.882812 1410.425781 1401.96875 1422.90625 1390.21875 1434.652344 C 1378.722656 1446.164062 1366.289062 1457.035156 1353.300781 1466.859375 L 1306.648438 1433.507812 C 1297.269531 1426.796875 1284.640625 1426.199219 1274.515625 1431.96875 C 1252.835938 1444.347656 1229.753906 1453.933594 1205.867188 1460.480469 C 1194.625 1463.566406 1186.140625 1472.898438 1184.25 1484.246094 L 1174.871094 1540.921875 C 1142.933594 1545.230469 1108.773438 1545.347656 1076.96875 1540.785156 L 1067.621094 1484.351562 C 1065.726562 1472.972656 1057.226562 1463.640625 1045.96875 1460.570312 C 1022.082031 1454.039062 998.972656 1444.433594 977.277344 1432.058594 C 972.640625 1429.40625 967.480469 1428.09375 962.351562 1428.09375 C 956.269531 1428.09375 950.214844 1429.941406 945.132812 1433.59375 L 898.492188 1467.085938 C 885.445312 1457.125 872.996094 1446.238281 861.484375 1434.730469 C 849.972656 1423.234375 839.105469 1410.796875 829.277344 1397.8125 L 862.632812 1351.15625 C 869.34375 1341.777344 869.9375 1329.148438 864.167969 1319.023438 C 851.792969 1297.34375 842.203125 1274.261719 835.660156 1250.378906 C 832.574219 1239.136719 823.238281 1230.652344 811.890625 1228.757812 L 755.21875 1219.378906 C 753.070312 1203.425781 751.984375 1186.933594 751.984375 1170.351562 C 751.984375 1153.863281 753.070312 1137.386719 755.351562 1121.476562 L 811.789062 1112.128906 C 823.164062 1110.234375 832.5 1101.734375 835.570312 1090.480469 C 842.101562 1066.59375 851.703125 1043.480469 864.078125 1021.785156 C 869.878906 1011.632812 869.265625 999.003906 862.527344 989.640625 L 829.039062 943 C 839 929.953125 849.882812 917.503906 861.394531 905.992188 C 872.890625 894.480469 885.324219 883.613281 898.3125 873.785156 L 944.96875 907.140625 C 954.347656 913.851562 966.976562 914.445312 977.097656 908.675781 C 998.777344 896.300781 1021.859375 886.714844 1045.746094 880.167969 C 1056.988281 877.082031 1065.472656 867.746094 1067.367188 856.402344 L 1076.746094 799.726562 C 1108.578125 795.449219 1142.738281 795.285156 1174.644531 799.859375 L 1183.996094 856.296875 C 1185.886719 867.671875 1194.386719 877.007812 1205.660156 880.09375 C 1229.621094 886.625 1252.730469 896.195312 1274.335938 908.496094 C 1284.460938 914.28125 1297.074219 913.703125 1306.46875 906.976562 L 1353.0625 873.472656 C 1365.902344 883.238281 1378.382812 894.152344 1390.128906 905.902344 C 1401.640625 917.398438 1412.511719 929.835938 1422.335938 942.820312 L 1388.980469 989.476562 C 1382.273438 998.855469 1381.675781 1011.484375 1387.445312 1021.609375 C 1399.820312 1043.289062 1409.410156 1066.367188 1415.957031 1090.253906 C 1419.042969 1101.496094 1428.375 1109.980469 1439.722656 1111.875 L 1496.394531 1121.253906 C 1498.542969 1137.207031 1499.632812 1153.667969 1499.632812 1170.1875 C 1499.617188 1186.769531 1498.542969 1203.261719 1496.261719 1219.171875 Z M 1496.261719 1219.171875 " fill-opacity="1" fill-rule="nonzero"/></g><g fill="#3f9fc4" fill-opacity="1"><g transform="translate(640.048908, 1750.933451)"><g><path d="M 11.59375 0 L 11.59375 -98.234375 L 35.859375 -98.234375 L 51.671875 -54.53125 C 52.679688 -51.625 53.632812 -48.640625 54.53125 -45.578125 C 55.4375 -42.515625 56.394531 -39.472656 57.40625 -36.453125 L 58 -36.453125 C 59.007812 -39.472656 59.941406 -42.515625 60.796875 -45.578125 C 61.648438 -48.640625 62.578125 -51.625 63.578125 -54.53125 L 79.09375 -98.234375 L 103.203125 -98.234375 L 103.203125 0 L 83.015625 0 L 83.015625 -36 C 83.015625 -38.414062 83.113281 -41.078125 83.3125 -43.984375 C 83.507812 -46.898438 83.757812 -49.835938 84.0625 -52.796875 C 84.363281 -55.765625 84.664062 -58.679688 84.96875 -61.546875 C 85.269531 -64.410156 85.570312 -67.046875 85.875 -69.453125 L 85.265625 -69.453125 L 77.28125 -46.09375 L 63.28125 -8.59375 L 51.078125 -8.59375 L 37.0625 -46.09375 L 29.234375 -69.453125 L 28.625 -69.453125 C 28.925781 -67.046875 29.226562 -64.410156 29.53125 -61.546875 C 29.832031 -58.679688 30.132812 -55.765625 30.4375 -52.796875 C 30.738281 -49.835938 30.988281 -46.898438 31.1875 -43.984375 C 31.382812 -41.078125 31.484375 -38.414062 31.484375 -36 L 31.484375 0 Z M 11.59375 0 "/></g></g></g><g fill="#3f9fc4" fill-opacity="1"><g transform="translate(754.847356, 1750.933451)"><g><path d="M 34.65625 -49.71875 L 32.234375 -40.671875 L 53.1875 -40.671875 L 50.921875 -49.71875 C 49.515625 -54.632812 48.15625 -59.851562 46.84375 -65.375 C 45.539062 -70.90625 44.238281 -76.234375 42.9375 -81.359375 L 42.328125 -81.359375 C 41.128906 -76.128906 39.898438 -70.773438 38.640625 -65.296875 C 37.390625 -59.828125 36.0625 -54.632812 34.65625 -49.71875 Z M -0.90625 0 L 29.828125 -98.234375 L 56.5 -98.234375 L 87.234375 0 L 63.734375 0 L 57.703125 -23.359375 L 27.71875 -23.359375 L 21.6875 0 Z M -0.90625 0 "/></g></g></g><g fill="#3f9fc4" fill-opacity="1"><g transform="translate(841.172167, 1750.933451)"><g><path d="M 11.59375 0 L 11.59375 -98.234375 L 33.75 -98.234375 L 33.75 0 Z M 11.59375 0 "/></g></g></g><g fill="#3f9fc4" fill-opacity="1"><g transform="translate(886.519061, 1750.933451)"><g><path d="M 11.59375 0 L 11.59375 -98.234375 L 34.34375 -98.234375 L 59.96875 -49.421875 L 69.609375 -27.71875 L 70.203125 -27.71875 C 69.703125 -32.945312 69.125 -38.773438 68.46875 -45.203125 C 67.820312 -51.628906 67.5 -57.753906 67.5 -63.578125 L 67.5 -98.234375 L 88.578125 -98.234375 L 88.578125 0 L 65.84375 0 L 40.21875 -48.96875 L 30.578125 -70.359375 L 29.984375 -70.359375 C 30.484375 -64.929688 31.054688 -59.101562 31.703125 -52.875 C 32.359375 -46.65625 32.6875 -40.628906 32.6875 -34.796875 L 32.6875 0 Z M 11.59375 0 "/></g></g></g><g fill="#3f9fc4" fill-opacity="1"><g transform="translate(986.704061, 1750.933451)"><g><path d="M 30.734375 0 L 30.734375 -79.546875 L 3.765625 -79.546875 L 3.765625 -98.234375 L 80 -98.234375 L 80 -79.546875 L 53.03125 -79.546875 L 53.03125 0 Z M 30.734375 0 "/></g></g></g><g fill="#3f9fc4" fill-opacity="1"><g transform="translate(1070.467781, 1750.933451)"><g><path d="M 11.59375 0 L 11.59375 -98.234375 L 73.0625 -98.234375 L 73.0625 -79.546875 L 33.75 -79.546875 L 33.75 -59.8125 L 67.1875 -59.8125 L 67.1875 -41.28125 L 33.75 -41.28125 L 33.75 -18.6875 L 74.578125 -18.6875 L 74.578125 0 Z M 11.59375 0 "/></g></g></g><g fill="#3f9fc4" fill-opacity="1"><g transform="translate(1153.026245, 1750.933451)"><g><path d="M 11.59375 0 L 11.59375 -98.234375 L 34.34375 -98.234375 L 59.96875 -49.421875 L 69.609375 -27.71875 L 70.203125 -27.71875 C 69.703125 -32.945312 69.125 -38.773438 68.46875 -45.203125 C 67.820312 -51.628906 67.5 -57.753906 67.5 -63.578125 L 67.5 -98.234375 L 88.578125 -98.234375 L 88.578125 0 L 65.84375 0 L 40.21875 -48.96875 L 30.578125 -70.359375 L 29.984375 -70.359375 C 30.484375 -64.929688 31.054688 -59.101562 31.703125 -52.875 C 32.359375 -46.65625 32.6875 -40.628906 32.6875 -34.796875 L 32.6875 0 Z M 11.59375 0 "/></g></g></g><g fill="#3f9fc4" fill-opacity="1"><g transform="translate(1253.211222, 1750.933451)"><g><path d="M 34.65625 -49.71875 L 32.234375 -40.671875 L 53.1875 -40.671875 L 50.921875 -49.71875 C 49.515625 -54.632812 48.15625 -59.851562 46.84375 -65.375 C 45.539062 -70.90625 44.238281 -76.234375 42.9375 -81.359375 L 42.328125 -81.359375 C 41.128906 -76.128906 39.898438 -70.773438 38.640625 -65.296875 C 37.390625 -59.828125 36.0625 -54.632812 34.65625 -49.71875 Z M -0.90625 0 L 29.828125 -98.234375 L 56.5 -98.234375 L 87.234375 0 L 63.734375 0 L 57.703125 -23.359375 L 27.71875 -23.359375 L 21.6875 0 Z M -0.90625 0 "/></g></g></g><g fill="#3f9fc4" fill-opacity="1"><g transform="translate(1339.536022, 1750.933451)"><g><path d="M 11.59375 0 L 11.59375 -98.234375 L 34.34375 -98.234375 L 59.96875 -49.421875 L 69.609375 -27.71875 L 70.203125 -27.71875 C 69.703125 -32.945312 69.125 -38.773438 68.46875 -45.203125 C 67.820312 -51.628906 67.5 -57.753906 67.5 -63.578125 L 67.5 -98.234375 L 88.578125 -98.234375 L 88.578125 0 L 65.84375 0 L 40.21875 -48.96875 L 30.578125 -70.359375 L 29.984375 -70.359375 C 30.484375 -64.929688 31.054688 -59.101562 31.703125 -52.875 C 32.359375 -46.65625 32.6875 -40.628906 32.6875 -34.796875 L 32.6875 0 Z M 11.59375 0 "/></g></g></g><g fill="#3f9fc4" fill-opacity="1"><g transform="translate(1439.721, 1750.933451)"><g><path d="M 52.578125 1.8125 C 46.347656 1.8125 40.472656 0.734375 34.953125 -1.421875 C 29.429688 -3.585938 24.582031 -6.78125 20.40625 -11 C 16.238281 -15.21875 12.953125 -20.460938 10.546875 -26.734375 C 8.140625 -33.015625 6.9375 -40.273438 6.9375 -48.515625 C 6.9375 -56.648438 8.191406 -63.90625 10.703125 -70.28125 C 13.210938 -76.65625 16.578125 -82.050781 20.796875 -86.46875 C 25.015625 -90.894531 29.929688 -94.257812 35.546875 -96.5625 C 41.171875 -98.875 47.097656 -100.03125 53.328125 -100.03125 C 59.660156 -100.03125 65.335938 -98.75 70.359375 -96.1875 C 75.378906 -93.632812 79.546875 -90.648438 82.859375 -87.234375 L 71.109375 -73.0625 C 68.597656 -75.375 65.960938 -77.257812 63.203125 -78.71875 C 60.441406 -80.175781 57.300781 -80.90625 53.78125 -80.90625 C 50.46875 -80.90625 47.328125 -80.175781 44.359375 -78.71875 C 41.398438 -77.257812 38.84375 -75.171875 36.6875 -72.453125 C 34.53125 -69.742188 32.820312 -66.429688 31.5625 -62.515625 C 30.300781 -58.597656 29.671875 -54.179688 29.671875 -49.265625 C 29.671875 -39.117188 31.832031 -31.257812 36.15625 -25.6875 C 40.476562 -20.113281 46.253906 -17.328125 53.484375 -17.328125 C 57.503906 -17.328125 61.09375 -18.203125 64.25 -19.953125 C 67.414062 -21.710938 70.203125 -23.898438 72.609375 -26.515625 L 84.375 -12.65625 C 76.132812 -3.007812 65.535156 1.8125 52.578125 1.8125 Z M 52.578125 1.8125 "/></g></g></g><g fill="#3f9fc4" fill-opacity="1"><g transform="translate(1527.401709, 1750.933451)"><g><path d="M 11.59375 0 L 11.59375 -98.234375 L 73.0625 -98.234375 L 73.0625 -79.546875 L 33.75 -79.546875 L 33.75 -59.8125 L 67.1875 -59.8125 L 67.1875 -41.28125 L 33.75 -41.28125 L 33.75 -18.6875 L 74.578125 -18.6875 L 74.578125 0 Z M 11.59375 0 "/></g></g></g></svg>