<svg xmlns="http://www.w3.org/2000/svg" xmlns:xlink="http://www.w3.org/1999/xlink" width="3000" zoomAndPan="magnify" viewBox="0 0 2250 2250.000011" height="3000" preserveAspectRatio="xMidYMid meet" version="1.0"><defs><filter x="0%" y="0%" width="100%" height="100%" id="3b884684e8"><feColorMatrix values="0 0 0 0 1 0 0 0 0 1 0 0 0 0 1 0 0 0 1 0" color-interpolation-filters="sRGB"/></filter><clipPath id="bf6c99599f"><path d="M 0.5 110 L 1943 110 L 1943 2249 L 0.5 2249 Z M 0.5 110 " clip-rule="nonzero"/></clipPath><mask id="f28d08eb65"><g filter="url(#3b884684e8)"><rect x="-225" width="2700" fill="#000000" y="-225.000001" height="2700.000013" fill-opacity="0.6667"/></g></mask><clipPath id="080c18595c"><path d="M 0.5 0.808594 L 1942.917969 0.808594 L 1942.917969 2138.859375 L 0.5 2138.859375 Z M 0.5 0.808594 " clip-rule="nonzero"/></clipPath><mask id="21e6b2faf3"><g filter="url(#3b884684e8)"><rect x="-495" width="3240" fill="#000000" y="-605.000002" height="3240.000016" fill-opacity="0.498"/></g></mask><clipPath id="38b91a9690"><path d="M 0.5 0.808594 L 1942.917969 0.808594 L 1942.917969 2138.859375 L 0.5 2138.859375 Z M 0.5 0.808594 " clip-rule="nonzero"/></clipPath><clipPath id="ae7d089d12"><rect x="0" width="1943" y="0" height="2139"/></clipPath><clipPath id="c7c8ee257d"><rect x="0" width="1943" y="0" height="2139"/></clipPath><clipPath id="f53d986a32"><path d="M 0.5 110 L 2023 110 L 2023 2249 L 0.5 2249 Z M 0.5 110 " clip-rule="nonzero"/></clipPath><mask id="413bc06c53"><g filter="url(#3b884684e8)"><rect x="-225" width="2700" fill="#000000" y="-225.000001" height="2700.000013" fill-opacity="0.4667"/></g></mask><clipPath id="230af6356f"><path d="M 0.5 0.808594 L 2022.320312 0.808594 L 2022.320312 2139 L 0.5 2139 Z M 0.5 0.808594 " clip-rule="nonzero"/></clipPath><mask id="dfb80c9065"><g filter="url(#3b884684e8)"><rect x="-495" width="3240" fill="#000000" y="-605.000002" height="3240.000016" fill-opacity="0.498"/></g></mask><clipPath id="79030a21ba"><path d="M 0.5 0.808594 L 2022 0.808594 L 2022 2139 L 0.5 2139 Z M 0.5 0.808594 " clip-rule="nonzero"/></clipPath><clipPath id="bd44129abb"><rect x="0" width="2023" y="0" height="2139"/></clipPath><clipPath id="43949d0c14"><rect x="0" width="2023" y="0" height="2139"/></clipPath></defs><g clip-path="url(#bf6c99599f)"><g mask="url(#f28d08eb65)"><g transform="matrix(1, 0, 0, 1, 0.000000000000000056, 110)"><g clip-path="url(#c7c8ee257d)"><g clip-path="url(#080c18595c)"><g mask="url(#21e6b2faf3)"><g transform="matrix(1, 0, 0, 1, 0.000000000000000056, -0.000000000000156319)"><g clip-path="url(#ae7d089d12)"><g clip-path="url(#38b91a9690)"><path fill="#3f9fc4" d="M 37.15625 2116.347656 L 25.613281 2112.425781 C 40.859375 2078.507812 56.144531 2044.589844 72.886719 2011.417969 C 92.097656 1973.316406 113.507812 1936.269531 134.566406 1899.089844 C 148.179688 1874.992188 162.71875 1851.425781 177.125 1827.816406 C 198.933594 1792.132812 220.566406 1756.363281 243.210938 1721.210938 C 258.058594 1698.085938 274.050781 1675.53125 290.4375 1653.507812 C 330.148438 1600.292969 370.167969 1547.328125 410.492188 1494.613281 C 430.9375 1467.699219 451.335938 1440.742188 472.65625 1414.574219 C 501.953125 1378.671875 532.089844 1343.433594 561.960938 1307.972656 C 584.253906 1281.542969 606.414062 1255.109375 629.144531 1228.679688 C 642.890625 1212.953125 657.253906 1197.84375 671.882812 1182.867188 C 721.960938 1131.945312 772.183594 1081.066406 822.554688 1030.230469 C 863.746094 988.734375 905.25 947.503906 946.574219 906.097656 C 947.707031 905.097656 948.609375 903.925781 949.289062 902.578125 C 949.964844 901.230469 950.367188 899.804688 950.496094 898.300781 C 940.273438 904.953125 929.832031 911.292969 919.65625 918.253906 C 885.203125 942.246094 850.839844 966.359375 816.5625 990.585938 C 797.265625 1004.242188 777.835938 999.394531 759.597656 989.660156 C 747.660156 983.363281 737.570312 973.496094 725.984375 964.726562 C 713.84375 973.921875 702.4375 983.945312 691.765625 994.800781 C 681.089844 1005.660156 671.261719 1017.234375 662.277344 1029.527344 C 642.847656 1054.8125 620.421875 1077.453125 590.332031 1090.800781 C 578.085938 1096.265625 568.570312 1108.113281 552.839844 1105.03125 C 540.59375 1102.605469 527.726562 1102.605469 515.964844 1098.949219 C 511.558594 1097.585938 507.992188 1088.820312 507.375 1083.046875 C 506.683594 1072.859375 507.09375 1062.710938 508.609375 1052.609375 C 509.3125 1046.355469 507.507812 1044.546875 501.425781 1043.445312 C 490.675781 1041.421875 482.171875 1042.523438 473.890625 1051.15625 C 452.566406 1073.179688 430.273438 1094.679688 408.203125 1116.128906 C 404.378906 1119.515625 400.238281 1122.453125 395.777344 1124.941406 C 356.390625 1149.300781 311.585938 1156.613281 267.398438 1166.214844 C 215.46875 1177.492188 163.660156 1189.3125 111.964844 1201.675781 C 84.386719 1207.882812 57.277344 1215.710938 30.636719 1225.15625 C 12 1232.117188 -4.917969 1243.835938 -22.230469 1253.921875 C -35.800781 1261.851562 -48.664062 1270.527344 -62.675781 1279.207031 L -70.914062 1269.957031 C -68.050781 1266.476562 -65.40625 1262.730469 -62.101562 1259.515625 C -5.222656 1201.324219 51.34375 1142.824219 108.882812 1085.25 C 146.726562 1047.410156 186.246094 1011.378906 233.253906 984.59375 C 267.089844 965.300781 300.761719 945.683594 334.277344 925.742188 C 370.796875 903.9375 410.890625 891.164062 451.289062 879.621094 C 453.820312 878.835938 456.40625 878.328125 459.042969 878.101562 C 461.683594 877.875 464.316406 877.929688 466.945312 878.273438 C 469.574219 878.613281 472.132812 879.234375 474.625 880.128906 C 477.121094 881.027344 479.488281 882.179688 481.734375 883.585938 C 503.761719 896.800781 529.578125 899.664062 554.957031 896.539062 C 560.023438 895.921875 564.117188 885.128906 568.171875 878.695312 C 575.53125 866.757812 578.085938 850.679688 594.296875 846.320312 C 616.324219 840.371094 638.355469 833.898438 660.382812 829.933594 C 686.816406 825.261719 713.46875 822.707031 740.082031 819.84375 C 793.300781 814.074219 846.609375 810.636719 900.09375 817.113281 C 918.207031 819.421875 936.386719 820.273438 954.636719 819.667969 C 941.992188 815.265625 929.4375 810.859375 916.660156 806.894531 C 907.320312 804.074219 897.671875 801.960938 888.066406 800.023438 C 863.132812 795.042969 838.195312 789.847656 813.171875 785.660156 C 786.738281 781.257812 759.863281 775.617188 732.988281 774.382812 C 698.976562 772.796875 664.789062 774.691406 630.6875 775.96875 C 607.910156 776.808594 585.046875 781.257812 562.402344 780.023438 C 549.183594 779.273438 535.613281 771.652344 523.585938 764.78125 C 520.28125 762.886719 520.8125 752.359375 521.515625 746.015625 C 522.886719 739.617188 524.882812 733.421875 527.507812 727.425781 L 524.910156 724.914062 C 513.410156 731.832031 501.25 738.128906 490.457031 745.882812 C 483.667969 750.960938 476.574219 755.5625 469.171875 759.6875 C 461.765625 763.816406 454.121094 767.425781 446.230469 770.527344 C 438.339844 773.625 430.28125 776.183594 422.046875 778.203125 C 413.816406 780.21875 405.484375 781.679688 397.054688 782.578125 C 375.535156 784.175781 353.988281 784.554688 332.425781 783.722656 C 308.632812 783.722656 284.753906 783.371094 261.007812 781.785156 C 255.546875 781.433594 249.464844 776.410156 245.324219 771.960938 C 229.023438 754.339844 229.507812 734.078125 239.070312 710.597656 C 233.15625 711.792969 227.386719 713.464844 221.753906 715.621094 C 202.679688 725.222656 183.644531 734.914062 165.054688 745.398438 C 160.058594 748.113281 154.8125 750.191406 149.3125 751.636719 C 143.816406 753.082031 138.222656 753.851562 132.539062 753.945312 C 96.148438 755.707031 64.871094 740.15625 31.871094 728.792969 C -0.246094 717.691406 -33.816406 707.25 -68.269531 709.675781 C -91.839844 711.347656 -115.101562 719.058594 -138.320312 724.871094 C -148.933594 727.890625 -159.34375 731.488281 -169.554688 735.664062 C -178.058594 738.835938 -180.964844 733.945312 -182.773438 726.0625 C -163.078125 713.992188 -143.472656 700.953125 -122.988281 689.542969 C -79.855469 665.445312 -36.636719 641.527344 7.15625 618.710938 C 18.796875 612.75 30.726562 607.433594 42.941406 602.761719 C 55.160156 598.089844 67.589844 594.085938 80.238281 590.753906 C 92.886719 587.417969 105.675781 584.777344 118.609375 582.824219 C 131.539062 580.867188 144.539062 579.617188 157.609375 579.0625 C 184.304688 577.609375 210.828125 573.292969 237.484375 572.410156 C 264.183594 571.234375 290.839844 571.910156 317.445312 574.4375 C 355.464844 578.578125 393.136719 585.714844 430.933594 591.484375 C 457.632812 595.539062 484.421875 598.929688 510.988281 603.644531 C 524.863281 606.515625 538.550781 610.113281 552.046875 614.4375 C 594.871094 626.902344 637.871094 638.882812 680.339844 652.539062 C 697.609375 658.089844 713.648438 667.515625 730.386719 674.875 C 736.820312 677.691406 743.605469 679.277344 750.257812 681.878906 C 779.070312 693.59375 808.191406 704.652344 836.433594 717.558594 C 859.914062 728.308594 882.515625 740.949219 905.203125 753.328125 C 928.996094 766.277344 952.390625 779.757812 975.960938 792.972656 L 978.339844 790.242188 C 959.789062 774.207031 942.257812 756.851562 922.5625 742.449219 C 889.035156 717.957031 854.9375 693.992188 819.648438 672.230469 C 773.253906 643.949219 726.203125 617.519531 679.152344 591.089844 C 654.917969 577.476562 629.277344 566.421875 604.738281 553.335938 C 587.117188 543.910156 570.066406 533.03125 552.753906 522.765625 C 553.191406 513.957031 555.394531 508.1875 565.617188 507.964844 C 572.835938 507.714844 579.648438 505.921875 586.058594 502.589844 C 544.292969 494.75 502.351562 487.746094 460.894531 478.582031 C 448.425781 475.808594 437.105469 467.304688 425.648438 460.964844 C 371.679688 431.140625 337.535156 384.09375 315.507812 328.238281 C 302.289062 294.714844 292.996094 259.605469 282.246094 225.113281 C 279.644531 216.832031 288.546875 208.726562 297.886719 210.359375 C 341.5 217.980469 385.558594 223.574219 428.601562 233.925781 C 461.449219 242.25 493.480469 253.011719 524.6875 266.214844 C 579.054688 288.238281 625.226562 324.273438 673.203125 357.089844 C 716.75 387.660156 757.648438 421.433594 795.902344 458.410156 C 819.601562 480.742188 831.585938 509.464844 841.71875 539.550781 C 849.605469 562.984375 859.34375 585.714844 868.152344 608.753906 L 872.558594 609.019531 L 895.25 580.253906 C 908.464844 579.59375 914.765625 589.328125 923.046875 597.519531 C 941.816406 616.199219 955.03125 638.707031 967.105469 661.527344 C 976.886719 680.160156 982.390625 701.171875 989.484375 721.171875 C 997.460938 743.769531 1004.992188 766.542969 1012.878906 789.1875 C 1013.453125 790.617188 1014.277344 791.890625 1015.351562 792.996094 C 1016.429688 794.101562 1017.675781 794.960938 1019.089844 795.574219 C 1019.089844 777.070312 1020.238281 758.4375 1018.605469 740.023438 C 1016.492188 715.707031 1015.214844 690.601562 1007.988281 667.5625 C 998.605469 637.605469 984.375 609.0625 971.027344 580.472656 C 964.066406 565.582031 954.417969 551.882812 946.132812 537.566406 C 915.292969 484.132812 907.101562 424.402344 898.199219 364.886719 C 895.511719 346.960938 894.101562 328.8125 892.253906 310.75 C 892.160156 310.152344 892.097656 309.554688 892.066406 308.949219 C 892.035156 308.347656 892.03125 307.742188 892.0625 307.140625 C 892.089844 306.535156 892.148438 305.9375 892.238281 305.339844 C 892.328125 304.742188 892.449219 304.148438 892.597656 303.5625 C 892.746094 302.980469 892.925781 302.402344 893.132812 301.835938 C 893.339844 301.269531 893.578125 300.714844 893.839844 300.167969 C 894.105469 299.625 894.394531 299.097656 894.714844 298.582031 C 895.03125 298.070312 895.375 297.574219 895.742188 297.09375 C 896.109375 296.613281 896.5 296.152344 896.914062 295.714844 C 897.328125 295.273438 897.761719 294.855469 898.21875 294.460938 C 898.675781 294.0625 899.148438 293.691406 899.644531 293.34375 C 900.136719 292.996094 900.648438 292.675781 901.175781 292.378906 C 901.699219 292.082031 902.242188 291.8125 902.792969 291.570312 C 903.347656 291.328125 903.914062 291.117188 904.488281 290.929688 C 905.0625 290.746094 905.644531 290.589844 906.238281 290.464844 C 906.828125 290.339844 907.425781 290.242188 908.023438 290.179688 C 909.609375 290.128906 911.179688 289.96875 912.738281 289.695312 C 918.421875 288.238281 924.0625 286.609375 930.800781 284.761719 C 922.589844 273.421875 915.011719 261.675781 908.070312 249.519531 C 895.203125 224.367188 887.449219 198.730469 895.160156 169.214844 C 905.160156 130.714844 913.3125 91.554688 919.433594 52.214844 C 921.636719 38.164062 915.691406 22.832031 913.355469 7.503906 L 925.601562 0.808594 C 954.8125 33.1875 984.332031 65.386719 1013.101562 98.117188 C 1041.867188 130.847656 1063.851562 168.203125 1084.605469 206.394531 C 1105.355469 244.585938 1127.648438 282.996094 1145.972656 322.863281 C 1154.785156 342.246094 1156.503906 365.152344 1160.25 386.648438 C 1161.085938 391.40625 1156.902344 397.046875 1155.136719 402.289062 L 1132.050781 470.476562 C 1135.929688 469.324219 1139.554688 467.636719 1142.933594 465.414062 C 1151.746094 457.703125 1160.558594 452.8125 1171.703125 461.886719 C 1176.992188 518.582031 1166.726562 573.203125 1148.265625 627.914062 C 1130.113281 681.703125 1102.226562 729.761719 1074.339844 778.480469 C 1092.3125 763.0625 1109.320312 746.324219 1128.441406 732.625 C 1157.515625 711.832031 1187.917969 692.980469 1218.09375 673.640625 C 1235.058594 662.847656 1251.886719 651.042969 1270.390625 643.816406 C 1301.496094 631.675781 1333.214844 621.441406 1365.550781 613.113281 C 1399.035156 604.304688 1433.3125 598.796875 1467.324219 592.453125 C 1503.800781 585.714844 1540.238281 578.226562 1577.023438 573.867188 C 1602.835938 571.328125 1628.679688 570.886719 1654.5625 572.542969 C 1667.207031 573.117188 1679.542969 579.195312 1692.1875 581.839844 C 1726.550781 589.0625 1754.265625 610.339844 1785.191406 624.789062 C 1824.09375 642.894531 1857.578125 668.574219 1890.925781 694.519531 C 1908.992188 708.574219 1925.511719 724.519531 1942.472656 739.410156 C 1940.269531 744.914062 1938.730469 748.792969 1936.921875 753.417969 C 1922.824219 751.832031 1908.460938 748.570312 1894.230469 749.011719 C 1878.890625 749.53125 1863.882812 752.042969 1849.207031 756.542969 C 1835.914062 761.296875 1823.238281 767.347656 1811.183594 774.691406 C 1778.628906 792.796875 1746.289062 800.640625 1711.308594 779.933594 C 1699.855469 773.152344 1685.800781 770.816406 1672.933594 766.410156 L 1671.347656 769.097656 C 1675.753906 775 1679.71875 780.992188 1684.125 786.71875 C 1694.039062 799.933594 1691.746094 806.761719 1676.285156 811.738281 C 1636.191406 824.601562 1596.542969 839.007812 1556.007812 850.109375 C 1553.609375 850.730469 1551.183594 851.222656 1548.734375 851.582031 C 1546.28125 851.945312 1543.820312 852.179688 1541.34375 852.28125 C 1538.867188 852.378906 1536.394531 852.347656 1533.921875 852.1875 C 1531.449219 852.023438 1528.992188 851.730469 1526.550781 851.304688 C 1524.109375 850.882812 1521.695312 850.328125 1519.3125 849.648438 C 1516.929688 848.96875 1514.589844 848.160156 1512.292969 847.230469 C 1509.996094 846.300781 1507.757812 845.253906 1505.570312 844.085938 C 1503.386719 842.914062 1501.269531 841.632812 1499.21875 840.242188 C 1496.53125 838.523438 1491.730469 840.242188 1488.691406 838.832031 C 1473.578125 831.429688 1458.777344 823.324219 1443.707031 815.835938 C 1436.835938 812.398438 1429.523438 809.800781 1422.386719 807.027344 L 1418.992188 809.800781 C 1425.074219 823.015625 1431.066406 836.230469 1437.1875 849.753906 C 1441.902344 860.019531 1436.792969 868.476562 1425.511719 867.640625 C 1385.863281 864.734375 1346.5625 862.132812 1307.222656 857.859375 C 1255.410156 852.265625 1203.777344 844.996094 1151.964844 839.007812 C 1138.171875 837.53125 1124.429688 837.886719 1110.730469 840.0625 C 1118.175781 841.695312 1125.621094 843.5 1133.152344 844.996094 C 1152.714844 848.917969 1172.804688 851.210938 1191.75 856.9375 C 1206.945312 862.25 1221.5 868.960938 1235.410156 877.066406 C 1259.640625 889.839844 1284.136719 902.265625 1307.308594 916.710938 C 1341.542969 938.078125 1375.773438 959.707031 1408.066406 983.847656 C 1468.046875 1028.460938 1523.21875 1078.386719 1573.585938 1133.617188 C 1605.175781 1168.550781 1635.839844 1204.453125 1659.761719 1245.859375 C 1675.742188 1273.792969 1689.859375 1302.636719 1702.113281 1332.390625 C 1714.371094 1362.144531 1724.660156 1392.566406 1732.984375 1423.648438 C 1747.65625 1477.082031 1764.441406 1529.898438 1777.964844 1583.597656 C 1783.179688 1607.085938 1785.839844 1630.859375 1785.941406 1654.917969 C 1787.085938 1692.183594 1785.941406 1729.492188 1785.941406 1768.039062 L 1773.914062 1769.800781 C 1772.019531 1756.585938 1770.917969 1744.558594 1768.40625 1732.710938 C 1761.578125 1700.066406 1752.898438 1667.777344 1729.8125 1642.492188 C 1692.585938 1601.789062 1654.917969 1561.394531 1616.148438 1522.191406 C 1609.976562 1515.921875 1604.296875 1509.238281 1599.113281 1502.132812 C 1593.925781 1495.027344 1589.289062 1487.582031 1585.199219 1479.796875 C 1581.109375 1472.011719 1577.613281 1463.964844 1574.707031 1455.664062 C 1571.800781 1447.363281 1569.519531 1438.894531 1567.859375 1430.257812 C 1563.371094 1408.277344 1557.320312 1386.738281 1549.710938 1365.632812 C 1545.910156 1370.648438 1542.753906 1376.035156 1540.238281 1381.800781 C 1534.597656 1400.609375 1516.929688 1403.605469 1502.613281 1409.246094 C 1497.414062 1411.269531 1486.574219 1404.355469 1480.9375 1398.847656 C 1448.777344 1367.441406 1416.042969 1336.386719 1390.839844 1298.675781 C 1383.730469 1287.496094 1377.355469 1275.914062 1371.71875 1263.921875 C 1353.128906 1226.785156 1335.417969 1189.035156 1316.296875 1152.382812 C 1307.484375 1134.984375 1295.898438 1118.773438 1285.457031 1102.167969 C 1276.425781 1087.980469 1274.882812 1072.125 1273.5625 1055.957031 C 1272.019531 1036.488281 1269.683594 1017.105469 1267.394531 994.285156 C 1257.128906 1006.269531 1249.023438 1015.519531 1241.179688 1025.121094 C 1240.871094 1025.535156 1240.539062 1025.933594 1240.1875 1026.3125 C 1239.835938 1026.691406 1239.464844 1027.054688 1239.078125 1027.394531 C 1238.6875 1027.738281 1238.285156 1028.058594 1237.863281 1028.359375 C 1237.441406 1028.660156 1237.003906 1028.941406 1236.554688 1029.195312 C 1236.105469 1029.453125 1235.644531 1029.6875 1235.167969 1029.894531 C 1234.695312 1030.105469 1234.214844 1030.289062 1233.71875 1030.449219 C 1233.226562 1030.609375 1232.730469 1030.742188 1232.222656 1030.851562 C 1231.714844 1030.960938 1231.207031 1031.042969 1230.691406 1031.097656 C 1230.175781 1031.15625 1229.660156 1031.1875 1229.140625 1031.191406 C 1228.625 1031.195312 1228.109375 1031.171875 1227.59375 1031.121094 C 1227.078125 1031.074219 1226.566406 1031 1226.058594 1030.898438 C 1225.550781 1030.796875 1225.046875 1030.667969 1224.554688 1030.515625 C 1224.058594 1030.363281 1223.574219 1030.1875 1223.097656 1029.984375 C 1222.621094 1029.78125 1222.15625 1029.558594 1221.699219 1029.308594 C 1221.246094 1029.058594 1220.808594 1028.785156 1220.382812 1028.492188 C 1219.957031 1028.195312 1219.546875 1027.882812 1219.152344 1027.542969 C 1180.824219 994.945312 1142.539062 962.289062 1104.296875 929.574219 C 1098.128906 924.332031 1092.796875 918.121094 1087.070312 912.351562 L 1084.425781 914.289062 C 1087.273438 921.398438 1090.605469 928.269531 1094.429688 934.90625 C 1120.597656 973.890625 1136.988281 1017.589844 1156.109375 1060.140625 C 1183.773438 1122.164062 1196.859375 1188.460938 1211.972656 1253.964844 C 1221.3125 1294.449219 1220.78125 1337.132812 1226.597656 1378.496094 C 1233.25 1425.234375 1222.941406 1471.003906 1220.472656 1516.992188 C 1219.238281 1526.765625 1217.109375 1536.339844 1214.085938 1545.714844 C 1201.574219 1597.695312 1189.988281 1649.9375 1170.824219 1700.113281 C 1167.472656 1708.921875 1167.957031 1719.054688 1164.347656 1727.554688 C 1153.992188 1751.609375 1142.316406 1775.175781 1131.304688 1798.917969 C 1127.164062 1807.726562 1123.066406 1816.539062 1119.101562 1825.789062 C 1110.289062 1845.832031 1101.476562 1865.964844 1092.664062 1885.742188 C 1079.714844 1884.640625 1078.699219 1882.21875 1080.460938 1871.160156 C 1084.867188 1843.71875 1089.582031 1816.230469 1091.828125 1788.609375 C 1096.5 1731.34375 1083.019531 1676.722656 1066.054688 1622.890625 C 1055.703125 1590.25 1043.101562 1558.402344 1032.308594 1525.980469 C 1024.90625 1503.601562 1017.8125 1481.003906 1012.570312 1458.007812 C 1001.867188 1411.183594 992.128906 1364.136719 983.007812 1317.046875 C 982.332031 1312.265625 982.160156 1307.46875 982.484375 1302.652344 C 982.8125 1297.835938 983.632812 1293.101562 984.949219 1288.457031 C 990.101562 1267.355469 996.050781 1246.34375 1002.921875 1225.730469 C 1008.121094 1210.046875 1015.300781 1194.894531 1021.425781 1179.695312 C 1021.953125 1178.195312 1022.15625 1176.648438 1022.03125 1175.0625 C 1021.910156 1173.476562 1021.472656 1171.980469 1020.722656 1170.578125 C 1010.058594 1180.929688 999.664062 1191.632812 988.429688 1201.414062 C 987.535156 1202.140625 986.574219 1202.765625 985.550781 1203.289062 C 984.523438 1203.8125 983.457031 1204.222656 982.34375 1204.519531 C 981.230469 1204.8125 980.097656 1204.992188 978.949219 1205.046875 C 977.796875 1205.101562 976.65625 1205.035156 975.519531 1204.847656 C 974.597656 1204.316406 973.746094 1203.6875 972.96875 1202.964844 C 972.191406 1202.238281 971.503906 1201.4375 970.910156 1200.554688 C 970.3125 1199.671875 969.824219 1198.734375 969.441406 1197.742188 C 969.0625 1196.75 968.796875 1195.726562 968.648438 1194.671875 C 962.796875 1149.234375 962.078125 1103.714844 966.488281 1058.117188 C 968.773438 1024.6875 974.78125 991.945312 984.507812 959.882812 C 994.289062 929.664062 1001.160156 898.476562 1008.078125 866.539062 C 1004.464844 870.945312 1000.894531 875.613281 997.238281 880.0625 L 931.859375 958.957031 C 899.785156 997.722656 868.019531 1036.707031 835.550781 1075.164062 C 801.804688 1115.117188 767.21875 1154.453125 733.382812 1194.101562 C 710.871094 1220.53125 688.492188 1247.402344 666.992188 1274.847656 C 630.730469 1321.230469 595.179688 1368.191406 559.359375 1414.925781 C 528.035156 1455.804688 495.917969 1496.070312 465.652344 1537.695312 C 423.445312 1595.753906 382.0625 1654.417969 341.5 1713.679688 C 305.199219 1766.71875 269.851562 1820.398438 235.457031 1874.730469 C 219.726562 1899.484375 207.039062 1926.179688 192.941406 1952.039062 C 180.253906 1975.339844 167.433594 1998.601562 154.832031 2021.992188 C 150.425781 2030.273438 146.023438 2038.730469 142.453125 2047.410156 C 129.414062 2077.890625 116.445312 2108.417969 103.550781 2138.992188 L 92.007812 2135.027344 C 102.757812 2109.871094 114.035156 2084.894531 125.050781 2059.785156 C 132.320312 2043.269531 139.015625 2026.398438 147.078125 2010.1875 C 158.179688 1987.765625 170.078125 1965.652344 182.058594 1943.667969 C 194.042969 1921.6875 205.9375 1900.5 218.539062 1879.3125 C 232.195312 1856.433594 246.25 1833.804688 260.703125 1811.429688 C 287.136719 1770.679688 313.570312 1729.800781 341.058594 1689.804688 C 362.074219 1659.234375 385.117188 1630.117188 406.75 1599.984375 C 438.777344 1555.359375 469.839844 1510.03125 502.308594 1465.761719 C 523.453125 1436.910156 546.671875 1409.640625 568.394531 1381.226562 C 590.863281 1351.890625 611.480469 1321.144531 634.917969 1292.640625 C 674.304688 1244.625 715.410156 1198.019531 755.546875 1150.621094 C 784.003906 1116.96875 812.027344 1083.003906 840.132812 1049.085938 C 860.929688 1023.976562 881.503906 998.691406 902.210938 973.492188 C 903.132812 972.59375 903.804688 971.535156 904.234375 970.320312 C 904.660156 969.105469 904.792969 967.855469 904.632812 966.578125 C 898.554688 972.261719 892.339844 977.8125 886.480469 983.667969 C 839.296875 1030.980469 791.582031 1077.761719 745.191406 1125.820312 C 705.230469 1167.183594 665.890625 1209.296875 627.957031 1252.421875 C 583.519531 1302.847656 540.003906 1354.09375 497.417969 1406.160156 C 452.832031 1460.609375 408.90625 1515.628906 366.261719 1571.617188 C 338.242188 1608.398438 313.128906 1647.425781 286.519531 1685.355469 C 273.300781 1703.945312 259.292969 1721.785156 246.867188 1740.816406 C 229.246094 1767.6875 213.164062 1795.480469 196.113281 1822.707031 C 185.894531 1839.003906 174.4375 1854.511719 164.703125 1871.160156 C 153.378906 1890.367188 143.554688 1910.453125 132.671875 1929.925781 C 122.1875 1948.691406 110.863281 1967.058594 100.421875 1985.871094 C 92.40625 2000.1875 84.738281 2014.722656 77.691406 2029.523438 C 63.945312 2058.273438 50.433594 2087.214844 37.15625 2116.347656 Z M 1047.464844 879.929688 C 1042.53125 871.5625 1036.671875 863.71875 1029.445312 853.015625 C 991.996094 963.140625 963.84375 1071.640625 981.953125 1187.800781 C 996.710938 1175.292969 1009.53125 1163.617188 1023.320312 1153.175781 C 1026.714844 1150.621094 1035.085938 1149.699219 1037.640625 1151.988281 C 1041.429688 1155.335938 1048.433594 1161.238281 1040.328125 1168.199219 C 1038.449219 1170.28125 1037.140625 1172.675781 1036.40625 1175.378906 C 1024.863281 1206.480469 1012.484375 1237.359375 1002.261719 1268.898438 C 997.855469 1283.171875 993.714844 1299.339844 995.785156 1313.699219 C 1001.027344 1349.46875 1009.222656 1384.886719 1017.460938 1420.125 C 1025.257812 1453.472656 1033.496094 1486.773438 1043.675781 1519.417969 C 1056.496094 1560.648438 1072.269531 1601 1085.21875 1642.1875 C 1092.199219 1664.054688 1097.402344 1686.335938 1100.824219 1709.035156 C 1104.242188 1731.730469 1105.84375 1754.554688 1105.617188 1777.507812 C 1105.398438 1794.734375 1102.621094 1811.957031 1100.992188 1829.179688 C 1113.988281 1805.480469 1126.191406 1781.871094 1136.722656 1757.464844 C 1143.992188 1740.640625 1148.839844 1722.796875 1154.742188 1705.398438 C 1160.25 1689.277344 1166.726562 1673.375 1171 1656.941406 C 1181.878906 1615.09375 1193.027344 1573.246094 1201.839844 1530.957031 C 1208.183594 1500.121094 1214.042969 1468.230469 1214.175781 1436.820312 C 1214.589844 1391.507812 1211.65625 1346.414062 1205.363281 1301.539062 C 1198.179688 1252.554688 1185.492188 1204.363281 1174.523438 1156.171875 C 1160.511719 1094.5 1133.285156 1037.765625 1105.925781 981.421875 C 1088.964844 946.183594 1067.289062 913.496094 1047.464844 879.929688 Z M 1055.394531 844.691406 C 1051.585938 844.75 1047.828125 845.203125 1044.117188 846.054688 C 1059.402344 863.148438 1071.476562 879.3125 1086.144531 892.574219 C 1130.730469 932.96875 1176.242188 972.304688 1221.488281 1011.949219 C 1226.554688 1016.355469 1231.136719 1017.238281 1236.160156 1010.453125 C 1245.542969 997.855469 1255.984375 986.050781 1265.367188 974.683594 C 1275.898438 975.257812 1280.257812 979.574219 1280.832031 989.882812 C 1282.066406 1012.304688 1285.546875 1034.59375 1286.78125 1057.015625 C 1287.925781 1078.777344 1297.175781 1096.265625 1308.808594 1114.28125 C 1324.273438 1137.21875 1337.78125 1161.257812 1349.339844 1186.390625 C 1369.5625 1231.015625 1387.273438 1277.046875 1419.34375 1314.84375 C 1440.714844 1340.042969 1464.679688 1363.300781 1487.765625 1386.777344 C 1500.191406 1399.507812 1519.53125 1394.882812 1527.417969 1378.320312 C 1532.585938 1366.90625 1538.355469 1355.804688 1544.730469 1345.019531 C 1548.386719 1338.851562 1558.742188 1339.554688 1560.371094 1345.589844 C 1566.011719 1366.472656 1572.089844 1387.261719 1576.320312 1408.453125 C 1584.382812 1448.890625 1596.410156 1486.246094 1628.613281 1515.714844 C 1662.097656 1546.550781 1693.332031 1579.632812 1723.863281 1613.242188 C 1738.535156 1629.410156 1749.683594 1648.882812 1761.578125 1667.339844 C 1764.878906 1673.933594 1767.433594 1680.804688 1769.242188 1687.953125 L 1774 1687.292969 C 1771.929688 1656.722656 1773.78125 1625.226562 1766.996094 1595.710938 C 1754.484375 1540.914062 1737.390625 1487.082031 1721.308594 1433.121094 C 1710.78125 1397.878906 1700.734375 1361.976562 1686.902344 1327.839844 C 1661.394531 1264.757812 1623.636719 1208.902344 1578.566406 1158.023438 C 1552.167969 1128.167969 1524.289062 1099.769531 1494.925781 1072.824219 C 1465.5625 1045.878906 1434.878906 1020.539062 1402.867188 996.796875 C 1349.316406 956.378906 1292.820312 920.609375 1233.382812 889.488281 C 1202.542969 873.675781 1169.675781 865.394531 1136.457031 857.859375 C 1109.761719 851.824219 1082.445312 848.917969 1055.394531 844.777344 Z M 1044.246094 826.804688 C 1056.109375 825.25 1068.019531 824.324219 1079.976562 824.03125 C 1107.335938 824.777344 1134.738281 825.527344 1161.96875 828.039062 C 1206.023438 832.136719 1249.640625 837.949219 1293.519531 842.53125 C 1333.257812 846.671875 1373.042969 850.429688 1412.871094 853.808594 C 1423.882812 854.777344 1424.414062 852.882812 1419.960938 842.621094 C 1414.191406 829.402344 1408.726562 815.792969 1403.882812 802.136719 C 1403.792969 801.75 1403.726562 801.355469 1403.6875 800.960938 C 1403.644531 800.5625 1403.632812 800.164062 1403.644531 799.765625 C 1403.652344 799.367188 1403.691406 798.972656 1403.753906 798.578125 C 1403.816406 798.183594 1403.902344 797.796875 1404.015625 797.414062 C 1404.125 797.03125 1404.261719 796.65625 1404.421875 796.292969 C 1404.582031 795.925781 1404.765625 795.574219 1404.972656 795.230469 C 1405.175781 794.890625 1405.40625 794.5625 1405.652344 794.25 C 1405.898438 793.9375 1406.167969 793.644531 1406.453125 793.363281 C 1406.738281 793.085938 1407.039062 792.828125 1407.359375 792.589844 C 1407.679688 792.351562 1408.011719 792.132812 1408.359375 791.9375 C 1408.707031 791.738281 1409.066406 791.566406 1409.433594 791.417969 C 1409.804688 791.265625 1410.179688 791.140625 1410.566406 791.039062 C 1410.953125 790.9375 1411.34375 790.859375 1411.738281 790.808594 C 1412.132812 790.757812 1412.53125 790.730469 1412.929688 790.730469 C 1413.328125 790.730469 1413.726562 790.757812 1414.121094 790.808594 C 1414.515625 790.859375 1414.90625 790.933594 1415.292969 791.035156 C 1432.914062 797.6875 1450.097656 804.734375 1467.28125 812.046875 C 1484.460938 819.359375 1501.027344 828.304688 1518.605469 834.382812 C 1523.523438 836.246094 1528.601562 837.394531 1533.84375 837.828125 C 1539.085938 838.265625 1544.285156 837.964844 1549.445312 836.9375 C 1588.523438 826.453125 1627.160156 814.164062 1665.84375 802.226562 C 1672.980469 800.066406 1676.546875 796.628906 1669.894531 788.613281 C 1660.070312 776.808594 1651.699219 763.769531 1644.429688 753.636719 C 1653.023438 740.421875 1661.65625 744.828125 1670.25 748.484375 C 1678.839844 752.140625 1687.871094 756.542969 1696.945312 760.554688 C 1706.023438 764.5625 1714.570312 768.964844 1723.863281 772.445312 C 1732.324219 775.707031 1741.882812 781.257812 1749.769531 779.847656 C 1769.109375 776.101562 1790.082031 776.632812 1806.691406 762.578125 C 1810.046875 759.496094 1813.6875 756.800781 1817.617188 754.492188 C 1821.546875 752.183594 1825.671875 750.3125 1829.996094 748.878906 C 1854.007812 742.449219 1877.535156 732.050781 1903.617188 736.457031 C 1908.269531 736.816406 1912.925781 736.816406 1917.582031 736.457031 C 1916.613281 734.078125 1916.480469 732.757812 1915.730469 732.050781 C 1878.898438 699.542969 1840.527344 669.191406 1797.085938 645.625 C 1757.921875 624.347656 1719.855469 601 1676.019531 589.898438 C 1671.933594 588.375 1667.765625 587.144531 1663.507812 586.199219 C 1647.078125 584.183594 1630.589844 583.316406 1614.039062 583.605469 C 1597.488281 583.894531 1581.039062 585.332031 1564.6875 587.917969 C 1526.269531 594.703125 1488.03125 602.324219 1449.746094 609.941406 C 1414.5 616.769531 1379.253906 622.804688 1344.40625 631.21875 C 1322.210938 636.648438 1300.667969 643.992188 1279.773438 653.246094 C 1261.636719 662.019531 1244.128906 671.917969 1227.257812 682.933594 C 1205.671875 695.886719 1183.6875 708.351562 1163.199219 722.890625 C 1140.777344 738.835938 1119.144531 756.105469 1098.394531 774.164062 C 1080.242188 790.242188 1063.765625 807.863281 1044.246094 826.894531 Z M 1033.496094 810.242188 C 1036.445312 807.253906 1039.160156 804.066406 1041.648438 800.683594 C 1057.199219 776.191406 1072.972656 751.917969 1087.777344 727.03125 C 1099.140625 707.867188 1111.960938 688.882812 1119.320312 668.132812 C 1135.355469 622.9375 1155.667969 578.621094 1157.957031 529.507812 C 1158.839844 510.742188 1159.5 491.976562 1160.335938 471.007812 C 1149.148438 476.996094 1140.203125 479.816406 1134.300781 485.542969 C 1127.558594 492.105469 1121.082031 491.050781 1116.675781 486.292969 C 1113.769531 483.207031 1113.855469 475.589844 1115.179688 470.699219 C 1117.117188 463.605469 1122.097656 457.484375 1124.5625 450.433594 C 1131.992188 429.527344 1139.085938 408.484375 1145.84375 387.308594 C 1146.679688 385.105469 1147.207031 382.828125 1147.425781 380.480469 C 1147.644531 378.132812 1147.539062 375.800781 1147.121094 373.476562 C 1141.964844 355.328125 1138.308594 336.167969 1129.804688 319.691406 C 1104.121094 270.3125 1076.277344 222.121094 1049.445312 173.355469 C 1020.414062 120.496094 978.957031 77.898438 938.292969 34.289062 C 936.808594 32.933594 935.179688 31.789062 933.402344 30.851562 C 933.089844 45.101562 931.945312 59.289062 929.964844 73.40625 C 923.355469 107.28125 914.941406 140.800781 908.246094 174.722656 C 906.882812 180.226562 906.085938 185.8125 905.847656 191.476562 C 905.609375 197.144531 905.9375 202.777344 906.835938 208.375 C 912.652344 234.277344 926 256.304688 942.609375 277.007812 C 950.671875 287.140625 947.015625 295.949219 933.796875 298.195312 C 924.988281 299.78125 916.175781 301.71875 906.042969 303.703125 C 905.871094 309.097656 905.972656 314.484375 906.351562 319.867188 C 910.757812 351.980469 914.148438 384.183594 919.566406 416.03125 C 925.296875 448.628906 932.785156 481.007812 947.675781 510.917969 C 968.515625 552.941406 990.542969 594.613281 1011.160156 636.550781 C 1025.875 666.59375 1028.519531 699.542969 1030.589844 732.273438 C 1032.660156 757.734375 1032.703125 783.328125 1033.496094 810.332031 Z M 998.253906 794.472656 C 974.992188 723.636719 962.257812 648.089844 901.546875 594.746094 C 894.585938 602.9375 887.1875 611.484375 879.917969 620.117188 C 874.980469 625.976562 863.746094 625.535156 860.753906 618.578125 C 849.871094 593.292969 838.722656 568.007812 829.121094 542.238281 C 818.765625 514.792969 809.46875 486.996094 786.382812 466.867188 C 773.167969 455.28125 759.246094 444.136719 746.46875 431.933594 C 705.277344 392.683594 658.003906 361.453125 610.863281 330.351562 C 581.128906 310.703125 550.199219 293.15625 518.078125 277.710938 C 491.34375 264.835938 463.585938 254.761719 434.8125 247.492188 C 400.800781 238.992188 365.644531 235.027344 330.972656 229.34375 C 319.957031 227.539062 308.941406 226.480469 295.199219 224.9375 C 302.996094 249.828125 309.824219 272.292969 317.226562 294.582031 C 338.109375 358.851562 370.09375 414.84375 431.773438 449.246094 C 448.953125 458.894531 466.226562 467.613281 486.402344 470.167969 C 503.054688 472.238281 519.355469 476.910156 535.878906 480.214844 C 547.023438 482.414062 558.257812 484.089844 569.40625 486.160156 C 584.03125 488.847656 598.746094 491.136719 613.152344 494.660156 C 617.558594 495.761719 624.257812 500.257812 624.34375 503.472656 C 624.34375 509.859375 620.511719 514.925781 612.097656 515.367188 C 601.566406 515.9375 591.125 518.273438 578.789062 520.167969 C 580.816406 523.339844 581.34375 525.144531 582.492188 525.761719 C 601.917969 536.730469 621.261719 547.789062 640.996094 558.269531 C 665.714844 571.488281 691.398438 582.675781 715.671875 596.464844 C 759.289062 621.265625 803.039062 645.933594 845.113281 673.199219 C 892.824219 704.035156 941.109375 734.871094 980.277344 777.070312 C 985.785156 782.886719 992.21875 788.570312 998.386719 794.558594 Z M 976.886719 813.414062 C 974.902344 809.582031 974.726562 808.65625 974.199219 808.347656 C 926.265625 781.917969 878.859375 754.386719 830.132812 729.496094 C 802.640625 715.445312 772.859375 705.621094 744.355469 693.859375 C 729.464844 687.738281 714.75 681.042969 699.636719 675.359375 C 670.824219 664.433594 642.363281 652.761719 612.757812 643.816406 C 584.296875 635.007812 554.957031 629.414062 525.921875 622.628906 C 508.300781 618.488281 490.675781 614.171875 473.054688 611 C 445.386719 606.066406 417.191406 603.46875 389.785156 597.257812 C 352.585938 588.714844 314.902344 584.707031 276.738281 585.230469 C 234.3125 585.890625 191.972656 590.253906 149.546875 592.894531 C 138.238281 593.585938 126.992188 594.824219 115.804688 596.609375 C 104.621094 598.398438 93.546875 600.722656 82.585938 603.589844 C 71.628906 606.453125 60.832031 609.84375 50.203125 613.761719 C 39.574219 617.679688 29.160156 622.101562 18.960938 627.035156 C 5.480469 633.554688 -7.25 641.617188 -20.6875 648.3125 C -24.34375 650.117188 -32.453125 648.3125 -33.023438 650.207031 C -36.8125 662.011719 -48.53125 660.953125 -56.375 665.625 C -77.125 678 -98.492188 689.367188 -119.59375 701.128906 L -117.964844 704.871094 C -107.832031 702.363281 -97.742188 699.71875 -87.523438 697.429688 C -63.730469 692.097656 -40.777344 699.410156 -17.605469 702.757812 C -5.503906 704.851562 6.421875 707.6875 18.167969 711.261719 C 31.386719 714.871094 46.101562 716.632812 57.601562 723.507812 C 83.769531 739.1875 112.054688 740.246094 140.867188 740.289062 C 144.867188 740.023438 148.609375 738.910156 152.101562 736.941406 C 181.136719 722.84375 210.035156 708.398438 239.15625 694.34375 C 244.707031 691.65625 252.375 697.472656 251.492188 704.300781 C 250.261719 715.488281 247.792969 726.589844 245.898438 737.734375 C 245.742188 738.714844 245.636719 739.699219 245.585938 740.6875 C 245.53125 741.679688 245.535156 742.667969 245.585938 743.65625 C 245.640625 744.648438 245.746094 745.632812 245.90625 746.609375 C 246.066406 747.589844 246.277344 748.558594 246.539062 749.511719 C 246.800781 750.46875 247.113281 751.410156 247.476562 752.332031 C 247.839844 753.253906 248.25 754.15625 248.710938 755.035156 C 249.167969 755.914062 249.671875 756.765625 250.222656 757.589844 C 250.773438 758.414062 251.363281 759.207031 252 759.96875 C 252.636719 760.730469 253.308594 761.457031 254.019531 762.144531 C 254.734375 762.835938 255.480469 763.484375 256.261719 764.097656 C 257.042969 764.707031 257.855469 765.273438 258.699219 765.796875 C 259.539062 766.320312 260.40625 766.796875 261.300781 767.226562 C 262.195312 767.65625 263.109375 768.039062 264.042969 768.371094 C 264.976562 768.703125 265.925781 768.984375 266.890625 769.21875 C 267.855469 769.449219 268.828125 769.628906 269.8125 769.753906 C 270.792969 769.882812 271.78125 769.957031 272.773438 769.980469 C 309.691406 770.242188 346.65625 770.992188 383.574219 769.980469 C 390.066406 769.910156 396.527344 769.433594 402.960938 768.558594 C 409.390625 767.683594 415.746094 766.410156 422.019531 764.746094 C 428.292969 763.078125 434.4375 761.027344 440.457031 758.59375 C 446.472656 756.160156 452.316406 753.363281 457.988281 750.199219 C 480.542969 737.339844 502.894531 724.121094 525.039062 710.554688 C 533.058594 705.578125 539.402344 705.136719 545.703125 713.945312 C 542.222656 724.210938 538.300781 735.003906 534.996094 745.972656 C 534.117188 748.921875 533.984375 754.78125 535.4375 755.398438 C 544.25 760.066406 553.589844 767.117188 562.710938 767.070312 C 591.742188 766.765625 620.777344 763.238281 649.808594 761.875 C 676.054688 760.023438 702.328125 759.496094 728.625 760.289062 C 753.914062 761.609375 779.070312 766.148438 804.183594 769.980469 C 828.632812 773.636719 853.304688 776.851562 877.230469 782.710938 C 904.410156 789.363281 930.933594 798.699219 957.71875 806.980469 C 963.359375 808.699219 969.042969 810.683594 977.015625 813.5 Z M 974.507812 864.511719 C 984.507812 857.421875 994.066406 849.753906 1003.804688 842.488281 C 993.941406 839.972656 983.925781 838.507812 973.757812 838.082031 C 933.488281 834.515625 893.265625 828.832031 852.953125 827.6875 C 818.703125 827.226562 784.574219 829.03125 750.566406 833.105469 C 709.8125 837.289062 669.238281 843.324219 628.75 849.710938 C 605.179688 853.410156 585.265625 862.707031 577.117188 888.828125 C 573.855469 899.3125 567.46875 911.339844 553.015625 910.855469 C 530.988281 909.753906 507.992188 911.824219 486.933594 900.898438 C 481.089844 897.664062 475.007812 894.960938 468.691406 892.792969 C 466.574219 892.027344 464.394531 891.5625 462.148438 891.398438 C 459.90625 891.234375 457.679688 891.375 455.476562 891.824219 C 417.542969 902.527344 380.359375 915.128906 345.863281 934.597656 C 313.878906 952.570312 281.230469 969.398438 250.039062 988.605469 C 228.777344 1001.410156 208.371094 1015.460938 188.824219 1030.757812 C 169.28125 1046.058594 150.738281 1062.488281 133.203125 1080.054688 C 90.949219 1123.222656 47.289062 1165.070312 4.421875 1207.800781 C -3.242188 1215.464844 -10.203125 1223.878906 -17.605469 1231.984375 L -16.019531 1234.1875 C -13.8125 1233.542969 -11.667969 1232.734375 -9.585938 1231.765625 C 0.765625 1226.125 10.371094 1218.152344 21.253906 1214.894531 C 68.351562 1201.015625 115.578125 1187.492188 163.292969 1175.863281 C 216.378906 1162.914062 270.039062 1152.296875 323.394531 1140.625 C 330.65625 1139.132812 337.800781 1137.207031 344.824219 1134.839844 C 351.851562 1132.472656 358.707031 1129.683594 365.390625 1126.476562 C 372.074219 1123.269531 378.535156 1119.664062 384.777344 1115.664062 C 391.015625 1111.664062 396.988281 1107.296875 402.695312 1102.5625 C 422.226562 1085.625 440.65625 1067.566406 457.988281 1048.378906 C 471.203125 1034.019531 485.433594 1026.355469 505.523438 1030.980469 C 516.671875 1033.449219 523.144531 1038.996094 522.441406 1050.1875 C 522.589844 1058.046875 522.046875 1065.859375 520.8125 1073.621094 C 518.5625 1082.917969 523.144531 1086.574219 530.503906 1087.71875 C 545.21875 1090.007812 558.699219 1092.476562 574.558594 1085.296875 C 604.210938 1071.816406 627.429688 1051.199219 647.429688 1027.457031 C 667.433594 1003.714844 685.980469 978.074219 711.664062 959.046875 C 723.648438 950.234375 732.546875 949.53125 743.253906 960.324219 C 748.113281 966.089844 753.707031 971.023438 760.039062 975.125 C 775.0625 983.007812 790.878906 990.496094 807.972656 980.453125 C 820.175781 973.273438 832.070312 965.476562 843.65625 957.328125 C 887.421875 926.582031 931.082031 895.671875 974.636719 864.601562 Z M 974.507812 864.511719 " fill-opacity="1" fill-rule="nonzero"/></g></g></g></g></g></g></g></g></g><g clip-path="url(#f53d986a32)"><g mask="url(#413bc06c53)"><g transform="matrix(1, 0, 0, 1, 0.000000000000000056, 110)"><g clip-path="url(#43949d0c14)"><g clip-path="url(#230af6356f)"><g mask="url(#dfb80c9065)"><g transform="matrix(1, 0, 0, 1, 0.000000000000000056, -0.000000000000156319)"><g clip-path="url(#bd44129abb)"><g clip-path="url(#79030a21ba)"><path fill="#2ab775" d="M 52.988281 2187.558594 L 41.058594 2183.507812 C 56.8125 2148.445312 72.609375 2113.382812 89.910156 2079.097656 C 109.761719 2039.710938 131.890625 2001.417969 153.652344 1962.988281 C 167.722656 1938.082031 182.746094 1913.71875 197.632812 1889.3125 C 220.171875 1852.429688 242.523438 1815.457031 265.925781 1779.121094 C 281.269531 1755.21875 297.796875 1731.902344 314.734375 1709.136719 C 355.773438 1654.132812 397.128906 1599.386719 438.800781 1544.898438 C 459.925781 1517.078125 481.007812 1489.210938 503.042969 1462.164062 C 533.320312 1425.054688 564.460938 1388.625 595.332031 1351.972656 C 618.367188 1324.652344 641.269531 1297.332031 664.761719 1270.011719 C 678.96875 1253.753906 693.8125 1238.136719 708.925781 1222.65625 C 760.679688 1170.019531 812.582031 1117.429688 864.636719 1064.882812 C 907.207031 1021.988281 950.09375 979.371094 992.800781 936.570312 C 993.96875 935.535156 994.90625 934.324219 995.605469 932.929688 C 996.304688 931.539062 996.722656 930.0625 996.851562 928.507812 C 986.289062 935.386719 975.5 941.941406 964.984375 949.136719 C 929.378906 973.9375 893.867188 998.859375 858.445312 1023.902344 C 838.503906 1038.019531 818.425781 1033.007812 799.574219 1022.945312 C 787.238281 1016.433594 776.8125 1006.234375 764.835938 997.175781 C 752.292969 1006.675781 740.503906 1017.039062 729.472656 1028.261719 C 718.441406 1039.484375 708.285156 1051.449219 699 1064.152344 C 678.921875 1090.289062 655.75 1113.695312 624.652344 1127.492188 C 611.996094 1133.136719 602.160156 1145.386719 585.90625 1142.199219 C 573.25 1139.695312 559.953125 1139.695312 547.796875 1135.914062 C 543.246094 1134.503906 539.558594 1125.441406 538.921875 1119.476562 C 538.207031 1108.945312 538.632812 1098.457031 540.195312 1088.015625 C 540.921875 1081.546875 539.058594 1079.679688 532.773438 1078.542969 C 521.664062 1076.449219 512.878906 1077.585938 504.316406 1086.511719 C 482.28125 1109.277344 459.246094 1131.5 436.433594 1153.671875 C 432.480469 1157.171875 428.203125 1160.207031 423.59375 1162.78125 C 382.890625 1187.960938 336.589844 1195.519531 290.921875 1205.445312 C 237.257812 1217.101562 183.714844 1229.320312 130.296875 1242.097656 C 101.796875 1248.515625 73.78125 1256.605469 46.25 1266.367188 C 26.988281 1273.5625 9.507812 1285.675781 -8.386719 1296.101562 C -22.410156 1304.296875 -35.703125 1313.269531 -50.183594 1322.238281 L -58.695312 1312.675781 C -55.738281 1309.078125 -53.003906 1305.207031 -49.589844 1301.886719 C 9.1875 1241.734375 67.648438 1181.265625 127.109375 1121.753906 C 166.21875 1082.640625 207.058594 1045.394531 255.636719 1017.710938 C 290.605469 997.765625 325.402344 977.488281 360.035156 956.878906 C 397.78125 934.335938 439.210938 921.132812 480.960938 909.203125 C 483.578125 908.390625 486.246094 907.867188 488.976562 907.632812 C 491.703125 907.394531 494.425781 907.453125 497.140625 907.808594 C 499.855469 908.164062 502.5 908.800781 505.078125 909.726562 C 507.65625 910.65625 510.101562 911.84375 512.421875 913.300781 C 535.1875 926.960938 561.867188 929.921875 588.09375 926.6875 C 593.328125 926.050781 597.5625 914.894531 601.75 908.246094 C 609.355469 895.90625 611.996094 879.289062 628.75 874.78125 C 651.515625 868.632812 674.277344 861.9375 697.042969 857.839844 C 724.359375 853.015625 751.90625 850.375 779.40625 847.414062 C 834.40625 841.449219 889.496094 837.898438 944.769531 844.589844 C 963.484375 846.976562 982.273438 847.855469 1001.132812 847.230469 C 988.066406 842.679688 975.089844 838.125 961.886719 834.027344 C 952.234375 831.113281 942.265625 828.925781 932.339844 826.925781 C 906.570312 821.777344 880.800781 816.40625 854.9375 812.082031 C 827.621094 807.527344 799.847656 801.699219 772.074219 800.421875 C 736.925781 798.785156 701.597656 800.742188 666.355469 802.0625 C 642.816406 802.929688 619.1875 807.527344 595.785156 806.253906 C 582.128906 805.476562 568.105469 797.601562 555.675781 790.496094 C 552.261719 788.539062 552.808594 777.65625 553.535156 771.101562 C 554.953125 764.488281 557.015625 758.082031 559.726562 751.886719 L 557.039062 749.289062 C 545.15625 756.4375 532.589844 762.949219 521.4375 770.964844 C 514.425781 776.210938 507.089844 780.96875 499.441406 785.234375 C 491.789062 789.5 483.886719 793.230469 475.734375 796.4375 C 467.582031 799.640625 459.25 802.285156 450.742188 804.371094 C 442.234375 806.457031 433.625 807.964844 424.914062 808.894531 C 402.671875 810.542969 380.410156 810.9375 358.125 810.078125 C 333.539062 810.078125 308.859375 809.710938 284.320312 808.074219 C 278.675781 807.707031 272.390625 802.519531 268.113281 797.917969 C 251.265625 779.707031 251.765625 758.761719 261.648438 734.492188 C 255.539062 735.722656 249.574219 737.453125 243.753906 739.683594 C 224.039062 749.609375 204.371094 759.625 185.15625 770.460938 C 179.996094 773.269531 174.574219 775.417969 168.890625 776.910156 C 163.210938 778.40625 157.433594 779.199219 151.558594 779.296875 C 113.949219 781.117188 81.625 765.042969 47.523438 753.296875 C 14.332031 741.820312 -20.359375 731.03125 -55.964844 733.535156 C -80.324219 735.265625 -104.363281 743.234375 -128.355469 749.242188 C -139.324219 752.363281 -150.082031 756.082031 -160.636719 760.398438 C -169.421875 763.679688 -172.429688 758.625 -174.296875 750.472656 C -153.945312 737.996094 -133.683594 724.519531 -112.511719 712.726562 C -67.9375 687.820312 -23.273438 663.09375 21.980469 639.507812 C 34.011719 633.347656 46.339844 627.851562 58.964844 623.023438 C 71.589844 618.191406 84.4375 614.054688 97.507812 610.609375 C 110.578125 607.164062 123.792969 604.433594 137.160156 602.414062 C 150.523438 600.394531 163.960938 599.097656 177.464844 598.527344 C 205.054688 597.023438 232.460938 592.5625 260.007812 591.652344 C 287.601562 590.433594 315.148438 591.132812 342.644531 593.746094 C 381.933594 598.027344 420.863281 605.402344 459.925781 611.367188 C 487.519531 615.558594 515.199219 619.0625 542.652344 623.933594 C 556.996094 626.90625 571.140625 630.625 585.085938 635.089844 C 629.339844 647.976562 673.777344 660.363281 717.667969 674.476562 C 735.515625 680.214844 752.089844 689.960938 769.390625 697.5625 C 776.035156 700.476562 783.046875 702.117188 789.921875 704.804688 C 819.699219 716.914062 849.792969 728.34375 878.976562 741.683594 C 903.246094 752.796875 926.601562 765.863281 950.050781 778.660156 C 974.636719 792.046875 998.8125 805.980469 1023.167969 819.640625 L 1025.628906 816.816406 C 1006.460938 800.242188 988.339844 782.300781 967.988281 767.410156 C 933.339844 742.09375 898.101562 717.324219 861.632812 694.832031 C 813.6875 665.597656 765.0625 638.277344 716.4375 610.957031 C 691.398438 596.886719 664.898438 585.460938 639.539062 571.9375 C 621.328125 562.191406 603.707031 550.945312 585.816406 540.335938 C 586.269531 531.230469 588.546875 525.265625 599.109375 525.035156 C 602.792969 524.910156 606.417969 524.375 609.984375 523.4375 C 613.546875 522.5 616.964844 521.183594 620.234375 519.480469 C 577.074219 511.375 533.730469 504.136719 490.886719 494.664062 C 478.003906 491.796875 466.300781 483.007812 454.464844 476.453125 C 398.691406 445.625 363.40625 396.996094 340.640625 339.257812 C 326.980469 304.609375 317.375 268.316406 306.265625 232.664062 C 303.582031 224.105469 312.777344 215.726562 322.429688 217.410156 C 367.503906 225.289062 413.03125 231.070312 457.515625 241.773438 C 491.460938 250.375 524.5625 261.5 556.8125 275.148438 C 612.996094 297.914062 660.710938 335.160156 710.292969 369.085938 C 755.292969 400.683594 797.558594 435.589844 837.089844 473.8125 C 861.585938 496.898438 873.96875 526.585938 884.441406 557.683594 C 892.589844 581.90625 902.652344 605.402344 911.757812 629.21875 L 916.3125 629.492188 L 939.761719 599.757812 C 953.417969 599.074219 959.929688 609.136719 968.488281 617.605469 C 987.882812 636.914062 1001.542969 660.179688 1014.019531 683.765625 C 1024.125 703.027344 1029.816406 724.746094 1037.148438 745.417969 C 1045.386719 768.777344 1053.171875 792.320312 1061.324219 815.722656 C 1061.914062 817.203125 1062.765625 818.515625 1063.878906 819.660156 C 1064.988281 820.804688 1066.277344 821.691406 1067.742188 822.324219 C 1067.742188 803.203125 1068.925781 783.941406 1067.242188 764.90625 C 1065.054688 739.773438 1063.734375 713.820312 1056.269531 690.003906 C 1046.570312 659.042969 1031.867188 629.535156 1018.070312 599.984375 C 1010.875 584.59375 1000.90625 570.433594 992.347656 555.636719 C 960.476562 500.402344 952.007812 438.660156 942.808594 377.144531 C 940.03125 358.609375 938.574219 339.851562 936.664062 321.183594 C 936.566406 320.566406 936.503906 319.945312 936.46875 319.320312 C 936.4375 318.699219 936.4375 318.074219 936.464844 317.449219 C 936.496094 316.828125 936.558594 316.207031 936.648438 315.589844 C 936.742188 314.972656 936.867188 314.359375 937.019531 313.753906 C 937.175781 313.148438 937.359375 312.554688 937.574219 311.96875 C 937.789062 311.382812 938.03125 310.808594 938.304688 310.246094 C 938.578125 309.683594 938.878906 309.136719 939.207031 308.605469 C 939.535156 308.074219 939.890625 307.5625 940.269531 307.066406 C 940.648438 306.570312 941.050781 306.09375 941.480469 305.640625 C 941.90625 305.1875 942.359375 304.753906 942.828125 304.34375 C 943.300781 303.933594 943.792969 303.550781 944.300781 303.191406 C 944.8125 302.832031 945.339844 302.5 945.882812 302.191406 C 946.429688 301.886719 946.984375 301.609375 947.558594 301.359375 C 948.128906 301.109375 948.714844 300.886719 949.308594 300.695312 C 949.902344 300.503906 950.503906 300.34375 951.117188 300.214844 C 951.726562 300.085938 952.34375 299.984375 952.964844 299.917969 C 954.597656 299.867188 956.222656 299.703125 957.835938 299.417969 C 963.707031 297.914062 969.535156 296.230469 976.503906 294.316406 C 968.015625 282.597656 960.183594 270.457031 953.007812 257.890625 C 939.714844 231.890625 931.703125 205.390625 939.667969 174.882812 C 950.003906 135.085938 958.425781 94.609375 964.753906 53.945312 C 967.03125 39.421875 960.886719 23.574219 958.472656 7.730469 L 971.128906 0.808594 C 1001.316406 34.277344 1031.820312 67.5625 1061.550781 101.390625 C 1091.28125 135.222656 1114 173.835938 1135.445312 213.3125 C 1156.886719 252.792969 1179.925781 292.496094 1198.867188 333.703125 C 1207.972656 353.738281 1209.75 377.417969 1213.617188 399.636719 C 1214.484375 404.554688 1210.15625 410.382812 1208.335938 415.800781 L 1184.480469 486.289062 C 1188.484375 485.09375 1192.234375 483.347656 1195.726562 481.050781 C 1204.832031 473.082031 1213.9375 468.027344 1225.457031 477.410156 C 1230.917969 536.011719 1220.3125 592.472656 1201.234375 649.023438 C 1182.476562 704.621094 1153.65625 754.296875 1124.835938 804.660156 C 1143.410156 788.722656 1160.984375 771.417969 1180.746094 757.257812 C 1210.796875 735.765625 1242.210938 716.277344 1273.398438 696.289062 C 1290.925781 685.132812 1308.320312 672.929688 1327.441406 665.460938 C 1359.585938 652.914062 1392.367188 642.332031 1425.785156 633.726562 C 1460.386719 624.617188 1495.808594 618.925781 1530.957031 612.371094 C 1568.65625 605.402344 1606.308594 597.664062 1644.324219 593.15625 C 1670.996094 590.53125 1697.707031 590.074219 1724.457031 591.789062 C 1737.523438 592.378906 1750.269531 598.664062 1763.339844 601.394531 C 1798.851562 608.863281 1827.488281 630.855469 1859.449219 645.792969 C 1899.652344 664.507812 1934.253906 691.050781 1968.71875 717.871094 C 1987.386719 732.398438 2004.460938 748.878906 2021.988281 764.269531 C 2019.714844 769.960938 2018.121094 773.96875 2016.253906 778.75 C 2001.683594 777.109375 1986.839844 773.742188 1972.136719 774.195312 C 1956.28125 774.734375 1940.769531 777.328125 1925.605469 781.984375 C 1911.867188 786.894531 1898.769531 793.148438 1886.3125 800.742188 C 1852.667969 819.457031 1819.246094 827.5625 1783.097656 806.160156 C 1771.261719 799.148438 1756.734375 796.734375 1743.441406 792.183594 L 1741.800781 794.960938 C 1746.355469 801.0625 1750.453125 807.253906 1755.007812 813.171875 C 1765.25 826.832031 1762.882812 833.890625 1746.902344 839.035156 C 1705.46875 852.332031 1664.492188 867.222656 1622.605469 878.695312 C 1620.128906 879.335938 1617.621094 879.847656 1615.089844 880.222656 C 1612.554688 880.597656 1610.007812 880.835938 1607.449219 880.941406 C 1604.890625 881.042969 1602.335938 881.011719 1599.78125 880.84375 C 1597.222656 880.675781 1594.683594 880.371094 1592.160156 879.933594 C 1589.640625 879.496094 1587.144531 878.925781 1584.683594 878.222656 C 1582.222656 877.515625 1579.804688 876.683594 1577.429688 875.722656 C 1575.058594 874.761719 1572.742188 873.675781 1570.484375 872.46875 C 1568.226562 871.261719 1566.035156 869.9375 1563.917969 868.496094 C 1561.144531 866.71875 1556.179688 868.496094 1553.039062 867.039062 C 1537.421875 859.390625 1522.125 851.011719 1506.554688 843.269531 C 1499.449219 839.71875 1491.894531 837.03125 1484.515625 834.164062 L 1481.011719 837.03125 C 1487.292969 850.691406 1493.484375 864.351562 1499.816406 878.332031 C 1504.6875 888.941406 1499.40625 897.683594 1487.75 896.816406 C 1446.773438 893.8125 1406.160156 891.125 1365.503906 886.710938 C 1311.960938 880.925781 1258.601562 873.414062 1205.058594 867.222656 C 1190.804688 865.699219 1176.601562 866.0625 1162.441406 868.3125 C 1170.136719 870 1177.832031 871.867188 1185.617188 873.414062 C 1205.832031 877.464844 1226.59375 879.835938 1246.171875 885.753906 C 1261.875 891.25 1276.914062 898.183594 1291.289062 906.5625 C 1316.332031 919.765625 1341.644531 932.609375 1365.59375 947.542969 C 1400.972656 969.625 1436.347656 991.984375 1469.71875 1016.9375 C 1531.703125 1063.054688 1588.722656 1114.65625 1640.773438 1171.75 C 1673.417969 1207.859375 1705.105469 1244.96875 1729.828125 1287.769531 C 1746.34375 1316.640625 1760.933594 1346.457031 1773.597656 1377.214844 C 1786.261719 1407.96875 1796.894531 1439.414062 1805.496094 1471.542969 C 1820.660156 1526.773438 1838.003906 1581.371094 1851.984375 1636.875 C 1857.371094 1661.152344 1860.117188 1685.726562 1860.222656 1710.59375 C 1861.40625 1749.117188 1860.222656 1787.683594 1860.222656 1827.523438 L 1847.792969 1829.347656 C 1845.835938 1815.6875 1844.699219 1803.253906 1842.101562 1791.007812 C 1835.046875 1757.265625 1826.078125 1723.890625 1802.21875 1697.753906 C 1763.746094 1655.679688 1724.820312 1613.925781 1684.753906 1573.402344 C 1678.378906 1566.921875 1672.511719 1560.011719 1667.152344 1552.667969 C 1661.792969 1545.324219 1657 1537.628906 1652.773438 1529.582031 C 1648.546875 1521.53125 1644.933594 1513.21875 1641.929688 1504.636719 C 1638.925781 1496.054688 1636.570312 1487.300781 1634.855469 1478.375 C 1630.214844 1455.652344 1623.960938 1433.386719 1616.097656 1411.574219 C 1612.171875 1416.757812 1608.90625 1422.328125 1606.308594 1428.285156 C 1600.480469 1447.730469 1582.222656 1450.824219 1567.425781 1456.652344 C 1562.054688 1458.75 1550.851562 1451.597656 1545.023438 1445.90625 C 1511.789062 1413.441406 1477.960938 1381.339844 1451.917969 1342.363281 C 1444.570312 1330.808594 1437.984375 1318.832031 1432.160156 1306.4375 C 1412.945312 1268.054688 1394.640625 1229.03125 1374.882812 1191.148438 C 1365.777344 1173.160156 1353.800781 1156.40625 1343.011719 1139.238281 C 1333.679688 1124.578125 1332.085938 1108.183594 1330.71875 1091.472656 C 1329.125 1071.347656 1326.710938 1051.3125 1324.34375 1027.726562 C 1313.738281 1040.113281 1305.359375 1049.675781 1297.253906 1059.601562 C 1296.933594 1060.027344 1296.589844 1060.4375 1296.226562 1060.832031 C 1295.863281 1061.226562 1295.480469 1061.597656 1295.082031 1061.953125 C 1294.679688 1062.304688 1294.261719 1062.636719 1293.824219 1062.949219 C 1293.390625 1063.261719 1292.941406 1063.546875 1292.476562 1063.8125 C 1292.011719 1064.078125 1291.53125 1064.320312 1291.042969 1064.535156 C 1290.554688 1064.75 1290.054688 1064.941406 1289.546875 1065.105469 C 1289.035156 1065.273438 1288.519531 1065.410156 1287.996094 1065.523438 C 1287.472656 1065.636719 1286.945312 1065.722656 1286.414062 1065.78125 C 1285.882812 1065.839844 1285.347656 1065.871094 1284.8125 1065.875 C 1284.277344 1065.878906 1283.746094 1065.855469 1283.210938 1065.804688 C 1282.679688 1065.753906 1282.152344 1065.675781 1281.625 1065.570312 C 1281.101562 1065.464844 1280.582031 1065.335938 1280.074219 1065.175781 C 1279.5625 1065.019531 1279.058594 1064.835938 1278.566406 1064.628906 C 1278.074219 1064.417969 1277.59375 1064.183594 1277.125 1063.925781 C 1276.65625 1063.667969 1276.199219 1063.386719 1275.761719 1063.082031 C 1275.320312 1062.777344 1274.898438 1062.453125 1274.492188 1062.105469 C 1234.878906 1028.410156 1195.316406 994.65625 1155.796875 960.839844 C 1149.421875 955.421875 1143.914062 949 1137.992188 943.035156 L 1135.261719 945.039062 C 1138.203125 952.386719 1141.648438 959.488281 1145.597656 966.347656 C 1172.640625 1006.644531 1189.578125 1051.816406 1209.339844 1095.800781 C 1237.929688 1159.910156 1251.453125 1228.4375 1267.070312 1296.148438 C 1276.722656 1337.992188 1276.175781 1382.113281 1282.183594 1424.871094 C 1289.058594 1473.183594 1278.40625 1520.492188 1275.855469 1568.027344 C 1274.578125 1578.128906 1272.378906 1588.027344 1269.253906 1597.714844 C 1256.324219 1651.445312 1244.351562 1705.449219 1224.546875 1757.3125 C 1221.085938 1766.417969 1221.585938 1776.890625 1217.851562 1785.679688 C 1207.152344 1810.539062 1195.085938 1834.902344 1183.707031 1859.445312 C 1179.425781 1868.550781 1175.191406 1877.65625 1171.09375 1887.21875 C 1161.988281 1907.9375 1152.882812 1928.746094 1143.777344 1949.191406 C 1130.390625 1948.050781 1129.34375 1945.546875 1131.164062 1934.117188 C 1135.71875 1905.75 1140.589844 1877.339844 1142.910156 1848.789062 C 1147.738281 1789.59375 1133.804688 1733.132812 1116.277344 1677.492188 C 1105.578125 1643.75 1092.554688 1610.832031 1081.402344 1577.316406 C 1073.753906 1554.1875 1066.421875 1530.828125 1061.003906 1507.058594 C 1049.941406 1458.65625 1039.878906 1410.027344 1030.453125 1361.351562 C 1029.753906 1356.410156 1029.574219 1351.449219 1029.914062 1346.472656 C 1030.25 1341.492188 1031.097656 1336.601562 1032.457031 1331.800781 C 1037.785156 1309.988281 1043.929688 1288.269531 1051.03125 1266.960938 C 1056.40625 1250.75 1063.828125 1235.085938 1070.15625 1219.378906 C 1070.699219 1217.824219 1070.90625 1216.230469 1070.78125 1214.589844 C 1070.652344 1212.949219 1070.203125 1211.402344 1069.425781 1209.953125 C 1058.410156 1220.652344 1047.664062 1231.71875 1036.054688 1241.828125 C 1035.132812 1242.578125 1034.140625 1243.222656 1033.082031 1243.765625 C 1032.019531 1244.304688 1030.914062 1244.730469 1029.765625 1245.035156 C 1028.617188 1245.34375 1027.445312 1245.523438 1026.257812 1245.582031 C 1025.070312 1245.640625 1023.886719 1245.570312 1022.714844 1245.378906 C 1021.761719 1244.828125 1020.882812 1244.179688 1020.078125 1243.429688 C 1019.273438 1242.679688 1018.5625 1241.851562 1017.949219 1240.9375 C 1017.332031 1240.027344 1016.828125 1239.058594 1016.433594 1238.03125 C 1016.039062 1237.007812 1015.765625 1235.949219 1015.613281 1234.859375 C 1009.566406 1187.890625 1008.824219 1140.839844 1013.378906 1093.707031 C 1015.746094 1059.152344 1021.953125 1025.308594 1032 992.164062 C 1042.109375 960.929688 1049.210938 928.691406 1056.359375 895.679688 C 1052.625 900.234375 1048.9375 905.058594 1045.160156 909.660156 L 977.59375 991.210938 C 944.449219 1031.277344 911.621094 1071.578125 878.066406 1111.328125 C 843.191406 1152.625 807.453125 1193.289062 772.484375 1234.269531 C 749.21875 1261.585938 726.089844 1289.363281 703.871094 1317.730469 C 666.402344 1365.675781 629.660156 1414.214844 592.644531 1462.527344 C 560.273438 1504.78125 527.082031 1546.398438 495.804688 1589.429688 C 452.1875 1649.441406 409.421875 1710.078125 367.503906 1771.335938 C 329.988281 1826.160156 293.457031 1881.648438 257.914062 1937.808594 C 241.660156 1963.398438 228.546875 1990.988281 213.976562 2017.71875 C 200.867188 2041.804688 187.617188 2065.847656 174.59375 2090.027344 C 170.042969 2098.585938 165.488281 2107.328125 161.800781 2116.296875 C 148.324219 2147.808594 134.925781 2179.363281 121.601562 2210.960938 L 109.671875 2206.863281 C 120.78125 2180.863281 132.4375 2155.046875 143.816406 2129.09375 C 151.332031 2112.019531 158.25 2094.578125 166.582031 2077.824219 C 178.054688 2054.644531 190.347656 2031.789062 202.734375 2009.066406 C 215.117188 1986.34375 227.410156 1964.445312 240.429688 1942.542969 C 254.546875 1918.894531 269.070312 1895.507812 284.003906 1872.375 C 311.320312 1830.257812 338.636719 1788 367.046875 1746.65625 C 388.765625 1715.054688 412.578125 1684.957031 434.933594 1653.8125 C 468.03125 1607.6875 500.128906 1560.835938 533.683594 1515.074219 C 555.539062 1485.25 579.53125 1457.0625 601.980469 1427.695312 C 625.199219 1397.367188 646.507812 1365.585938 670.726562 1336.125 C 711.429688 1286.496094 753.910156 1238.320312 795.386719 1189.324219 C 824.796875 1154.539062 853.753906 1119.433594 882.804688 1084.371094 C 904.292969 1058.417969 925.554688 1032.28125 946.953125 1006.234375 C 947.90625 1005.304688 948.605469 1004.210938 949.042969 1002.953125 C 949.484375 1001.699219 949.621094 1000.40625 949.457031 999.085938 C 943.175781 1004.960938 936.753906 1010.699219 930.699219 1016.753906 C 881.9375 1065.65625 832.628906 1114.011719 784.6875 1163.691406 C 743.390625 1206.445312 702.734375 1249.976562 663.535156 1294.554688 C 617.609375 1346.675781 572.644531 1399.644531 528.632812 1453.464844 C 482.554688 1509.746094 437.164062 1566.617188 393.089844 1624.488281 C 364.132812 1662.511719 338.183594 1702.851562 310.683594 1742.058594 C 297.023438 1761.273438 282.546875 1779.714844 269.707031 1799.382812 C 251.496094 1827.160156 234.875 1855.890625 217.257812 1884.03125 C 206.695312 1900.878906 194.855469 1916.90625 184.792969 1934.117188 C 173.09375 1953.972656 162.941406 1974.734375 151.695312 1994.859375 C 140.859375 2014.257812 129.15625 2033.246094 118.367188 2052.6875 C 110.082031 2067.484375 102.160156 2082.511719 94.875 2097.8125 C 80.667969 2127.53125 66.707031 2157.445312 52.988281 2187.558594 Z M 1097.0625 909.523438 C 1091.964844 900.871094 1085.910156 892.765625 1078.441406 881.699219 C 1039.742188 995.535156 1010.648438 1107.683594 1029.359375 1227.757812 C 1044.613281 1214.824219 1057.863281 1202.757812 1072.113281 1191.96875 C 1075.617188 1189.328125 1084.269531 1188.371094 1086.910156 1190.738281 C 1090.824219 1194.199219 1098.066406 1200.300781 1089.6875 1207.492188 C 1087.746094 1209.644531 1086.394531 1212.121094 1085.636719 1214.917969 C 1073.707031 1247.0625 1060.914062 1278.980469 1050.351562 1311.582031 C 1045.796875 1326.335938 1041.519531 1343.046875 1043.65625 1357.890625 C 1049.074219 1394.863281 1057.542969 1431.472656 1066.058594 1467.902344 C 1074.117188 1502.371094 1082.628906 1536.792969 1093.148438 1570.535156 C 1106.398438 1613.152344 1122.695312 1654.863281 1136.082031 1697.433594 C 1143.296875 1720.039062 1148.667969 1743.070312 1152.207031 1766.535156 C 1155.742188 1789.996094 1157.394531 1813.589844 1157.160156 1837.3125 C 1156.933594 1855.117188 1154.066406 1872.921875 1152.382812 1890.726562 C 1165.8125 1866.226562 1178.425781 1841.820312 1189.304688 1816.597656 C 1196.816406 1799.203125 1201.824219 1780.761719 1207.925781 1762.777344 C 1213.617188 1746.109375 1220.3125 1729.671875 1224.726562 1712.6875 C 1235.972656 1669.433594 1247.492188 1626.175781 1256.597656 1582.460938 C 1263.152344 1550.589844 1269.210938 1517.625 1269.347656 1485.15625 C 1269.777344 1438.320312 1266.742188 1391.710938 1260.238281 1345.324219 C 1252.820312 1294.691406 1239.707031 1244.875 1228.371094 1195.0625 C 1213.890625 1131.316406 1185.753906 1072.667969 1157.480469 1014.429688 C 1139.953125 978.003906 1117.550781 944.21875 1097.0625 909.523438 Z M 1105.257812 873.09375 C 1101.324219 873.15625 1097.4375 873.625 1093.601562 874.507812 C 1109.402344 892.175781 1121.875 908.882812 1137.039062 922.589844 C 1183.113281 964.34375 1230.144531 1005.007812 1276.902344 1045.984375 C 1282.140625 1050.539062 1286.875 1051.449219 1292.066406 1044.4375 C 1301.761719 1031.414062 1312.554688 1019.210938 1322.25 1007.464844 C 1333.132812 1008.058594 1337.640625 1012.519531 1338.230469 1023.175781 C 1339.507812 1046.351562 1343.101562 1069.390625 1344.378906 1092.566406 C 1345.5625 1115.0625 1355.121094 1133.136719 1367.144531 1151.761719 C 1383.125 1175.472656 1397.085938 1200.316406 1409.03125 1226.300781 C 1429.925781 1272.425781 1448.230469 1320.007812 1481.375 1359.074219 C 1503.457031 1385.121094 1528.226562 1409.164062 1552.082031 1433.429688 C 1564.921875 1446.589844 1584.910156 1441.808594 1593.058594 1424.6875 C 1598.398438 1412.890625 1604.363281 1401.414062 1610.953125 1390.265625 C 1614.730469 1383.890625 1625.429688 1384.621094 1627.113281 1390.859375 C 1632.941406 1412.441406 1639.226562 1433.933594 1643.597656 1455.832031 C 1651.929688 1497.632812 1664.355469 1536.246094 1697.640625 1566.707031 C 1732.242188 1598.582031 1764.523438 1632.777344 1796.074219 1667.519531 C 1811.234375 1684.230469 1822.753906 1704.355469 1835.046875 1723.433594 C 1838.457031 1730.25 1841.097656 1737.355469 1842.96875 1744.746094 L 1847.886719 1744.0625 C 1845.746094 1712.460938 1847.65625 1679.90625 1840.648438 1649.398438 C 1827.714844 1592.753906 1810.050781 1537.113281 1793.433594 1481.332031 C 1782.550781 1444.90625 1772.171875 1407.796875 1757.875 1372.507812 C 1731.511719 1307.304688 1692.496094 1249.566406 1645.917969 1196.976562 C 1618.640625 1166.117188 1589.828125 1136.761719 1559.484375 1108.910156 C 1529.136719 1081.058594 1497.425781 1054.863281 1464.347656 1030.324219 C 1409.007812 988.546875 1350.621094 951.570312 1289.195312 919.402344 C 1257.324219 903.054688 1223.359375 894.496094 1189.03125 886.710938 C 1161.441406 880.472656 1133.214844 877.464844 1105.257812 873.1875 Z M 1093.738281 854.609375 C 1105.996094 853 1118.304688 852.046875 1130.664062 851.738281 C 1158.9375 852.515625 1187.257812 853.289062 1215.394531 855.882812 C 1260.921875 860.117188 1305.996094 866.128906 1351.34375 870.863281 C 1392.410156 875.144531 1433.523438 879.03125 1474.683594 882.519531 C 1486.066406 883.523438 1486.609375 881.566406 1482.011719 870.957031 C 1476.046875 857.296875 1470.402344 843.226562 1465.394531 829.109375 C 1465.300781 828.707031 1465.234375 828.300781 1465.191406 827.894531 C 1465.152344 827.484375 1465.136719 827.070312 1465.148438 826.660156 C 1465.160156 826.246094 1465.195312 825.839844 1465.261719 825.429688 C 1465.324219 825.023438 1465.414062 824.621094 1465.53125 824.226562 C 1465.648438 823.832031 1465.789062 823.445312 1465.953125 823.066406 C 1466.121094 822.691406 1466.308594 822.324219 1466.519531 821.972656 C 1466.734375 821.621094 1466.96875 821.28125 1467.222656 820.957031 C 1467.480469 820.636719 1467.757812 820.332031 1468.050781 820.042969 C 1468.347656 819.753906 1468.660156 819.488281 1468.988281 819.242188 C 1469.320312 818.992188 1469.664062 818.769531 1470.023438 818.566406 C 1470.378906 818.363281 1470.75 818.183594 1471.132812 818.027344 C 1471.515625 817.875 1471.902344 817.742188 1472.300781 817.636719 C 1472.703125 817.535156 1473.105469 817.453125 1473.511719 817.402344 C 1473.921875 817.347656 1474.332031 817.320312 1474.746094 817.320312 C 1475.15625 817.320312 1475.566406 817.347656 1475.976562 817.398438 C 1476.382812 817.453125 1476.789062 817.53125 1477.1875 817.636719 C 1495.398438 824.511719 1513.15625 831.796875 1530.910156 839.355469 C 1548.667969 846.914062 1565.785156 856.15625 1583.953125 862.441406 C 1589.035156 864.367188 1594.285156 865.554688 1599.703125 866.003906 C 1605.121094 866.453125 1610.492188 866.144531 1615.824219 865.082031 C 1656.207031 854.246094 1696.136719 841.539062 1736.113281 829.199219 C 1743.488281 826.96875 1747.175781 823.417969 1740.300781 815.132812 C 1730.148438 802.929688 1721.496094 789.449219 1713.984375 778.976562 C 1722.863281 765.316406 1731.785156 769.871094 1740.664062 773.648438 C 1749.542969 777.429688 1758.875 781.984375 1768.253906 786.125 C 1777.632812 790.269531 1786.46875 794.824219 1796.074219 798.421875 C 1804.816406 801.789062 1814.695312 807.527344 1822.84375 806.070312 C 1842.832031 802.199219 1864.503906 802.746094 1881.667969 788.222656 C 1885.136719 785.035156 1888.898438 782.25 1892.960938 779.863281 C 1897.019531 777.476562 1901.285156 775.539062 1905.753906 774.058594 C 1930.566406 767.410156 1954.878906 756.664062 1981.832031 761.21875 C 1986.644531 761.589844 1991.453125 761.589844 1996.265625 761.21875 C 1995.265625 758.761719 1995.128906 757.394531 1994.351562 756.664062 C 1956.289062 723.0625 1916.636719 691.691406 1871.742188 667.328125 C 1831.265625 645.335938 1791.929688 621.203125 1746.628906 609.730469 C 1742.40625 608.15625 1738.097656 606.878906 1733.699219 605.90625 C 1716.71875 603.820312 1699.679688 602.925781 1682.574219 603.222656 C 1665.472656 603.519531 1648.472656 605.007812 1631.578125 607.679688 C 1591.875 614.691406 1552.355469 622.570312 1512.789062 630.445312 C 1476.367188 637.503906 1439.945312 643.742188 1403.929688 652.441406 C 1380.992188 658.050781 1358.730469 665.640625 1337.140625 675.207031 C 1318.394531 684.277344 1300.300781 694.507812 1282.867188 705.894531 C 1260.558594 719.28125 1237.839844 732.167969 1216.667969 747.195312 C 1193.496094 763.679688 1171.140625 781.527344 1149.695312 800.195312 C 1130.9375 816.816406 1113.910156 835.027344 1093.738281 854.699219 Z M 1082.628906 837.488281 C 1085.675781 834.398438 1088.484375 831.105469 1091.054688 827.605469 C 1107.125 802.289062 1123.425781 777.203125 1138.722656 751.476562 C 1150.46875 731.667969 1163.71875 712.042969 1171.320312 690.597656 C 1187.894531 643.878906 1208.882812 598.074219 1211.25 547.300781 C 1212.160156 527.90625 1212.84375 508.507812 1213.710938 486.835938 C 1202.144531 493.027344 1192.902344 495.941406 1186.800781 501.859375 C 1179.835938 508.644531 1173.144531 507.550781 1168.589844 502.632812 C 1165.585938 499.445312 1165.675781 491.570312 1167.042969 486.515625 C 1169.046875 479.183594 1174.191406 472.855469 1176.738281 465.570312 C 1184.417969 443.957031 1191.75 422.207031 1198.730469 400.320312 C 1199.597656 398.042969 1200.140625 395.6875 1200.367188 393.261719 C 1200.589844 390.835938 1200.484375 388.421875 1200.050781 386.023438 C 1194.722656 367.261719 1190.945312 347.457031 1182.15625 330.425781 C 1155.613281 279.382812 1126.839844 229.570312 1099.113281 179.164062 C 1069.109375 124.523438 1026.265625 80.492188 984.242188 35.414062 C 982.707031 34.015625 981.023438 32.832031 979.1875 31.863281 C 978.867188 46.59375 977.683594 61.253906 975.636719 75.847656 C 968.808594 110.863281 960.113281 145.515625 953.191406 180.574219 C 951.785156 186.265625 950.957031 192.039062 950.710938 197.894531 C 950.46875 203.753906 950.808594 209.574219 951.734375 215.363281 C 957.742188 242.136719 971.539062 264.902344 988.703125 286.304688 C 997.035156 296.777344 993.257812 305.882812 979.597656 308.207031 C 970.492188 309.84375 961.386719 311.847656 950.914062 313.898438 C 950.734375 319.472656 950.84375 325.042969 951.234375 330.609375 C 955.785156 363.800781 959.292969 397.085938 964.890625 430.007812 C 970.8125 463.703125 978.550781 497.171875 993.941406 528.085938 C 1015.476562 571.527344 1038.238281 614.601562 1059.546875 657.949219 C 1074.753906 689.003906 1077.484375 723.0625 1079.625 756.894531 C 1081.765625 783.210938 1081.8125 809.667969 1082.628906 837.578125 Z M 1046.207031 821.1875 C 1022.167969 747.96875 1009.007812 669.878906 946.269531 614.738281 C 939.078125 623.207031 931.429688 632.039062 923.914062 640.964844 C 918.816406 647.019531 907.207031 646.566406 904.109375 639.371094 C 892.863281 613.234375 881.347656 587.097656 871.421875 560.460938 C 860.722656 532.09375 851.113281 503.363281 827.257812 482.554688 C 813.597656 470.578125 799.210938 459.058594 786.007812 446.445312 C 743.4375 405.875 694.585938 373.59375 645.867188 341.445312 C 615.140625 321.132812 583.179688 302.996094 549.984375 287.03125 C 522.351562 273.722656 493.667969 263.308594 463.933594 255.796875 C 428.785156 247.007812 392.453125 242.910156 356.621094 237.035156 C 345.238281 235.167969 333.855469 234.078125 319.652344 232.484375 C 327.710938 258.210938 334.765625 281.433594 342.417969 304.472656 C 363.996094 370.90625 397.050781 428.777344 460.792969 464.339844 C 478.546875 474.3125 496.394531 483.328125 517.25 485.96875 C 534.457031 488.109375 551.304688 492.933594 568.378906 496.351562 C 579.898438 498.628906 591.507812 500.355469 603.027344 502.496094 C 618.140625 505.273438 633.347656 507.644531 648.234375 511.285156 C 652.789062 512.421875 659.710938 517.066406 659.800781 520.390625 C 659.800781 526.996094 655.839844 532.230469 647.144531 532.6875 C 636.261719 533.277344 625.472656 535.691406 612.722656 537.648438 C 614.816406 540.929688 615.363281 542.792969 616.546875 543.433594 C 636.625 554.769531 656.613281 566.199219 677.011719 577.035156 C 702.550781 590.695312 729.097656 602.261719 754.183594 616.511719 C 799.257812 642.148438 844.46875 667.648438 887.949219 695.832031 C 937.253906 727.707031 987.15625 759.578125 1027.632812 803.203125 C 1033.324219 809.210938 1039.96875 815.085938 1046.34375 821.277344 Z M 1024.125 840.765625 C 1022.078125 836.804688 1021.894531 835.847656 1021.347656 835.53125 C 971.8125 808.210938 922.824219 779.75 872.46875 754.023438 C 844.058594 739.5 813.28125 729.347656 783.820312 717.1875 C 768.433594 710.859375 753.226562 703.9375 737.609375 698.0625 C 707.832031 686.773438 678.421875 674.707031 647.828125 665.460938 C 618.414062 656.355469 588.09375 650.574219 558.089844 643.5625 C 539.875 639.28125 521.664062 634.816406 503.453125 631.539062 C 474.859375 626.441406 445.722656 623.753906 417.402344 617.332031 C 378.957031 608.503906 340.015625 604.359375 300.574219 604.902344 C 256.730469 605.585938 212.976562 610.09375 169.132812 612.824219 C 157.445312 613.539062 145.824219 614.820312 134.265625 616.667969 C 122.703125 618.511719 111.261719 620.917969 99.933594 623.878906 C 88.609375 626.839844 77.453125 630.34375 66.46875 634.394531 C 55.484375 638.441406 44.722656 643.015625 34.183594 648.113281 C 20.25 654.851562 7.09375 663.1875 -6.792969 670.105469 C -10.570312 671.972656 -18.949219 670.105469 -19.539062 672.066406 C -23.457031 684.269531 -35.566406 683.175781 -43.671875 688 C -65.117188 700.796875 -87.195312 712.542969 -109.003906 724.703125 L -107.320312 728.570312 C -96.847656 725.976562 -86.421875 723.246094 -75.859375 720.875 C -51.273438 715.367188 -27.554688 722.925781 -3.605469 726.386719 C 8.898438 728.550781 21.222656 731.480469 33.363281 735.175781 C 47.023438 738.90625 62.230469 740.730469 74.113281 747.832031 C 101.15625 764.042969 130.386719 765.136719 160.164062 765.179688 C 164.296875 764.90625 168.164062 763.753906 171.773438 761.71875 C 201.777344 747.148438 231.644531 732.214844 261.738281 717.6875 C 267.476562 714.910156 275.398438 720.921875 274.488281 727.980469 C 273.210938 739.546875 270.664062 751.019531 268.703125 762.539062 C 268.542969 763.550781 268.433594 764.570312 268.378906 765.59375 C 268.328125 766.617188 268.328125 767.640625 268.382812 768.664062 C 268.4375 769.6875 268.550781 770.703125 268.714844 771.714844 C 268.878906 772.726562 269.09375 773.726562 269.367188 774.714844 C 269.636719 775.703125 269.960938 776.675781 270.335938 777.628906 C 270.710938 778.582031 271.136719 779.511719 271.609375 780.421875 C 272.082031 781.328125 272.605469 782.210938 273.171875 783.0625 C 273.742188 783.914062 274.355469 784.734375 275.011719 785.523438 C 275.667969 786.308594 276.363281 787.058594 277.097656 787.773438 C 277.835938 788.484375 278.605469 789.15625 279.414062 789.789062 C 280.222656 790.417969 281.0625 791.003906 281.933594 791.546875 C 282.800781 792.085938 283.699219 792.578125 284.621094 793.023438 C 285.546875 793.46875 286.488281 793.863281 287.453125 794.207031 C 288.421875 794.550781 289.402344 794.84375 290.398438 795.082031 C 291.394531 795.320312 292.398438 795.507812 293.417969 795.640625 C 294.433594 795.769531 295.453125 795.847656 296.476562 795.871094 C 334.632812 796.144531 372.828125 796.917969 410.984375 795.871094 C 417.691406 795.796875 424.371094 795.308594 431.015625 794.402344 C 437.664062 793.496094 444.226562 792.183594 450.710938 790.457031 C 457.195312 788.734375 463.546875 786.617188 469.765625 784.101562 C 475.984375 781.585938 482.023438 778.695312 487.882812 775.425781 C 511.191406 762.128906 534.292969 748.46875 557.175781 734.445312 C 565.464844 729.300781 572.019531 728.84375 578.53125 737.953125 C 574.933594 748.5625 570.882812 759.714844 567.46875 771.054688 C 566.558594 774.105469 566.421875 780.160156 567.921875 780.796875 C 577.027344 785.625 586.679688 792.910156 596.105469 792.863281 C 626.109375 792.546875 656.113281 788.902344 686.117188 787.492188 C 713.238281 785.582031 740.390625 785.035156 767.566406 785.851562 C 793.703125 787.21875 819.699219 791.910156 845.652344 795.871094 C 870.917969 799.648438 896.414062 802.972656 921.136719 809.03125 C 949.230469 815.90625 976.636719 825.558594 1004.320312 834.117188 C 1010.148438 835.894531 1016.019531 837.945312 1024.261719 840.859375 Z M 1021.667969 893.585938 C 1032.003906 886.253906 1041.882812 878.332031 1051.945312 870.820312 C 1041.75 868.222656 1031.402344 866.703125 1020.894531 866.265625 C 979.277344 862.578125 937.710938 856.703125 896.050781 855.519531 C 860.65625 855.042969 825.386719 856.910156 790.242188 861.121094 C 748.128906 865.445312 706.195312 871.683594 664.351562 878.285156 C 639.996094 882.109375 619.417969 891.71875 610.992188 918.71875 C 607.625 929.558594 601.023438 941.988281 586.089844 941.488281 C 563.324219 940.347656 539.558594 942.488281 517.792969 931.195312 C 511.757812 927.851562 505.472656 925.058594 498.945312 922.816406 C 496.757812 922.027344 494.503906 921.546875 492.183594 921.378906 C 489.867188 921.207031 487.566406 921.355469 485.285156 921.816406 C 446.085938 932.882812 407.660156 945.902344 372.011719 966.03125 C 338.957031 984.605469 305.21875 1002 272.984375 1021.855469 C 251.011719 1035.089844 229.921875 1049.613281 209.722656 1065.425781 C 189.523438 1081.242188 170.363281 1098.226562 152.242188 1116.382812 C 108.578125 1161.003906 63.457031 1204.261719 19.160156 1248.429688 C 11.238281 1256.351562 4.042969 1265.046875 -3.605469 1273.425781 L -1.96875 1275.703125 C 0.3125 1275.039062 2.527344 1274.203125 4.679688 1273.199219 C 15.378906 1267.371094 25.304688 1259.128906 36.550781 1255.757812 C 85.222656 1241.417969 134.027344 1227.4375 183.335938 1215.417969 C 238.199219 1202.03125 293.65625 1191.054688 348.789062 1178.988281 C 356.296875 1177.449219 363.679688 1175.457031 370.9375 1173.011719 C 378.199219 1170.566406 385.28125 1167.683594 392.191406 1164.367188 C 399.097656 1161.054688 405.773438 1157.328125 412.222656 1153.191406 C 418.675781 1149.054688 424.847656 1144.542969 430.742188 1139.648438 C 450.925781 1122.140625 469.972656 1103.472656 487.882812 1083.640625 C 501.539062 1068.796875 516.246094 1060.875 537.007812 1065.65625 C 548.527344 1068.207031 555.21875 1073.945312 554.492188 1085.507812 C 554.644531 1093.632812 554.082031 1101.707031 552.808594 1109.734375 C 550.484375 1119.339844 555.21875 1123.121094 562.824219 1124.304688 C 578.03125 1126.671875 591.960938 1129.222656 608.351562 1121.800781 C 638.992188 1107.867188 662.988281 1086.558594 683.65625 1062.015625 C 704.328125 1037.472656 723.496094 1010.972656 750.039062 991.300781 C 762.421875 982.195312 771.621094 981.464844 782.683594 992.621094 C 787.707031 998.582031 793.488281 1003.683594 800.03125 1007.921875 C 815.554688 1016.070312 831.902344 1023.8125 849.566406 1013.429688 C 862.179688 1006.007812 874.472656 997.949219 886.445312 989.523438 C 931.671875 957.742188 976.789062 925.792969 1021.804688 893.675781 Z M 1021.667969 893.585938 " fill-opacity="1" fill-rule="nonzero"/></g></g></g></g></g></g></g></g></g></svg>