<svg xmlns="http://www.w3.org/2000/svg" xmlns:xlink="http://www.w3.org/1999/xlink" width="3000" zoomAndPan="magnify" viewBox="0 0 2250 2250.000011" height="3000" preserveAspectRatio="xMidYMid meet" version="1.0"><defs><filter x="0%" y="0%" width="100%" height="100%" id="adf119bf01"><feColorMatrix values="0 0 0 0 1 0 0 0 0 1 0 0 0 0 1 0 0 0 1 0" color-interpolation-filters="sRGB"/></filter><mask id="d9f4135fae"><g filter="url(#adf119bf01)"><rect x="-225" width="2700" fill="#000000" y="-225.000001" height="2700.000013" fill-opacity="0.6667"/></g></mask><clipPath id="0b35647366"><path d="M 0.917969 1.066406 L 2129.011719 1.066406 L 2129.011719 2127 L 0.917969 2127 Z M 0.917969 1.066406 " clip-rule="nonzero"/></clipPath><mask id="0c6c84ce69"><g filter="url(#adf119bf01)"><rect x="-544" width="3240" fill="#000000" y="-617.000002" height="3240.000016" fill-opacity="0.498"/></g></mask><clipPath id="cde2f3f722"><path d="M 1 0.0664062 L 2127 0.0664062 L 2127 2126 L 1 2126 Z M 1 0.0664062 " clip-rule="nonzero"/></clipPath><clipPath id="49798a2902"><rect x="0" width="2130" y="0" height="2126"/></clipPath><clipPath id="a4971ae70e"><rect x="0" width="2130" y="0" height="2127"/></clipPath><clipPath id="aab5439244"><path d="M 105 122 L 2249.5 122 L 2249.5 2249 L 105 2249 Z M 105 122 " clip-rule="nonzero"/></clipPath><mask id="8664062e06"><g filter="url(#adf119bf01)"><rect x="-225" width="2700" fill="#000000" y="-225.000001" height="2700.000013" fill-opacity="0.4667"/></g></mask><clipPath id="f0ca65eb07"><path d="M 0.09375 1.066406 L 2144.5 1.066406 L 2144.5 2127 L 0.09375 2127 Z M 0.09375 1.066406 " clip-rule="nonzero"/></clipPath><mask id="219a1c9935"><g filter="url(#adf119bf01)"><rect x="-600" width="3240" fill="#000000" y="-617.000002" height="3240.000016" fill-opacity="0.498"/></g></mask><clipPath id="e4eaf42b52"><path d="M 0.09375 0.0664062 L 2144.5 0.0664062 L 2144.5 2126 L 0.09375 2126 Z M 0.09375 0.0664062 " clip-rule="nonzero"/></clipPath><clipPath id="cf74d47221"><rect x="0" width="2145" y="0" height="2126"/></clipPath><clipPath id="d8956054f2"><rect x="0" width="2145" y="0" height="2127"/></clipPath></defs><g mask="url(#d9f4135fae)"><g transform="matrix(1, 0, 0, 1, 49, 122)"><g clip-path="url(#a4971ae70e)"><g clip-path="url(#0b35647366)"><g mask="url(#0c6c84ce69)"><g transform="matrix(1, 0, 0, 1, -0.000000000000014211, 1)"><g clip-path="url(#49798a2902)"><g clip-path="url(#cde2f3f722)"><path fill="#3f9fc4" d="M 1906.523438 2115.605469 L 1918.066406 2111.683594 C 1902.820312 2077.765625 1887.535156 2043.84375 1870.792969 2010.675781 C 1851.585938 1972.570312 1830.171875 1935.523438 1809.113281 1898.347656 C 1795.5 1874.25 1780.960938 1850.683594 1766.554688 1827.070312 C 1744.746094 1791.390625 1723.113281 1755.621094 1700.46875 1720.46875 C 1685.621094 1697.34375 1669.628906 1674.789062 1653.242188 1652.761719 C 1613.53125 1599.550781 1573.515625 1546.585938 1533.1875 1493.871094 C 1512.746094 1466.957031 1492.347656 1439.996094 1471.023438 1413.832031 C 1441.726562 1377.929688 1411.589844 1342.6875 1381.71875 1307.226562 C 1359.429688 1280.796875 1337.265625 1254.367188 1314.535156 1227.9375 C 1300.789062 1212.210938 1286.425781 1197.101562 1271.800781 1182.125 C 1221.722656 1131.199219 1171.496094 1080.324219 1121.125 1029.488281 C 1079.933594 987.992188 1038.429688 946.761719 997.105469 905.351562 C 995.976562 904.355469 995.070312 903.179688 994.394531 901.832031 C 993.714844 900.484375 993.3125 899.058594 993.183594 897.554688 C 1003.40625 904.207031 1013.847656 910.550781 1024.023438 917.511719 C 1058.476562 941.503906 1092.839844 965.613281 1127.117188 989.84375 C 1146.414062 1003.496094 1165.84375 998.652344 1184.082031 988.917969 C 1196.023438 982.617188 1206.109375 972.75 1217.699219 963.984375 C 1229.835938 973.175781 1241.242188 983.199219 1251.917969 994.058594 C 1262.589844 1004.914062 1272.421875 1016.492188 1281.402344 1028.78125 C 1300.832031 1054.066406 1323.257812 1076.710938 1353.347656 1090.058594 C 1365.597656 1095.519531 1375.113281 1107.371094 1390.839844 1104.285156 C 1403.089844 1101.863281 1415.953125 1101.863281 1427.714844 1098.207031 C 1432.121094 1096.839844 1435.691406 1088.074219 1436.308594 1082.304688 C 1436.996094 1072.113281 1436.585938 1061.96875 1435.074219 1051.867188 C 1434.367188 1045.609375 1436.175781 1043.804688 1442.253906 1042.703125 C 1453.003906 1040.675781 1461.507812 1041.777344 1469.789062 1050.410156 C 1491.113281 1072.4375 1513.40625 1093.933594 1535.476562 1115.386719 C 1539.300781 1118.769531 1543.445312 1121.707031 1547.902344 1124.195312 C 1587.289062 1148.558594 1632.09375 1155.871094 1676.28125 1165.472656 C 1728.210938 1176.75 1780.023438 1188.570312 1831.714844 1200.933594 C 1859.292969 1207.140625 1886.402344 1214.964844 1913.042969 1224.414062 C 1931.679688 1231.371094 1948.597656 1243.089844 1965.910156 1253.179688 C 1979.480469 1261.105469 1992.34375 1269.785156 2006.355469 1278.464844 L 2014.59375 1269.210938 C 2011.730469 1265.730469 2009.085938 1261.988281 2005.78125 1258.773438 C 1948.90625 1200.582031 1892.335938 1142.082031 1834.796875 1084.507812 C 1796.953125 1046.667969 1757.433594 1010.632812 1710.425781 983.851562 C 1676.589844 964.558594 1642.917969 944.941406 1609.40625 925 C 1572.882812 903.195312 1532.789062 890.417969 1492.390625 878.878906 C 1489.859375 878.089844 1487.277344 877.585938 1484.636719 877.355469 C 1481.996094 877.128906 1479.363281 877.1875 1476.734375 877.527344 C 1474.109375 877.871094 1471.546875 878.488281 1469.054688 879.386719 C 1466.558594 880.28125 1464.191406 881.433594 1461.949219 882.84375 C 1439.917969 896.058594 1414.101562 898.921875 1388.726562 895.792969 C 1383.660156 895.175781 1379.5625 884.382812 1375.507812 877.953125 C 1368.152344 866.015625 1365.597656 849.9375 1349.382812 845.574219 C 1327.355469 839.628906 1305.328125 833.152344 1283.296875 829.1875 C 1256.863281 824.519531 1230.210938 821.964844 1203.601562 819.101562 C 1150.378906 813.332031 1097.070312 809.894531 1043.585938 816.371094 C 1025.472656 818.675781 1007.292969 819.527344 989.042969 818.925781 C 1001.6875 814.519531 1014.246094 810.113281 1027.019531 806.148438 C 1036.359375 803.332031 1046.007812 801.214844 1055.613281 799.277344 C 1080.550781 794.300781 1105.484375 789.101562 1130.511719 784.917969 C 1156.945312 780.511719 1183.820312 774.875 1210.691406 773.640625 C 1244.703125 772.054688 1278.894531 773.949219 1312.992188 775.226562 C 1335.769531 776.0625 1358.636719 780.511719 1381.28125 779.277344 C 1394.496094 778.53125 1408.066406 770.910156 1420.09375 764.039062 C 1423.398438 762.144531 1422.871094 751.617188 1422.164062 745.273438 C 1420.792969 738.875 1418.796875 732.675781 1416.171875 726.683594 L 1418.773438 724.171875 C 1430.269531 731.085938 1442.429688 737.386719 1453.226562 745.140625 C 1460.011719 750.21875 1467.105469 754.820312 1474.511719 758.945312 C 1481.914062 763.070312 1489.5625 766.683594 1497.449219 769.78125 C 1505.339844 772.882812 1513.402344 775.441406 1521.632812 777.457031 C 1529.867188 779.476562 1538.195312 780.933594 1546.625 781.835938 C 1568.148438 783.429688 1589.691406 783.8125 1611.253906 782.980469 C 1635.046875 782.980469 1658.925781 782.628906 1682.671875 781.042969 C 1688.132812 780.6875 1694.214844 775.667969 1698.355469 771.21875 C 1714.65625 753.597656 1714.171875 733.335938 1704.613281 709.855469 C 1710.523438 711.046875 1716.292969 712.722656 1721.925781 714.875 C 1741.003906 724.480469 1760.035156 734.171875 1778.625 744.65625 C 1783.621094 747.371094 1788.867188 749.449219 1794.367188 750.894531 C 1799.863281 752.339844 1805.457031 753.109375 1811.140625 753.199219 C 1847.53125 754.964844 1878.8125 739.414062 1911.808594 728.046875 C 1943.925781 716.945312 1977.5 706.507812 2011.949219 708.929688 C 2035.519531 710.605469 2058.78125 718.3125 2082 724.128906 C 2092.613281 727.144531 2103.023438 730.742188 2113.238281 734.921875 C 2121.738281 738.089844 2124.648438 733.203125 2126.453125 725.316406 C 2106.761719 713.246094 2087.15625 700.207031 2066.667969 688.800781 C 2023.539062 664.703125 1980.316406 640.785156 1936.527344 617.964844 C 1924.882812 612.007812 1912.953125 606.691406 1900.738281 602.015625 C 1888.523438 597.34375 1876.089844 593.339844 1863.441406 590.007812 C 1850.796875 586.675781 1838.003906 584.03125 1825.074219 582.078125 C 1812.140625 580.125 1799.140625 578.871094 1786.074219 578.320312 C 1759.375 576.867188 1732.851562 572.546875 1706.199219 571.667969 C 1679.496094 570.488281 1652.84375 571.164062 1626.234375 573.695312 C 1588.214844 577.835938 1550.546875 584.972656 1512.746094 590.742188 C 1486.046875 594.792969 1459.261719 598.1875 1432.695312 602.898438 C 1418.816406 605.773438 1405.128906 609.371094 1391.632812 613.691406 C 1348.808594 626.160156 1305.8125 638.140625 1263.339844 651.796875 C 1246.070312 657.347656 1230.035156 666.773438 1213.292969 674.128906 C 1206.859375 676.949219 1200.074219 678.535156 1193.421875 681.132812 C 1164.609375 692.851562 1135.488281 703.910156 1107.25 716.816406 C 1083.765625 727.5625 1061.164062 740.207031 1038.476562 752.585938 C 1014.683594 765.535156 991.292969 779.015625 967.722656 792.230469 L 965.34375 789.5 C 983.890625 773.464844 1001.425781 756.109375 1021.117188 741.703125 C 1054.644531 717.210938 1088.746094 693.246094 1124.035156 671.488281 C 1170.425781 643.207031 1217.476562 616.777344 1264.53125 590.34375 C 1288.761719 576.734375 1314.402344 565.675781 1338.941406 552.59375 C 1356.5625 543.167969 1373.613281 532.285156 1390.929688 522.023438 C 1390.488281 513.210938 1388.285156 507.441406 1378.0625 507.222656 C 1370.84375 506.96875 1364.03125 505.179688 1357.621094 501.847656 C 1399.386719 494.007812 1441.328125 487.003906 1482.785156 477.839844 C 1495.253906 475.066406 1506.578125 466.5625 1518.03125 460.21875 C 1572 430.398438 1606.144531 383.351562 1628.171875 327.496094 C 1641.390625 293.972656 1650.6875 258.863281 1661.4375 224.371094 C 1664.035156 216.089844 1655.136719 207.984375 1645.796875 209.613281 C 1602.179688 217.234375 1558.125 222.828125 1515.078125 233.179688 C 1482.230469 241.503906 1450.203125 252.269531 1418.992188 265.472656 C 1364.625 287.496094 1318.457031 323.53125 1270.476562 356.347656 C 1226.933594 386.917969 1186.03125 420.6875 1147.78125 457.664062 C 1124.078125 480 1112.09375 508.71875 1101.960938 538.804688 C 1094.074219 562.242188 1084.339844 584.972656 1075.527344 608.007812 L 1071.121094 608.273438 L 1048.433594 579.507812 C 1035.214844 578.847656 1028.914062 588.582031 1020.632812 596.777344 C 1001.863281 615.453125 988.648438 637.964844 976.574219 660.78125 C 966.796875 679.417969 961.289062 700.429688 954.195312 720.425781 C 946.222656 743.027344 938.6875 765.800781 930.800781 788.441406 C 930.230469 789.875 929.40625 791.144531 928.328125 792.25 C 927.253906 793.359375 926.007812 794.21875 924.589844 794.828125 C 924.589844 776.328125 923.445312 757.695312 925.074219 739.28125 C 927.1875 714.964844 928.464844 689.855469 935.691406 666.816406 C 945.074219 636.863281 959.304688 608.316406 972.65625 579.730469 C 979.617188 564.839844 989.265625 551.140625 997.546875 536.824219 C 1028.386719 483.390625 1036.582031 423.65625 1045.480469 364.144531 C 1048.167969 346.214844 1049.578125 328.066406 1051.429688 310.007812 C 1051.519531 309.410156 1051.582031 308.808594 1051.617188 308.207031 C 1051.648438 307.601562 1051.648438 307 1051.621094 306.394531 C 1051.589844 305.792969 1051.53125 305.191406 1051.441406 304.59375 C 1051.351562 303.996094 1051.230469 303.40625 1051.082031 302.820312 C 1050.933594 302.234375 1050.753906 301.660156 1050.546875 301.089844 C 1050.339844 300.523438 1050.101562 299.96875 1049.839844 299.425781 C 1049.574219 298.882812 1049.285156 298.351562 1048.96875 297.839844 C 1048.648438 297.324219 1048.308594 296.828125 1047.941406 296.347656 C 1047.574219 295.871094 1047.179688 295.410156 1046.765625 294.96875 C 1046.355469 294.53125 1045.917969 294.113281 1045.460938 293.714844 C 1045.003906 293.320312 1044.53125 292.949219 1044.035156 292.601562 C 1043.542969 292.253906 1043.03125 291.929688 1042.507812 291.632812 C 1041.980469 291.335938 1041.441406 291.070312 1040.886719 290.828125 C 1040.332031 290.585938 1039.769531 290.371094 1039.191406 290.1875 C 1038.617188 290.003906 1038.035156 289.847656 1037.445312 289.722656 C 1036.851562 289.59375 1036.257812 289.5 1035.65625 289.433594 C 1034.074219 289.386719 1032.5 289.226562 1030.941406 288.949219 C 1025.257812 287.496094 1019.621094 285.867188 1012.878906 284.015625 C 1021.09375 272.679688 1028.667969 260.933594 1035.613281 248.773438 C 1048.476562 223.621094 1056.230469 197.984375 1048.519531 168.472656 C 1038.519531 129.96875 1030.367188 90.808594 1024.246094 51.472656 C 1022.042969 37.417969 1027.988281 22.089844 1030.324219 6.761719 L 1018.078125 0.0664062 C 988.867188 32.441406 959.351562 64.644531 930.582031 97.371094 C 901.8125 130.101562 879.828125 167.457031 859.078125 205.648438 C 838.328125 243.839844 816.035156 282.253906 797.707031 322.121094 C 788.894531 341.503906 787.175781 364.410156 783.433594 385.90625 C 782.59375 390.664062 786.78125 396.300781 788.542969 401.542969 L 811.628906 469.734375 C 807.753906 468.578125 804.125 466.890625 800.746094 464.667969 C 791.933594 456.960938 783.125 452.070312 771.976562 461.144531 C 766.691406 517.835938 776.957031 572.460938 795.414062 627.171875 C 813.566406 680.957031 841.453125 729.015625 869.34375 777.738281 C 851.367188 762.320312 834.363281 745.582031 815.242188 731.878906 C 786.164062 711.089844 755.765625 692.234375 725.585938 672.898438 C 708.625 662.105469 691.792969 650.296875 673.289062 643.074219 C 642.183594 630.933594 610.464844 620.699219 578.128906 612.371094 C 544.644531 603.5625 510.371094 598.054688 476.359375 591.710938 C 439.878906 584.972656 403.445312 577.484375 366.65625 573.121094 C 340.847656 570.582031 315 570.144531 289.117188 571.800781 C 276.472656 572.371094 264.136719 578.453125 251.492188 581.09375 C 217.128906 588.320312 189.417969 609.59375 158.488281 624.042969 C 119.585938 642.148438 86.105469 667.832031 52.753906 693.777344 C 34.691406 707.828125 18.167969 723.773438 1.207031 738.664062 C 3.410156 744.171875 4.953125 748.046875 6.757812 752.671875 C 20.855469 751.085938 35.21875 747.828125 49.449219 748.265625 C 64.789062 748.789062 79.800781 751.296875 94.476562 755.800781 C 107.765625 760.554688 120.441406 766.605469 132.496094 773.949219 C 165.054688 792.054688 197.390625 799.894531 232.371094 779.191406 C 243.828125 772.40625 257.878906 770.074219 270.746094 765.667969 L 272.332031 768.355469 C 267.925781 774.257812 263.960938 780.25 259.554688 785.976562 C 249.640625 799.191406 251.933594 806.019531 267.398438 810.996094 C 307.488281 823.859375 347.140625 838.261719 387.671875 849.363281 C 390.070312 849.984375 392.496094 850.476562 394.945312 850.839844 C 397.398438 851.203125 399.863281 851.433594 402.335938 851.535156 C 404.8125 851.636719 407.289062 851.605469 409.761719 851.441406 C 412.234375 851.28125 414.691406 850.988281 417.132812 850.5625 C 419.574219 850.136719 421.984375 849.585938 424.367188 848.90625 C 426.75 848.222656 429.089844 847.417969 431.386719 846.488281 C 433.683594 845.558594 435.925781 844.507812 438.109375 843.339844 C 440.292969 842.171875 442.410156 840.890625 444.460938 839.496094 C 447.148438 837.777344 451.949219 839.496094 454.988281 838.085938 C 470.101562 830.6875 484.90625 822.582031 499.972656 815.09375 C 506.84375 811.65625 514.15625 809.058594 521.296875 806.28125 L 524.6875 809.058594 C 518.609375 822.273438 512.617188 835.488281 506.492188 849.011719 C 501.777344 859.277344 506.890625 867.734375 518.167969 866.894531 C 557.816406 863.988281 597.117188 861.390625 636.460938 857.117188 C 688.269531 851.523438 739.902344 844.253906 791.714844 838.261719 C 805.507812 836.789062 819.253906 837.140625 832.953125 839.320312 C 825.507812 840.949219 818.058594 842.757812 810.527344 844.253906 C 790.964844 848.175781 770.875 850.464844 751.929688 856.191406 C 736.734375 861.507812 722.179688 868.21875 708.269531 876.324219 C 684.039062 889.097656 659.542969 901.519531 636.371094 915.96875 C 602.140625 937.332031 567.90625 958.960938 535.613281 983.101562 C 475.636719 1027.71875 420.460938 1077.640625 370.09375 1132.875 C 338.503906 1167.808594 307.839844 1203.707031 283.917969 1245.117188 C 267.9375 1273.046875 253.820312 1301.890625 241.566406 1331.648438 C 229.3125 1361.402344 219.023438 1391.820312 210.695312 1422.90625 C 196.023438 1476.339844 179.238281 1529.15625 165.714844 1582.855469 C 160.5 1606.339844 157.84375 1630.113281 157.738281 1654.171875 C 156.59375 1691.4375 157.738281 1728.75 157.738281 1767.292969 L 169.765625 1769.058594 C 171.660156 1755.839844 172.761719 1743.816406 175.273438 1731.964844 C 182.101562 1699.324219 190.78125 1667.035156 213.867188 1641.75 C 251.097656 1601.046875 288.765625 1560.652344 327.535156 1521.445312 C 333.703125 1515.179688 339.382812 1508.492188 344.566406 1501.390625 C 349.753906 1494.285156 354.390625 1486.839844 358.480469 1479.054688 C 362.570312 1471.265625 366.070312 1463.222656 368.972656 1454.921875 C 371.878906 1446.621094 374.160156 1438.148438 375.820312 1429.511719 C 380.308594 1407.535156 386.359375 1385.992188 393.972656 1364.890625 C 397.769531 1369.902344 400.925781 1375.292969 403.445312 1381.058594 C 409.082031 1399.867188 426.75 1402.863281 441.066406 1408.5 C 446.265625 1410.527344 457.105469 1403.613281 462.742188 1398.105469 C 494.90625 1366.695312 527.640625 1335.640625 552.839844 1297.933594 C 559.949219 1286.753906 566.324219 1275.167969 571.960938 1263.175781 C 590.550781 1226.042969 608.261719 1188.292969 627.382812 1151.640625 C 636.195312 1134.242188 647.78125 1118.03125 658.222656 1101.421875 C 667.253906 1087.238281 668.796875 1071.378906 670.117188 1055.214844 C 671.660156 1035.742188 673.996094 1016.359375 676.285156 993.542969 C 686.550781 1005.523438 694.65625 1014.773438 702.5 1024.378906 C 702.8125 1024.792969 703.140625 1025.1875 703.492188 1025.570312 C 703.84375 1025.949219 704.214844 1026.308594 704.605469 1026.652344 C 704.992188 1026.996094 705.398438 1027.316406 705.820312 1027.617188 C 706.242188 1027.917969 706.675781 1028.195312 707.125 1028.453125 C 707.574219 1028.710938 708.039062 1028.941406 708.511719 1029.152344 C 708.984375 1029.359375 709.46875 1029.542969 709.960938 1029.703125 C 710.453125 1029.863281 710.953125 1030 711.457031 1030.109375 C 711.964844 1030.214844 712.476562 1030.296875 712.988281 1030.355469 C 713.503906 1030.410156 714.019531 1030.441406 714.539062 1030.445312 C 715.054688 1030.449219 715.574219 1030.425781 716.089844 1030.378906 C 716.605469 1030.328125 717.117188 1030.253906 717.625 1030.152344 C 718.132812 1030.050781 718.632812 1029.925781 719.128906 1029.773438 C 719.621094 1029.621094 720.109375 1029.441406 720.585938 1029.242188 C 721.0625 1029.039062 721.527344 1028.8125 721.980469 1028.5625 C 722.433594 1028.3125 722.875 1028.042969 723.300781 1027.746094 C 723.726562 1027.453125 724.132812 1027.136719 724.527344 1026.800781 C 762.859375 994.203125 801.144531 961.546875 839.382812 928.832031 C 845.550781 923.589844 850.882812 917.378906 856.609375 911.609375 L 859.253906 913.546875 C 856.40625 920.65625 853.074219 927.527344 849.253906 934.160156 C 823.082031 973.148438 806.695312 1016.84375 787.574219 1059.398438 C 759.90625 1121.421875 746.820312 1187.71875 731.710938 1253.222656 C 722.371094 1293.703125 722.898438 1336.390625 717.082031 1377.753906 C 710.429688 1424.492188 720.738281 1470.261719 723.207031 1516.25 C 724.445312 1526.019531 726.574219 1535.59375 729.59375 1544.96875 C 742.105469 1596.949219 753.695312 1649.195312 772.859375 1699.367188 C 776.207031 1708.179688 775.722656 1718.308594 779.335938 1726.8125 C 789.6875 1750.863281 801.363281 1774.429688 812.378906 1798.175781 C 816.519531 1806.984375 820.617188 1815.792969 824.582031 1825.046875 C 833.390625 1845.089844 842.203125 1865.21875 851.015625 1885 C 863.96875 1883.898438 864.980469 1881.472656 863.21875 1870.417969 C 858.8125 1842.972656 854.097656 1815.484375 851.851562 1787.867188 C 847.183594 1730.601562 860.664062 1675.976562 877.625 1622.148438 C 887.976562 1589.503906 900.578125 1557.65625 911.371094 1525.234375 C 918.773438 1502.859375 925.867188 1480.261719 931.109375 1457.265625 C 941.816406 1410.4375 951.550781 1363.394531 960.671875 1316.300781 C 961.347656 1311.523438 961.523438 1306.722656 961.195312 1301.90625 C 960.867188 1297.089844 960.046875 1292.359375 958.734375 1287.714844 C 953.578125 1266.613281 947.632812 1245.601562 940.757812 1224.984375 C 935.558594 1209.304688 928.378906 1194.148438 922.253906 1178.953125 C 921.726562 1177.449219 921.527344 1175.90625 921.648438 1174.320312 C 921.773438 1172.730469 922.207031 1171.238281 922.960938 1169.832031 C 933.621094 1180.1875 944.019531 1190.890625 955.253906 1200.667969 C 956.144531 1201.398438 957.105469 1202.023438 958.128906 1202.546875 C 959.15625 1203.070312 960.226562 1203.476562 961.335938 1203.773438 C 962.449219 1204.070312 963.582031 1204.246094 964.730469 1204.300781 C 965.882812 1204.359375 967.023438 1204.292969 968.160156 1204.105469 C 969.082031 1203.574219 969.933594 1202.945312 970.710938 1202.21875 C 971.488281 1201.496094 972.175781 1200.691406 972.773438 1199.8125 C 973.367188 1198.929688 973.855469 1197.992188 974.238281 1197 C 974.621094 1196.007812 974.886719 1194.984375 975.035156 1193.929688 C 980.882812 1148.492188 981.605469 1102.972656 977.191406 1057.371094 C 974.90625 1023.945312 968.898438 991.199219 959.171875 959.140625 C 949.394531 928.921875 942.519531 897.730469 935.601562 865.796875 C 939.214844 870.199219 942.785156 874.871094 946.441406 879.320312 L 1011.820312 958.214844 C 1043.894531 996.976562 1075.660156 1035.964844 1108.128906 1074.417969 C 1141.875 1114.375 1176.460938 1153.710938 1210.296875 1193.355469 C 1232.808594 1219.789062 1255.191406 1246.660156 1276.691406 1274.101562 C 1312.949219 1320.488281 1348.5 1367.445312 1384.320312 1414.183594 C 1415.644531 1455.0625 1447.761719 1495.324219 1478.027344 1536.953125 C 1520.234375 1595.011719 1561.617188 1653.671875 1602.179688 1712.9375 C 1638.480469 1765.972656 1673.832031 1819.65625 1708.222656 1873.984375 C 1723.953125 1898.742188 1736.640625 1925.4375 1750.738281 1951.292969 C 1763.425781 1974.597656 1776.246094 1997.855469 1788.847656 2021.246094 C 1793.253906 2029.527344 1797.660156 2037.988281 1801.226562 2046.664062 C 1814.269531 2077.148438 1827.234375 2107.675781 1840.128906 2138.246094 L 1851.671875 2134.28125 C 1840.921875 2109.128906 1829.644531 2084.152344 1818.628906 2059.042969 C 1811.359375 2042.523438 1804.664062 2025.652344 1796.601562 2009.441406 C 1785.5 1987.019531 1773.605469 1964.90625 1761.621094 1942.925781 C 1749.636719 1920.945312 1737.742188 1899.753906 1725.140625 1878.566406 C 1711.484375 1855.691406 1697.429688 1833.0625 1682.980469 1810.683594 C 1656.546875 1769.9375 1630.113281 1729.058594 1602.621094 1689.058594 C 1581.605469 1658.488281 1558.5625 1629.371094 1536.933594 1599.242188 C 1504.902344 1554.617188 1473.84375 1509.289062 1441.375 1465.019531 C 1420.226562 1436.164062 1397.007812 1408.898438 1375.289062 1380.484375 C 1352.820312 1351.148438 1332.199219 1320.398438 1308.761719 1291.898438 C 1269.375 1243.882812 1228.269531 1197.277344 1188.136719 1149.878906 C 1159.675781 1116.222656 1131.65625 1082.261719 1103.546875 1048.339844 C 1082.753906 1023.234375 1062.179688 997.945312 1041.472656 972.75 C 1040.546875 971.851562 1039.875 970.792969 1039.449219 969.578125 C 1039.023438 968.359375 1038.886719 967.113281 1039.046875 965.835938 C 1045.128906 971.515625 1051.339844 977.066406 1057.199219 982.925781 C 1104.382812 1030.238281 1152.097656 1077.019531 1198.488281 1125.078125 C 1238.449219 1166.441406 1277.789062 1208.554688 1315.722656 1251.679688 C 1360.160156 1302.101562 1403.675781 1353.347656 1446.261719 1405.417969 C 1490.847656 1459.863281 1534.773438 1514.882812 1577.417969 1570.871094 C 1605.441406 1607.65625 1630.550781 1646.683594 1657.164062 1684.609375 C 1670.378906 1703.199219 1684.390625 1721.042969 1696.8125 1740.070312 C 1714.4375 1766.941406 1730.515625 1794.738281 1747.566406 1821.960938 C 1757.789062 1838.261719 1769.242188 1853.765625 1778.980469 1870.417969 C 1790.300781 1889.625 1800.125 1909.710938 1811.007812 1929.179688 C 1821.492188 1947.945312 1832.816406 1966.316406 1843.257812 1985.125 C 1851.277344 1999.441406 1858.941406 2013.980469 1865.992188 2028.78125 C 1879.738281 2057.53125 1893.246094 2086.472656 1906.523438 2115.605469 Z M 896.21875 879.1875 C 901.152344 870.816406 907.011719 862.976562 914.234375 852.273438 C 951.683594 962.398438 979.835938 1070.894531 961.730469 1187.058594 C 946.96875 1174.546875 934.148438 1162.875 920.359375 1152.433594 C 916.96875 1149.878906 908.597656 1148.953125 906.042969 1151.246094 C 902.253906 1154.59375 895.246094 1160.496094 903.355469 1167.457031 C 905.230469 1169.535156 906.539062 1171.929688 907.273438 1174.636719 C 918.816406 1205.734375 931.199219 1236.613281 941.417969 1268.15625 C 945.824219 1282.429688 949.964844 1298.59375 947.894531 1312.953125 C 942.652344 1348.722656 934.457031 1384.140625 926.21875 1419.382812 C 918.421875 1452.726562 910.183594 1486.03125 900.003906 1518.671875 C 887.183594 1559.902344 871.414062 1600.253906 858.460938 1641.441406 C 851.480469 1663.308594 846.28125 1685.59375 842.859375 1708.289062 C 839.4375 1730.988281 837.839844 1753.8125 838.0625 1776.765625 C 838.28125 1793.988281 841.058594 1811.214844 842.6875 1828.4375 C 829.691406 1804.738281 817.488281 1781.125 806.957031 1756.722656 C 799.6875 1739.894531 794.84375 1722.054688 788.9375 1704.65625 C 783.433594 1688.53125 776.957031 1672.628906 772.683594 1656.199219 C 761.800781 1614.351562 750.652344 1572.503906 741.84375 1530.214844 C 735.5 1499.378906 729.640625 1467.484375 729.507812 1436.078125 C 729.089844 1390.765625 732.027344 1345.671875 738.316406 1300.796875 C 745.5 1251.8125 758.1875 1203.621094 769.15625 1155.429688 C 783.167969 1093.757812 810.394531 1037.019531 837.753906 980.679688 C 854.714844 945.4375 876.390625 912.753906 896.21875 879.1875 Z M 888.285156 843.945312 C 892.09375 844.003906 895.855469 844.460938 899.566406 845.3125 C 884.277344 862.402344 872.207031 878.570312 857.535156 891.828125 C 812.949219 932.222656 767.4375 971.5625 722.191406 1011.207031 C 717.125 1015.613281 712.542969 1016.492188 707.523438 1009.710938 C 698.136719 997.109375 687.695312 985.304688 678.3125 973.941406 C 667.785156 974.511719 663.421875 978.828125 662.847656 989.136719 C 661.617188 1011.558594 658.136719 1033.847656 656.902344 1056.269531 C 655.757812 1078.03125 646.503906 1095.519531 634.875 1113.535156 C 619.410156 1136.476562 605.898438 1160.511719 594.339844 1185.648438 C 574.117188 1230.269531 556.410156 1276.304688 524.335938 1314.101562 C 502.96875 1339.296875 479 1362.554688 455.914062 1386.035156 C 443.492188 1398.765625 424.148438 1394.140625 416.265625 1377.578125 C 411.097656 1366.164062 405.324219 1355.0625 398.949219 1344.273438 C 395.292969 1338.109375 384.941406 1338.8125 383.308594 1344.847656 C 377.671875 1365.726562 371.589844 1386.519531 367.363281 1407.707031 C 359.300781 1448.148438 347.273438 1485.5 315.066406 1514.972656 C 281.582031 1545.808594 250.347656 1578.890625 219.816406 1612.5 C 205.144531 1628.667969 194 1648.136719 182.101562 1666.59375 C 178.800781 1673.1875 176.246094 1680.0625 174.4375 1687.210938 L 169.679688 1686.550781 C 171.75 1655.976562 169.898438 1624.480469 176.683594 1594.96875 C 189.195312 1540.167969 206.289062 1486.339844 222.371094 1432.375 C 232.902344 1397.136719 242.945312 1361.234375 256.78125 1327.09375 C 282.289062 1264.015625 320.042969 1208.15625 365.113281 1157.277344 C 391.511719 1127.425781 419.390625 1099.023438 448.753906 1072.082031 C 478.117188 1045.136719 508.804688 1019.792969 540.8125 996.054688 C 594.363281 955.636719 650.859375 919.867188 710.296875 888.746094 C 741.136719 872.929688 774.003906 864.648438 807.222656 857.117188 C 833.921875 851.082031 861.234375 848.175781 888.285156 844.035156 Z M 899.433594 826.0625 C 887.570312 824.507812 875.660156 823.582031 863.703125 823.285156 C 836.34375 824.035156 808.941406 824.785156 781.714844 827.292969 C 737.65625 831.390625 694.042969 837.207031 650.160156 841.789062 C 610.421875 845.929688 570.636719 849.6875 530.8125 853.0625 C 519.796875 854.035156 519.269531 852.140625 523.71875 841.875 C 529.488281 828.660156 534.953125 815.046875 539.800781 801.394531 C 539.890625 801.003906 539.953125 800.613281 539.996094 800.214844 C 540.035156 799.820312 540.050781 799.421875 540.039062 799.023438 C 540.027344 798.625 539.988281 798.226562 539.929688 797.832031 C 539.867188 797.441406 539.777344 797.050781 539.667969 796.667969 C 539.554688 796.285156 539.417969 795.914062 539.257812 795.546875 C 539.097656 795.183594 538.914062 794.828125 538.707031 794.488281 C 538.503906 794.144531 538.277344 793.820312 538.027344 793.507812 C 537.78125 793.195312 537.515625 792.898438 537.226562 792.621094 C 536.941406 792.34375 536.640625 792.085938 536.320312 791.84375 C 536 791.605469 535.667969 791.386719 535.320312 791.191406 C 534.972656 790.996094 534.617188 790.824219 534.246094 790.671875 C 533.878906 790.523438 533.5 790.398438 533.113281 790.296875 C 532.730469 790.191406 532.339844 790.117188 531.941406 790.066406 C 531.546875 790.015625 531.148438 789.988281 530.75 789.988281 C 530.351562 789.988281 529.957031 790.011719 529.558594 790.0625 C 529.164062 790.113281 528.773438 790.191406 528.386719 790.292969 C 510.765625 796.945312 493.582031 803.992188 476.402344 811.304688 C 459.21875 818.617188 442.652344 827.558594 425.074219 833.636719 C 420.15625 835.503906 415.078125 836.652344 409.835938 837.085938 C 404.59375 837.519531 399.394531 837.222656 394.234375 836.191406 C 355.15625 825.707031 316.519531 813.417969 277.839844 801.480469 C 270.699219 799.324219 267.132812 795.886719 273.785156 787.871094 C 283.609375 776.0625 291.980469 763.023438 299.25 752.894531 C 290.660156 739.675781 282.023438 744.082031 273.433594 747.738281 C 264.839844 751.394531 255.808594 755.800781 246.734375 759.808594 C 237.660156 763.816406 229.113281 768.222656 219.816406 771.703125 C 211.355469 774.960938 201.796875 780.511719 193.910156 779.101562 C 174.570312 775.359375 153.597656 775.886719 136.988281 761.835938 C 133.632812 758.753906 129.992188 756.058594 126.0625 753.75 C 122.136719 751.4375 118.007812 749.566406 113.683594 748.136719 C 89.671875 741.703125 66.144531 731.308594 40.066406 735.714844 C 35.410156 736.074219 30.753906 736.074219 26.097656 735.714844 C 27.066406 733.335938 27.199219 732.011719 27.949219 731.308594 C 64.78125 698.796875 103.152344 668.449219 146.59375 644.878906 C 185.761719 623.605469 223.824219 600.257812 267.660156 589.15625 C 271.746094 587.632812 275.917969 586.398438 280.171875 585.457031 C 296.601562 583.4375 313.09375 582.574219 329.644531 582.863281 C 346.191406 583.148438 362.644531 584.585938 378.992188 587.171875 C 417.410156 593.957031 455.652344 601.578125 493.9375 609.199219 C 529.179688 616.027344 564.425781 622.0625 599.273438 630.476562 C 621.472656 635.90625 643.015625 643.246094 663.90625 652.5 C 682.046875 661.277344 699.550781 671.171875 716.421875 682.191406 C 738.007812 695.140625 759.992188 707.609375 780.480469 722.144531 C 802.90625 738.09375 824.535156 755.359375 845.289062 773.421875 C 863.4375 789.5 879.914062 807.121094 899.433594 826.148438 Z M 910.183594 809.5 C 907.234375 806.507812 904.519531 803.320312 902.03125 799.9375 C 886.480469 775.445312 870.707031 751.175781 855.90625 726.285156 C 844.539062 707.125 831.71875 688.136719 824.359375 667.390625 C 808.324219 622.195312 788.015625 577.878906 785.722656 528.761719 C 784.839844 509.996094 784.179688 491.230469 783.34375 470.261719 C 794.535156 476.253906 803.476562 479.074219 809.382812 484.800781 C 816.121094 491.363281 822.597656 490.304688 827.003906 485.546875 C 829.910156 482.464844 829.824219 474.84375 828.5 469.953125 C 826.5625 462.863281 821.585938 456.738281 819.117188 449.691406 C 811.6875 428.78125 804.59375 407.738281 797.839844 386.566406 C 797 384.363281 796.472656 382.085938 796.253906 379.738281 C 796.039062 377.390625 796.140625 375.054688 796.5625 372.734375 C 801.714844 354.585938 805.371094 335.421875 813.875 318.949219 C 839.558594 269.566406 867.402344 221.375 894.234375 172.613281 C 923.265625 119.75 964.726562 77.152344 1005.390625 33.542969 C 1006.871094 32.191406 1008.503906 31.042969 1010.28125 30.105469 C 1010.589844 44.359375 1011.738281 58.542969 1013.714844 72.660156 C 1020.324219 106.535156 1028.738281 140.058594 1035.4375 173.976562 C 1036.796875 179.480469 1037.597656 185.066406 1037.835938 190.734375 C 1038.070312 196.398438 1037.742188 202.03125 1036.84375 207.632812 C 1031.03125 233.535156 1017.679688 255.558594 1001.070312 276.261719 C 993.007812 286.394531 996.664062 295.203125 1009.882812 297.453125 C 1018.695312 299.039062 1027.503906 300.976562 1037.636719 302.957031 C 1037.8125 308.351562 1037.707031 313.742188 1037.332031 319.125 C 1032.925781 351.238281 1029.53125 383.4375 1024.113281 415.289062 C 1018.386719 447.886719 1010.894531 480.261719 996.003906 510.171875 C 975.167969 552.199219 953.136719 593.871094 932.519531 635.804688 C 917.804688 665.847656 915.160156 698.796875 913.089844 731.527344 C 911.019531 756.988281 910.976562 782.582031 910.183594 809.585938 Z M 945.429688 793.726562 C 968.691406 722.894531 981.421875 647.347656 1042.132812 594 C 1049.09375 602.195312 1056.496094 610.742188 1063.765625 619.375 C 1068.699219 625.234375 1079.933594 624.792969 1082.929688 617.832031 C 1093.8125 592.546875 1104.957031 567.261719 1114.5625 541.492188 C 1124.914062 514.050781 1134.210938 486.253906 1157.296875 466.121094 C 1170.511719 454.535156 1184.433594 443.390625 1197.210938 431.191406 C 1238.40625 391.941406 1285.675781 360.707031 1332.816406 329.609375 C 1362.550781 309.957031 1393.480469 292.410156 1425.601562 276.96875 C 1452.339844 264.089844 1480.09375 254.019531 1508.867188 246.75 C 1542.878906 238.246094 1578.035156 234.28125 1612.710938 228.601562 C 1623.722656 226.792969 1634.738281 225.738281 1648.484375 224.195312 C 1640.683594 249.082031 1633.855469 271.550781 1626.457031 293.839844 C 1605.574219 358.109375 1573.585938 414.097656 1511.90625 448.5 C 1494.726562 458.148438 1477.457031 466.871094 1457.277344 469.425781 C 1440.625 471.496094 1424.324219 476.164062 1407.800781 479.46875 C 1396.65625 481.671875 1385.421875 483.347656 1374.273438 485.417969 C 1359.648438 488.101562 1344.933594 490.394531 1330.527344 493.917969 C 1326.121094 495.019531 1319.425781 499.511719 1319.335938 502.726562 C 1319.335938 509.117188 1323.167969 514.179688 1331.585938 514.621094 C 1342.113281 515.195312 1352.554688 517.53125 1364.890625 519.421875 C 1362.863281 522.59375 1362.335938 524.402344 1361.191406 525.019531 C 1341.761719 535.988281 1322.421875 547.042969 1302.683594 557.527344 C 1277.96875 570.742188 1252.28125 581.929688 1228.007812 595.71875 C 1184.390625 620.519531 1140.644531 645.1875 1098.570312 672.457031 C 1050.855469 703.292969 1002.570312 734.128906 963.402344 776.328125 C 957.894531 782.140625 951.464844 787.824219 945.296875 793.816406 Z M 966.796875 812.667969 C 968.777344 808.835938 968.953125 807.914062 969.484375 807.605469 C 1017.417969 781.171875 1064.820312 753.640625 1113.546875 728.753906 C 1141.039062 714.699219 1170.820312 704.878906 1199.328125 693.117188 C 1214.21875 686.992188 1228.933594 680.296875 1244.042969 674.613281 C 1272.855469 663.691406 1301.316406 652.015625 1330.921875 643.074219 C 1359.382812 634.265625 1388.726562 628.667969 1417.757812 621.886719 C 1435.382812 617.746094 1453.003906 613.429688 1470.625 610.257812 C 1498.292969 605.324219 1526.492188 602.722656 1553.894531 596.511719 C 1591.09375 587.96875 1628.777344 583.960938 1666.941406 584.488281 C 1709.371094 585.148438 1751.707031 589.507812 1794.132812 592.152344 C 1805.441406 592.84375 1816.6875 594.082031 1827.875 595.867188 C 1839.0625 597.652344 1850.132812 599.980469 1861.09375 602.84375 C 1872.054688 605.710938 1882.847656 609.101562 1893.476562 613.019531 C 1904.105469 616.933594 1914.519531 621.359375 1924.71875 626.292969 C 1938.199219 632.8125 1950.933594 640.871094 1964.367188 647.566406 C 1968.027344 649.375 1976.132812 647.566406 1976.703125 649.460938 C 1980.492188 661.265625 1992.210938 660.210938 2000.054688 664.878906 C 2020.804688 677.257812 2042.171875 688.621094 2063.277344 700.382812 L 2061.644531 704.128906 C 2051.511719 701.617188 2041.425781 698.976562 2031.203125 696.683594 C 2007.414062 691.355469 1984.457031 698.667969 1961.285156 702.015625 C 1949.183594 704.109375 1937.261719 706.941406 1925.511719 710.515625 C 1912.292969 714.128906 1897.578125 715.890625 1886.082031 722.761719 C 1859.910156 738.445312 1831.625 739.5 1802.8125 739.546875 C 1798.816406 739.28125 1795.070312 738.164062 1791.578125 736.199219 C 1762.546875 722.101562 1733.644531 707.652344 1704.523438 693.601562 C 1698.972656 690.914062 1691.304688 696.726562 1692.1875 703.554688 C 1693.421875 714.746094 1695.886719 725.847656 1697.78125 736.992188 C 1697.941406 737.96875 1698.042969 738.953125 1698.097656 739.945312 C 1698.148438 740.933594 1698.148438 741.925781 1698.09375 742.914062 C 1698.039062 743.902344 1697.933594 744.886719 1697.773438 745.867188 C 1697.613281 746.847656 1697.402344 747.8125 1697.140625 748.769531 C 1696.878906 749.726562 1696.566406 750.664062 1696.203125 751.585938 C 1695.839844 752.511719 1695.429688 753.410156 1694.972656 754.289062 C 1694.511719 755.167969 1694.007812 756.019531 1693.457031 756.84375 C 1692.90625 757.671875 1692.316406 758.464844 1691.679688 759.226562 C 1691.046875 759.988281 1690.371094 760.710938 1689.660156 761.402344 C 1688.949219 762.09375 1688.199219 762.742188 1687.417969 763.351562 C 1686.636719 763.960938 1685.824219 764.527344 1684.984375 765.050781 C 1684.140625 765.574219 1683.273438 766.050781 1682.378906 766.480469 C 1681.484375 766.914062 1680.574219 767.292969 1679.636719 767.625 C 1678.703125 767.960938 1677.753906 768.242188 1676.792969 768.472656 C 1675.828125 768.703125 1674.851562 768.882812 1673.871094 769.011719 C 1672.886719 769.140625 1671.898438 769.214844 1670.90625 769.234375 C 1633.988281 769.5 1597.023438 770.25 1560.105469 769.234375 C 1553.613281 769.164062 1547.152344 768.691406 1540.722656 767.816406 C 1534.289062 766.941406 1527.9375 765.667969 1521.664062 764 C 1515.390625 762.332031 1509.242188 760.28125 1503.226562 757.847656 C 1497.207031 755.414062 1491.363281 752.617188 1485.695312 749.457031 C 1463.136719 736.59375 1440.785156 723.378906 1418.640625 709.8125 C 1410.621094 704.832031 1404.277344 704.394531 1397.976562 713.203125 C 1401.457031 723.46875 1405.378906 734.257812 1408.683594 745.226562 C 1409.5625 748.179688 1409.695312 754.039062 1408.242188 754.65625 C 1399.429688 759.324219 1390.089844 766.371094 1380.972656 766.328125 C 1351.9375 766.019531 1322.90625 762.496094 1293.871094 761.128906 C 1267.625 759.28125 1241.355469 758.753906 1215.054688 759.542969 C 1189.765625 760.867188 1164.609375 765.402344 1139.496094 769.234375 C 1115.046875 772.890625 1090.375 776.109375 1066.453125 781.964844 C 1039.269531 788.617188 1012.746094 797.957031 985.960938 806.238281 C 980.320312 807.957031 974.636719 809.9375 966.664062 812.757812 Z M 969.175781 863.769531 C 959.171875 856.675781 949.613281 849.011719 939.878906 841.742188 C 949.738281 839.230469 959.753906 837.761719 969.921875 837.339844 C 1010.191406 833.769531 1050.414062 828.085938 1090.726562 826.941406 C 1124.976562 826.480469 1159.105469 828.289062 1193.113281 832.359375 C 1233.867188 836.546875 1274.441406 842.582031 1314.929688 848.96875 C 1338.5 852.667969 1358.414062 861.960938 1366.566406 888.085938 C 1369.824219 898.570312 1376.214844 910.59375 1390.664062 910.109375 C 1412.691406 909.007812 1435.691406 911.078125 1456.75 900.15625 C 1462.589844 896.917969 1468.671875 894.21875 1474.988281 892.050781 C 1477.105469 891.285156 1479.285156 890.820312 1481.53125 890.65625 C 1483.773438 890.492188 1486 890.632812 1488.207031 891.082031 C 1526.136719 901.785156 1563.320312 914.382812 1597.820312 933.855469 C 1629.804688 951.828125 1662.449219 968.652344 1693.640625 987.859375 C 1714.90625 1000.664062 1735.308594 1014.714844 1754.855469 1030.015625 C 1774.402344 1045.3125 1792.941406 1061.746094 1810.480469 1079.308594 C 1852.730469 1122.480469 1896.390625 1164.328125 1939.257812 1207.054688 C 1946.921875 1214.722656 1953.882812 1223.136719 1961.285156 1231.242188 L 1959.699219 1233.441406 C 1957.492188 1232.800781 1955.347656 1231.992188 1953.265625 1231.019531 C 1942.914062 1225.382812 1933.308594 1217.410156 1922.425781 1214.148438 C 1875.332031 1200.273438 1828.101562 1186.75 1780.390625 1175.121094 C 1727.300781 1162.167969 1673.640625 1151.550781 1620.289062 1139.878906 C 1613.023438 1138.390625 1605.882812 1136.460938 1598.855469 1134.09375 C 1591.828125 1131.730469 1584.976562 1128.941406 1578.292969 1125.734375 C 1571.609375 1122.527344 1565.144531 1118.921875 1558.90625 1114.921875 C 1552.664062 1110.921875 1546.691406 1106.554688 1540.984375 1101.820312 C 1521.453125 1084.882812 1503.023438 1066.820312 1485.695312 1047.636719 C 1472.476562 1033.277344 1458.246094 1025.613281 1438.15625 1030.238281 C 1427.011719 1032.703125 1420.535156 1038.253906 1421.238281 1049.441406 C 1421.089844 1057.300781 1421.632812 1065.113281 1422.871094 1072.878906 C 1425.117188 1082.171875 1420.535156 1085.828125 1413.175781 1086.972656 C 1398.460938 1089.265625 1384.980469 1091.730469 1369.121094 1084.550781 C 1339.46875 1071.070312 1316.253906 1050.457031 1296.25 1026.710938 C 1276.25 1002.96875 1257.703125 977.332031 1232.015625 958.300781 C 1220.03125 949.492188 1211.132812 948.785156 1200.425781 959.578125 C 1195.566406 965.347656 1189.972656 970.28125 1183.640625 974.378906 C 1168.617188 982.265625 1152.800781 989.753906 1135.707031 979.710938 C 1123.503906 972.53125 1111.609375 964.734375 1100.023438 956.582031 C 1056.261719 925.835938 1012.601562 894.925781 969.042969 863.855469 Z M 969.175781 863.769531 " fill-opacity="1" fill-rule="nonzero"/></g></g></g></g></g></g></g></g><g clip-path="url(#aab5439244)"><g mask="url(#8664062e06)"><g transform="matrix(1, 0, 0, 1, 105, 122)"><g clip-path="url(#d8956054f2)"><g clip-path="url(#f0ca65eb07)"><g mask="url(#219a1c9935)"><g transform="matrix(1, 0, 0, 1, -0.000000000000028422, 1)"><g clip-path="url(#cf74d47221)"><g clip-path="url(#e4eaf42b52)"><path fill="#2ab775" d="M 1969.449219 2186.816406 L 1981.375 2182.761719 C 1965.625 2147.703125 1949.824219 2112.640625 1932.523438 2078.355469 C 1912.671875 2038.96875 1890.546875 2000.671875 1868.78125 1962.242188 C 1854.714844 1937.335938 1839.6875 1912.976562 1824.800781 1888.570312 C 1802.265625 1851.6875 1779.910156 1814.714844 1756.507812 1778.378906 C 1741.164062 1754.472656 1724.636719 1731.160156 1707.699219 1708.394531 C 1666.664062 1653.390625 1625.308594 1598.640625 1583.632812 1544.152344 C 1562.507812 1516.332031 1541.425781 1488.464844 1519.390625 1461.417969 C 1489.113281 1424.308594 1457.972656 1387.882812 1427.105469 1351.226562 C 1404.066406 1323.90625 1381.164062 1296.585938 1357.671875 1269.265625 C 1343.464844 1253.011719 1328.625 1237.394531 1313.507812 1221.914062 C 1261.757812 1169.277344 1209.851562 1116.683594 1157.796875 1064.140625 C 1115.226562 1021.246094 1072.339844 978.625 1029.632812 935.824219 C 1028.464844 934.792969 1027.53125 933.582031 1026.828125 932.1875 C 1026.128906 930.792969 1025.710938 929.320312 1025.582031 927.765625 C 1036.144531 934.640625 1046.933594 941.199219 1057.453125 948.390625 C 1093.054688 973.191406 1128.570312 998.113281 1163.992188 1023.160156 C 1183.933594 1037.273438 1204.011719 1032.265625 1222.859375 1022.203125 C 1235.199219 1015.691406 1245.625 1005.492188 1257.597656 996.429688 C 1270.144531 1005.933594 1281.929688 1016.292969 1292.960938 1027.515625 C 1303.992188 1038.738281 1314.148438 1050.703125 1323.433594 1063.410156 C 1343.511719 1089.546875 1366.6875 1112.949219 1397.78125 1126.746094 C 1410.441406 1132.394531 1420.273438 1144.640625 1436.527344 1141.453125 C 1449.183594 1138.949219 1462.480469 1138.949219 1474.636719 1135.171875 C 1479.1875 1133.757812 1482.875 1124.699219 1483.515625 1118.734375 C 1484.226562 1108.199219 1483.800781 1097.710938 1482.238281 1087.269531 C 1481.511719 1080.804688 1483.378906 1078.9375 1489.660156 1077.800781 C 1500.769531 1075.703125 1509.558594 1076.84375 1518.117188 1085.765625 C 1540.152344 1108.535156 1563.191406 1130.753906 1586 1152.929688 C 1589.953125 1156.425781 1594.230469 1159.460938 1598.839844 1162.035156 C 1639.542969 1187.214844 1685.847656 1194.773438 1731.511719 1204.699219 C 1785.175781 1216.359375 1838.71875 1228.574219 1892.140625 1241.355469 C 1920.636719 1247.769531 1948.652344 1255.859375 1976.1875 1265.625 C 1995.445312 1272.820312 2012.929688 1284.929688 2030.820312 1295.359375 C 2044.84375 1303.554688 2058.140625 1312.523438 2072.617188 1321.496094 L 2081.132812 1311.933594 C 2078.171875 1308.335938 2075.441406 1304.464844 2072.023438 1301.140625 C 2013.246094 1240.992188 1954.789062 1180.523438 1895.328125 1121.011719 C 1856.214844 1081.898438 1815.375 1044.652344 1766.796875 1016.964844 C 1731.832031 997.023438 1697.03125 976.746094 1662.398438 956.132812 C 1624.65625 933.59375 1583.222656 920.390625 1541.472656 908.460938 C 1538.859375 907.644531 1536.1875 907.121094 1533.460938 906.886719 C 1530.730469 906.652344 1528.007812 906.710938 1525.292969 907.066406 C 1522.578125 907.417969 1519.933594 908.058594 1517.355469 908.984375 C 1514.78125 909.910156 1512.332031 911.101562 1510.011719 912.558594 C 1487.246094 926.21875 1460.566406 929.175781 1434.34375 925.945312 C 1429.105469 925.308594 1424.871094 914.152344 1420.683594 907.503906 C 1413.082031 895.164062 1410.441406 878.542969 1393.683594 874.035156 C 1370.921875 867.890625 1348.15625 861.195312 1325.390625 857.097656 C 1298.074219 852.269531 1270.527344 849.628906 1243.027344 846.671875 C 1188.03125 840.707031 1132.9375 837.152344 1077.667969 843.847656 C 1058.949219 846.230469 1040.160156 847.113281 1021.300781 846.488281 C 1034.367188 841.933594 1047.34375 837.382812 1060.546875 833.285156 C 1070.199219 830.371094 1080.171875 828.183594 1090.097656 826.179688 C 1115.867188 821.035156 1141.636719 815.660156 1167.496094 811.335938 C 1194.8125 806.78125 1222.585938 800.953125 1250.359375 799.679688 C 1285.507812 798.039062 1320.839844 800 1356.078125 801.320312 C 1379.617188 802.183594 1403.246094 806.78125 1426.648438 805.507812 C 1440.308594 804.734375 1454.332031 796.855469 1466.757812 789.753906 C 1470.175781 787.796875 1469.628906 776.914062 1468.898438 770.355469 C 1467.484375 763.742188 1465.417969 757.335938 1462.707031 751.140625 L 1465.394531 748.546875 C 1477.277344 755.695312 1489.84375 762.207031 1500.996094 770.21875 C 1508.011719 775.46875 1515.34375 780.226562 1522.996094 784.488281 C 1530.648438 788.753906 1538.550781 792.488281 1546.703125 795.691406 C 1554.855469 798.894531 1563.183594 801.539062 1571.691406 803.625 C 1580.199219 805.710938 1588.808594 807.21875 1597.519531 808.148438 C 1619.761719 809.796875 1642.023438 810.195312 1664.3125 809.332031 C 1688.898438 809.332031 1713.574219 808.96875 1738.113281 807.328125 C 1743.757812 806.964844 1750.042969 801.773438 1754.324219 797.175781 C 1771.167969 778.960938 1770.667969 758.015625 1760.789062 733.746094 C 1766.894531 734.980469 1772.859375 736.710938 1778.679688 738.9375 C 1798.394531 748.863281 1818.0625 758.882812 1837.277344 769.71875 C 1842.4375 772.523438 1847.859375 774.675781 1853.542969 776.167969 C 1859.226562 777.660156 1865.003906 778.457031 1870.878906 778.550781 C 1908.484375 780.375 1940.808594 764.300781 1974.910156 752.550781 C 2008.101562 741.078125 2042.796875 730.285156 2078.398438 732.789062 C 2102.757812 734.519531 2126.796875 742.488281 2150.792969 748.5 C 2161.757812 751.621094 2172.519531 755.339844 2183.070312 759.65625 C 2191.859375 762.933594 2194.863281 757.878906 2196.730469 749.730469 C 2176.378906 737.253906 2156.117188 723.773438 2134.945312 711.980469 C 2090.375 687.074219 2045.710938 662.351562 2000.453125 638.765625 C 1988.421875 632.605469 1976.09375 627.109375 1963.46875 622.277344 C 1950.84375 617.449219 1938 613.3125 1924.929688 609.867188 C 1911.859375 606.421875 1898.640625 603.6875 1885.273438 601.667969 C 1871.910156 599.648438 1858.476562 598.355469 1844.972656 597.785156 C 1817.378906 596.28125 1789.972656 591.820312 1762.425781 590.910156 C 1734.832031 589.691406 1707.289062 590.390625 1679.792969 593.003906 C 1640.5 597.28125 1601.570312 604.660156 1562.507812 610.625 C 1534.917969 614.8125 1507.234375 618.320312 1479.78125 623.191406 C 1465.441406 626.164062 1451.296875 629.878906 1437.347656 634.347656 C 1393.09375 647.234375 1348.65625 659.617188 1304.765625 673.734375 C 1286.917969 679.472656 1270.347656 689.214844 1253.046875 696.820312 C 1246.398438 699.734375 1239.386719 701.371094 1232.511719 704.058594 C 1202.734375 716.171875 1172.640625 727.601562 1143.457031 740.941406 C 1119.191406 752.050781 1095.832031 765.121094 1072.386719 777.914062 C 1047.800781 791.300781 1023.625 805.234375 999.265625 818.894531 L 996.808594 816.070312 C 1015.976562 799.496094 1034.09375 781.558594 1054.445312 766.667969 C 1089.09375 741.351562 1124.335938 716.582031 1160.804688 694.085938 C 1208.746094 664.855469 1257.371094 637.535156 1305.996094 610.214844 C 1331.035156 596.144531 1357.535156 584.714844 1382.894531 571.191406 C 1401.105469 561.449219 1418.726562 550.203125 1436.621094 539.59375 C 1436.164062 530.484375 1433.886719 524.519531 1423.324219 524.292969 C 1419.640625 524.164062 1416.015625 523.632812 1412.453125 522.695312 C 1408.886719 521.757812 1405.46875 520.4375 1402.199219 518.738281 C 1445.359375 510.632812 1488.703125 503.394531 1531.546875 493.921875 C 1544.433594 491.054688 1556.132812 482.265625 1567.972656 475.707031 C 1623.746094 444.882812 1659.03125 396.253906 1681.792969 338.515625 C 1695.453125 303.863281 1705.058594 267.574219 1716.167969 231.921875 C 1718.855469 223.359375 1709.65625 214.984375 1700.003906 216.667969 C 1654.933594 224.546875 1609.402344 230.328125 1564.921875 241.027344 C 1530.972656 249.632812 1497.875 260.757812 1465.621094 274.40625 C 1409.4375 297.171875 1361.722656 334.417969 1312.140625 368.339844 C 1267.140625 399.9375 1224.875 434.847656 1185.34375 473.066406 C 1160.847656 496.152344 1148.464844 525.839844 1137.992188 556.941406 C 1129.84375 581.164062 1119.78125 604.660156 1110.675781 628.472656 L 1106.121094 628.746094 L 1082.675781 599.011719 C 1069.015625 598.332031 1062.503906 608.394531 1053.945312 616.863281 C 1034.550781 636.167969 1020.890625 659.4375 1008.417969 683.023438 C 998.308594 702.285156 992.617188 724.003906 985.289062 744.675781 C 977.046875 768.035156 969.261719 791.574219 961.113281 814.980469 C 960.519531 816.460938 959.667969 817.773438 958.558594 818.917969 C 957.445312 820.058594 956.15625 820.949219 954.691406 821.582031 C 954.691406 802.457031 953.507812 783.195312 955.191406 764.164062 C 957.378906 739.027344 958.699219 713.074219 966.164062 689.261719 C 975.863281 658.296875 990.570312 628.792969 1004.363281 599.242188 C 1011.558594 583.851562 1021.527344 569.691406 1030.089844 554.890625 C 1061.960938 499.660156 1070.425781 437.914062 1079.625 376.398438 C 1082.402344 357.867188 1083.859375 339.109375 1085.769531 320.4375 C 1085.867188 319.820312 1085.929688 319.203125 1085.964844 318.578125 C 1085.996094 317.953125 1086 317.332031 1085.96875 316.707031 C 1085.9375 316.082031 1085.878906 315.460938 1085.785156 314.84375 C 1085.691406 314.226562 1085.570312 313.617188 1085.414062 313.011719 C 1085.257812 312.40625 1085.074219 311.8125 1084.859375 311.222656 C 1084.644531 310.636719 1084.402344 310.0625 1084.128906 309.503906 C 1083.855469 308.941406 1083.554688 308.394531 1083.226562 307.863281 C 1082.898438 307.332031 1082.546875 306.816406 1082.167969 306.324219 C 1081.785156 305.828125 1081.382812 305.351562 1080.953125 304.898438 C 1080.527344 304.441406 1080.078125 304.011719 1079.605469 303.601562 C 1079.132812 303.191406 1078.644531 302.808594 1078.132812 302.449219 C 1077.621094 302.085938 1077.09375 301.753906 1076.550781 301.449219 C 1076.007812 301.140625 1075.449219 300.863281 1074.875 300.613281 C 1074.304688 300.363281 1073.722656 300.144531 1073.125 299.953125 C 1072.53125 299.761719 1071.929688 299.601562 1071.320312 299.472656 C 1070.707031 299.339844 1070.09375 299.242188 1069.472656 299.175781 C 1067.835938 299.125 1066.210938 298.957031 1064.601562 298.671875 C 1058.726562 297.171875 1052.898438 295.488281 1045.933594 293.574219 C 1054.421875 281.855469 1062.25 269.714844 1069.425781 257.148438 C 1082.71875 231.148438 1090.734375 204.648438 1082.765625 174.140625 C 1072.429688 134.34375 1064.007812 93.863281 1057.679688 53.203125 C 1055.402344 38.675781 1061.550781 22.832031 1063.960938 6.984375 L 1051.304688 0.0664062 C 1021.121094 33.53125 990.613281 66.816406 960.882812 100.648438 C 931.152344 134.480469 908.433594 173.09375 886.992188 212.570312 C 865.546875 252.046875 842.507812 291.753906 823.566406 332.960938 C 814.460938 352.996094 812.6875 376.671875 808.816406 398.894531 C 807.953125 403.8125 812.277344 409.640625 814.097656 415.058594 L 837.957031 485.542969 C 833.949219 484.351562 830.203125 482.605469 826.710938 480.308594 C 817.605469 472.339844 808.5 467.285156 796.980469 476.664062 C 791.515625 535.265625 802.125 591.726562 821.199219 648.28125 C 839.957031 703.878906 868.777344 753.554688 897.597656 803.914062 C 879.023438 787.976562 861.449219 770.675781 841.6875 756.515625 C 811.640625 735.023438 780.222656 715.535156 749.035156 695.542969 C 731.507812 684.390625 714.117188 672.1875 694.992188 664.71875 C 662.847656 652.167969 630.066406 641.589844 596.652344 632.980469 C 562.046875 623.875 526.625 618.183594 491.476562 611.625 C 453.78125 604.660156 416.128906 596.917969 378.109375 592.410156 C 351.4375 589.789062 324.726562 589.332031 297.980469 591.046875 C 284.910156 591.636719 272.164062 597.921875 259.097656 600.652344 C 223.585938 608.121094 194.945312 630.113281 162.984375 645.046875 C 122.78125 663.761719 88.179688 690.308594 53.714844 717.128906 C 35.046875 731.652344 17.972656 748.136719 0.445312 763.527344 C 2.722656 769.21875 4.316406 773.226562 6.183594 778.003906 C 20.75 776.367188 35.59375 772.996094 50.300781 773.453125 C 66.15625 773.988281 81.664062 776.585938 96.832031 781.238281 C 110.566406 786.152344 123.664062 792.40625 136.121094 800 C 169.769531 818.710938 203.1875 826.816406 239.335938 805.417969 C 251.175781 798.40625 265.699219 795.992188 278.992188 791.4375 L 280.632812 794.214844 C 276.078125 800.316406 271.980469 806.511719 267.429688 812.429688 C 257.183594 826.089844 259.550781 833.148438 275.53125 838.292969 C 316.964844 851.589844 357.941406 866.476562 399.828125 877.953125 C 402.308594 878.59375 404.8125 879.101562 407.347656 879.476562 C 409.878906 879.851562 412.425781 880.09375 414.984375 880.195312 C 417.542969 880.300781 420.101562 880.269531 422.65625 880.101562 C 425.210938 879.933594 427.75 879.628906 430.273438 879.191406 C 432.796875 878.753906 435.289062 878.179688 437.75 877.476562 C 440.210938 876.773438 442.628906 875.941406 445.003906 874.980469 C 447.378906 874.019531 449.695312 872.933594 451.953125 871.726562 C 454.210938 870.519531 456.398438 869.191406 458.515625 867.753906 C 461.292969 865.976562 466.253906 867.753906 469.394531 866.296875 C 485.011719 858.644531 500.3125 850.265625 515.882812 842.527344 C 522.984375 838.976562 530.542969 836.289062 537.917969 833.421875 L 541.421875 836.289062 C 535.140625 849.949219 528.949219 863.609375 522.621094 877.585938 C 517.75 888.195312 523.03125 896.9375 534.683594 896.074219 C 575.660156 893.070312 616.273438 890.382812 656.929688 885.964844 C 710.472656 880.183594 763.832031 872.671875 817.375 866.476562 C 831.628906 864.953125 845.835938 865.316406 859.992188 867.570312 C 852.296875 869.253906 844.601562 871.121094 836.816406 872.671875 C 816.601562 876.722656 795.839844 879.089844 776.261719 885.007812 C 760.558594 890.503906 745.519531 897.441406 731.144531 905.820312 C 706.101562 919.023438 680.789062 931.863281 656.839844 946.796875 C 621.464844 968.882812 586.085938 991.238281 552.714844 1016.191406 C 490.730469 1062.308594 433.714844 1113.914062 381.660156 1171.007812 C 349.015625 1207.113281 317.328125 1244.222656 292.605469 1287.027344 C 276.09375 1315.898438 261.503906 1345.710938 248.839844 1376.46875 C 236.175781 1407.226562 225.539062 1438.667969 216.9375 1470.800781 C 201.777344 1526.03125 184.429688 1580.625 170.453125 1636.132812 C 165.0625 1660.410156 162.316406 1684.980469 162.210938 1709.851562 C 161.027344 1748.371094 162.210938 1786.9375 162.210938 1826.78125 L 174.640625 1828.601562 C 176.597656 1814.941406 177.734375 1802.511719 180.332031 1790.261719 C 187.386719 1756.523438 196.359375 1723.144531 220.214844 1697.011719 C 258.6875 1654.9375 297.613281 1613.183594 337.679688 1572.65625 C 344.058594 1566.179688 349.925781 1559.265625 355.285156 1551.925781 C 360.644531 1544.582031 365.4375 1536.886719 369.660156 1528.835938 C 373.886719 1520.789062 377.503906 1512.472656 380.503906 1503.890625 C 383.507812 1495.3125 385.867188 1486.558594 387.582031 1477.628906 C 392.21875 1454.910156 398.472656 1432.644531 406.339844 1410.832031 C 410.265625 1416.011719 413.527344 1421.582031 416.128906 1427.542969 C 421.953125 1446.984375 440.210938 1450.082031 455.007812 1455.910156 C 460.382812 1458.003906 471.582031 1450.855469 477.410156 1445.164062 C 510.644531 1412.699219 544.472656 1380.597656 570.515625 1341.621094 C 577.867188 1330.0625 584.453125 1318.089844 590.277344 1305.695312 C 609.488281 1267.308594 627.792969 1228.289062 647.550781 1190.402344 C 656.65625 1172.417969 668.632812 1155.660156 679.421875 1138.496094 C 688.757812 1123.832031 690.351562 1107.441406 691.714844 1090.730469 C 693.308594 1070.605469 695.722656 1050.570312 698.089844 1026.984375 C 708.699219 1039.367188 717.074219 1048.929688 725.179688 1058.855469 C 725.5 1059.285156 725.84375 1059.695312 726.207031 1060.089844 C 726.570312 1060.480469 726.953125 1060.855469 727.355469 1061.207031 C 727.753906 1061.5625 728.175781 1061.894531 728.609375 1062.207031 C 729.046875 1062.515625 729.496094 1062.804688 729.960938 1063.070312 C 730.425781 1063.335938 730.902344 1063.574219 731.390625 1063.789062 C 731.882812 1064.007812 732.378906 1064.199219 732.890625 1064.363281 C 733.398438 1064.527344 733.914062 1064.667969 734.4375 1064.78125 C 734.960938 1064.890625 735.488281 1064.976562 736.019531 1065.035156 C 736.550781 1065.09375 737.085938 1065.125 737.621094 1065.128906 C 738.15625 1065.132812 738.691406 1065.109375 739.222656 1065.058594 C 739.753906 1065.007812 740.285156 1064.929688 740.808594 1064.828125 C 741.332031 1064.722656 741.851562 1064.589844 742.363281 1064.433594 C 742.875 1064.277344 743.375 1064.09375 743.867188 1063.882812 C 744.359375 1063.675781 744.84375 1063.441406 745.3125 1063.183594 C 745.78125 1062.925781 746.234375 1062.644531 746.675781 1062.339844 C 747.113281 1062.035156 747.539062 1061.710938 747.945312 1061.363281 C 787.554688 1027.667969 827.121094 993.910156 866.640625 960.09375 C 873.011719 954.675781 878.523438 948.257812 884.441406 942.292969 L 887.171875 944.292969 C 884.230469 951.640625 880.785156 958.746094 876.835938 965.605469 C 849.792969 1005.902344 832.855469 1051.070312 813.097656 1095.054688 C 784.503906 1159.167969 770.980469 1227.695312 755.367188 1295.402344 C 745.714844 1337.25 746.257812 1381.371094 740.25 1424.128906 C 733.375 1472.4375 744.027344 1519.746094 746.578125 1567.285156 C 747.855469 1577.386719 750.058594 1587.28125 753.179688 1596.972656 C 766.109375 1650.703125 778.085938 1704.707031 797.890625 1756.566406 C 801.351562 1765.675781 800.847656 1776.148438 804.582031 1784.933594 C 815.28125 1809.796875 827.347656 1834.15625 838.730469 1858.699219 C 843.007812 1867.804688 847.242188 1876.914062 851.339844 1886.476562 C 860.445312 1907.191406 869.554688 1928 878.660156 1948.445312 C 892.042969 1947.308594 893.089844 1944.804688 891.269531 1933.375 C 886.71875 1905.007812 881.84375 1876.59375 879.523438 1848.046875 C 874.699219 1788.851562 888.628906 1732.390625 906.160156 1676.746094 C 916.859375 1643.007812 929.878906 1610.085938 941.035156 1576.574219 C 948.683594 1553.441406 956.011719 1530.085938 961.429688 1506.316406 C 972.496094 1457.914062 982.554688 1409.285156 991.980469 1360.609375 C 992.679688 1355.667969 992.859375 1350.707031 992.523438 1345.726562 C 992.183594 1340.75 991.335938 1335.859375 989.976562 1331.058594 C 984.652344 1309.246094 978.503906 1287.527344 971.402344 1266.21875 C 966.027344 1250.007812 958.609375 1234.34375 952.28125 1218.632812 C 951.734375 1217.082031 951.527344 1215.484375 951.652344 1213.84375 C 951.78125 1212.203125 952.230469 1210.660156 953.007812 1209.207031 C 964.027344 1219.910156 974.769531 1230.972656 986.378906 1241.082031 C 987.304688 1241.835938 988.292969 1242.480469 989.355469 1243.019531 C 990.414062 1243.5625 991.519531 1243.984375 992.667969 1244.292969 C 993.820312 1244.597656 994.988281 1244.78125 996.175781 1244.835938 C 997.367188 1244.894531 998.546875 1244.828125 999.722656 1244.632812 C 1000.671875 1244.085938 1001.550781 1243.433594 1002.355469 1242.6875 C 1003.160156 1241.9375 1003.871094 1241.105469 1004.484375 1240.195312 C 1005.101562 1239.285156 1005.605469 1238.316406 1006 1237.289062 C 1006.394531 1236.261719 1006.667969 1235.203125 1006.824219 1234.117188 C 1012.867188 1187.148438 1013.613281 1140.097656 1009.054688 1092.960938 C 1006.691406 1058.410156 1000.484375 1024.5625 990.433594 991.421875 C 980.324219 960.1875 973.222656 927.949219 966.074219 894.9375 C 969.808594 899.488281 973.496094 904.316406 977.273438 908.914062 L 1044.839844 990.464844 C 1077.984375 1030.535156 1110.8125 1070.832031 1144.367188 1110.582031 C 1179.242188 1151.882812 1214.984375 1192.542969 1249.949219 1233.523438 C 1273.214844 1260.84375 1296.34375 1288.621094 1318.5625 1316.988281 C 1356.03125 1364.933594 1392.773438 1413.472656 1429.789062 1461.785156 C 1462.160156 1504.039062 1495.351562 1545.65625 1526.628906 1588.6875 C 1570.246094 1648.699219 1613.015625 1709.335938 1654.933594 1770.59375 C 1692.449219 1825.414062 1728.976562 1880.90625 1764.519531 1937.0625 C 1780.773438 1962.652344 1793.886719 1990.246094 1808.457031 2016.972656 C 1821.570312 2041.0625 1834.816406 2065.101562 1847.839844 2089.28125 C 1852.390625 2097.84375 1856.945312 2106.585938 1860.632812 2115.554688 C 1874.109375 2147.0625 1887.511719 2178.617188 1900.835938 2210.21875 L 1912.765625 2206.121094 C 1901.65625 2180.121094 1890 2154.304688 1878.617188 2128.351562 C 1871.105469 2111.273438 1864.183594 2093.835938 1855.851562 2077.078125 C 1844.378906 2053.902344 1832.085938 2031.042969 1819.703125 2008.324219 C 1807.316406 1985.601562 1795.023438 1963.699219 1782.003906 1941.796875 C 1767.890625 1918.152344 1753.367188 1894.761719 1738.433594 1871.632812 C 1711.113281 1829.511719 1683.796875 1787.257812 1655.386719 1745.914062 C 1633.667969 1714.3125 1609.859375 1684.214844 1587.503906 1653.070312 C 1554.402344 1606.945312 1522.304688 1560.089844 1488.75 1514.328125 C 1466.894531 1484.503906 1442.902344 1456.320312 1420.457031 1426.949219 C 1397.234375 1396.625 1375.929688 1364.84375 1351.707031 1335.382812 C 1311.003906 1285.75 1268.523438 1237.574219 1227.046875 1188.582031 C 1197.636719 1153.792969 1168.679688 1118.6875 1139.632812 1083.628906 C 1118.140625 1057.671875 1096.878906 1031.535156 1075.480469 1005.492188 C 1074.527344 1004.5625 1073.832031 1003.46875 1073.390625 1002.210938 C 1072.949219 1000.953125 1072.8125 999.664062 1072.976562 998.34375 C 1079.261719 1004.214844 1085.679688 1009.953125 1091.734375 1016.007812 C 1140.496094 1064.914062 1189.804688 1113.269531 1237.746094 1162.945312 C 1279.042969 1205.703125 1319.699219 1249.234375 1358.902344 1293.808594 C 1404.824219 1345.929688 1449.792969 1398.902344 1493.804688 1452.722656 C 1539.878906 1509 1585.273438 1565.875 1629.34375 1623.746094 C 1658.300781 1661.765625 1684.253906 1702.109375 1711.753906 1741.3125 C 1725.410156 1760.527344 1739.890625 1778.96875 1752.726562 1798.640625 C 1770.941406 1826.417969 1787.558594 1855.148438 1805.179688 1883.289062 C 1815.742188 1900.136719 1827.578125 1916.164062 1837.640625 1933.375 C 1849.339844 1953.226562 1859.496094 1973.992188 1870.738281 1994.117188 C 1881.574219 2013.511719 1893.277344 2032.5 1904.066406 2051.945312 C 1912.355469 2066.742188 1920.277344 2081.769531 1927.5625 2097.066406 C 1941.765625 2126.785156 1955.726562 2156.703125 1969.449219 2186.816406 Z M 925.371094 908.777344 C 930.472656 900.125 936.527344 892.023438 943.992188 880.957031 C 982.691406 994.792969 1011.785156 1106.941406 993.074219 1227.011719 C 977.820312 1214.082031 964.574219 1202.015625 950.320312 1191.222656 C 946.816406 1188.582031 938.164062 1187.625 935.523438 1189.992188 C 931.609375 1193.453125 924.371094 1199.554688 932.746094 1206.75 C 934.6875 1208.902344 936.039062 1211.375 936.800781 1214.171875 C 948.726562 1246.320312 961.523438 1278.238281 972.085938 1310.839844 C 976.636719 1325.59375 980.917969 1342.304688 978.777344 1357.148438 C 973.359375 1394.121094 964.890625 1430.730469 956.378906 1467.15625 C 948.316406 1501.625 939.804688 1536.050781 929.289062 1569.789062 C 916.039062 1612.410156 899.738281 1654.117188 886.351562 1696.691406 C 879.140625 1719.296875 873.765625 1742.328125 870.230469 1765.789062 C 866.695312 1789.25 865.042969 1812.84375 865.273438 1836.570312 C 865.5 1854.375 868.367188 1872.175781 870.054688 1889.980469 C 856.621094 1865.484375 844.011719 1841.078125 833.128906 1815.851562 C 825.617188 1798.457031 820.609375 1780.019531 814.507812 1762.03125 C 808.816406 1745.367188 802.125 1728.929688 797.707031 1711.945312 C 786.460938 1668.6875 774.941406 1625.429688 765.835938 1581.71875 C 759.28125 1549.84375 753.226562 1516.878906 753.089844 1484.414062 C 752.65625 1437.578125 755.691406 1390.964844 762.195312 1344.582031 C 769.617188 1293.945312 782.730469 1244.132812 794.066406 1194.320312 C 808.542969 1130.574219 836.679688 1071.925781 864.953125 1013.6875 C 882.484375 977.261719 904.882812 943.476562 925.371094 908.777344 Z M 917.175781 872.351562 C 921.109375 872.410156 924.996094 872.882812 928.832031 873.761719 C 913.03125 891.429688 900.558594 908.140625 885.398438 921.847656 C 839.320312 963.601562 792.289062 1004.261719 745.53125 1045.242188 C 740.296875 1049.796875 735.558594 1050.707031 730.371094 1043.695312 C 720.671875 1030.671875 709.882812 1018.46875 700.183594 1006.722656 C 689.300781 1007.3125 684.796875 1011.773438 684.203125 1022.429688 C 682.929688 1045.605469 679.332031 1068.648438 678.058594 1091.824219 C 676.875 1114.316406 667.3125 1132.394531 655.292969 1151.015625 C 639.308594 1174.726562 625.347656 1199.574219 613.40625 1225.554688 C 592.507812 1271.679688 574.203125 1319.261719 541.058594 1358.332031 C 518.976562 1384.375 494.210938 1408.417969 470.351562 1432.6875 C 457.511719 1445.847656 437.527344 1441.066406 429.375 1423.945312 C 424.035156 1412.144531 418.070312 1400.671875 411.484375 1389.523438 C 407.703125 1383.148438 397.003906 1383.875 395.320312 1390.113281 C 389.492188 1411.695312 383.210938 1433.1875 378.839844 1455.089844 C 370.507812 1496.890625 358.078125 1535.503906 324.796875 1565.964844 C 290.191406 1597.835938 257.914062 1632.035156 226.363281 1666.777344 C 211.199219 1683.488281 199.679688 1703.613281 187.386719 1722.691406 C 183.976562 1729.507812 181.335938 1736.609375 179.464844 1744 L 174.550781 1743.316406 C 176.6875 1711.71875 174.777344 1679.160156 181.789062 1648.652344 C 194.71875 1592.007812 212.382812 1536.367188 229.003906 1480.589844 C 239.882812 1444.160156 250.265625 1407.050781 264.558594 1371.765625 C 290.921875 1306.558594 329.941406 1248.824219 376.515625 1196.230469 C 403.796875 1165.371094 432.609375 1136.015625 462.953125 1108.164062 C 493.296875 1080.3125 525.007812 1054.117188 558.085938 1029.578125 C 613.429688 987.800781 671.8125 950.828125 733.238281 918.660156 C 765.109375 902.3125 799.074219 893.753906 833.402344 885.964844 C 860.992188 879.726562 889.222656 876.722656 917.175781 872.441406 Z M 928.695312 853.863281 C 916.4375 852.257812 904.128906 851.300781 891.769531 850.996094 C 863.496094 851.769531 835.179688 852.542969 807.042969 855.140625 C 761.511719 859.375 716.4375 865.386719 671.089844 870.121094 C 630.023438 874.402344 588.910156 878.285156 547.753906 881.777344 C 536.371094 882.777344 535.824219 880.820312 540.421875 870.210938 C 546.386719 856.550781 552.03125 842.480469 557.039062 828.367188 C 557.132812 827.964844 557.199219 827.558594 557.242188 827.148438 C 557.285156 826.738281 557.296875 826.328125 557.289062 825.914062 C 557.277344 825.503906 557.238281 825.09375 557.171875 824.6875 C 557.109375 824.28125 557.019531 823.878906 556.902344 823.484375 C 556.789062 823.085938 556.648438 822.703125 556.480469 822.324219 C 556.316406 821.945312 556.125 821.582031 555.914062 821.226562 C 555.699219 820.875 555.464844 820.539062 555.210938 820.214844 C 554.953125 819.890625 554.679688 819.585938 554.382812 819.300781 C 554.089844 819.011719 553.777344 818.746094 553.445312 818.496094 C 553.117188 818.25 552.773438 818.023438 552.414062 817.820312 C 552.054688 817.621094 551.683594 817.441406 551.300781 817.285156 C 550.921875 817.128906 550.53125 817 550.132812 816.894531 C 549.734375 816.789062 549.328125 816.710938 548.921875 816.65625 C 548.511719 816.605469 548.101562 816.578125 547.691406 816.578125 C 547.277344 816.578125 546.867188 816.601562 546.460938 816.65625 C 546.050781 816.707031 545.648438 816.785156 545.25 816.890625 C 527.035156 823.765625 509.28125 831.050781 491.523438 838.609375 C 473.765625 846.167969 456.648438 855.414062 438.480469 861.695312 C 433.398438 863.625 428.148438 864.8125 422.734375 865.261719 C 417.316406 865.710938 411.941406 865.402344 406.613281 864.335938 C 366.226562 853.5 326.296875 840.796875 286.324219 828.457031 C 278.949219 826.226562 275.257812 822.675781 282.132812 814.386719 C 292.289062 802.183594 300.9375 788.707031 308.449219 778.234375 C 299.574219 764.574219 290.648438 769.125 281.769531 772.90625 C 272.890625 776.683594 263.558594 781.238281 254.179688 785.382812 C 244.800781 789.527344 235.96875 794.078125 226.363281 797.675781 C 217.621094 801.046875 207.738281 806.78125 199.589844 805.324219 C 179.601562 801.457031 157.929688 802.003906 140.765625 787.476562 C 137.296875 784.289062 133.535156 781.503906 129.476562 779.117188 C 125.417969 776.730469 121.152344 774.796875 116.679688 773.316406 C 91.867188 766.667969 67.554688 755.921875 40.601562 760.476562 C 35.792969 760.847656 30.980469 760.847656 26.167969 760.476562 C 27.171875 758.015625 27.308594 756.652344 28.082031 755.921875 C 66.144531 722.316406 105.800781 690.945312 150.691406 666.585938 C 191.167969 644.59375 230.503906 620.460938 275.804688 608.984375 C 280.027344 607.410156 284.335938 606.136719 288.738281 605.160156 C 305.714844 603.074219 322.757812 602.179688 339.859375 602.480469 C 356.964844 602.777344 373.960938 604.261719 390.859375 606.9375 C 430.558594 613.949219 470.078125 621.824219 509.644531 629.703125 C 546.066406 636.761719 582.492188 643 618.503906 651.695312 C 641.441406 657.308594 663.707031 664.898438 685.296875 674.460938 C 704.042969 683.53125 722.132812 693.761719 739.566406 705.152344 C 761.875 718.539062 784.59375 731.425781 805.765625 746.449219 C 828.941406 762.933594 851.296875 780.785156 872.738281 799.453125 C 891.496094 816.070312 908.527344 834.285156 928.695312 853.957031 Z M 939.804688 836.746094 C 936.757812 833.652344 933.949219 830.359375 931.382812 826.863281 C 915.308594 801.546875 899.011719 776.457031 883.710938 750.730469 C 871.964844 730.925781 858.714844 711.300781 851.113281 689.851562 C 834.539062 643.136719 813.550781 597.328125 811.183594 546.558594 C 810.273438 527.160156 809.589844 507.765625 808.726562 486.089844 C 820.289062 492.28125 829.53125 495.195312 835.632812 501.117188 C 842.597656 507.902344 849.292969 506.808594 853.84375 501.890625 C 856.851562 498.703125 856.757812 490.824219 855.394531 485.769531 C 853.390625 478.441406 848.246094 472.113281 845.695312 464.824219 C 838.015625 443.210938 830.6875 421.460938 823.703125 399.578125 C 822.839844 397.296875 822.292969 394.945312 822.070312 392.519531 C 821.84375 390.089844 821.949219 387.675781 822.382812 385.277344 C 827.710938 366.519531 831.492188 346.710938 840.277344 329.683594 C 866.820312 278.640625 895.59375 228.824219 923.324219 178.417969 C 953.328125 123.78125 996.167969 79.75 1038.191406 34.671875 C 1039.726562 33.269531 1041.410156 32.085938 1043.246094 31.117188 C 1043.570312 45.851562 1044.753906 60.511719 1046.796875 75.105469 C 1053.628906 110.121094 1062.324219 144.769531 1069.242188 179.832031 C 1070.652344 185.523438 1071.476562 191.296875 1071.722656 197.152344 C 1071.96875 203.007812 1071.628906 208.832031 1070.699219 214.617188 C 1064.691406 241.394531 1050.894531 264.160156 1033.730469 285.558594 C 1025.398438 296.03125 1029.179688 305.140625 1042.835938 307.460938 C 1051.941406 309.101562 1061.046875 311.105469 1071.519531 313.152344 C 1071.699219 318.730469 1071.59375 324.300781 1071.203125 329.863281 C 1066.648438 363.058594 1063.144531 396.34375 1057.542969 429.265625 C 1051.625 462.960938 1043.882812 496.425781 1028.496094 527.34375 C 1006.960938 570.78125 984.195312 613.855469 962.886719 657.207031 C 947.679688 688.257812 944.949219 722.316406 942.808594 756.148438 C 940.667969 782.46875 940.625 808.921875 939.804688 836.835938 Z M 976.226562 820.441406 C 1000.265625 747.226562 1013.425781 669.136719 1076.164062 613.992188 C 1083.359375 622.464844 1091.007812 631.296875 1098.519531 640.222656 C 1103.617188 646.277344 1115.226562 645.820312 1118.324219 638.628906 C 1129.570312 612.492188 1141.089844 586.355469 1151.015625 559.71875 C 1161.714844 531.351562 1171.320312 502.617188 1195.179688 481.808594 C 1208.835938 469.835938 1223.222656 458.316406 1236.425781 445.703125 C 1278.996094 405.132812 1327.851562 372.847656 1376.566406 340.703125 C 1407.292969 320.390625 1439.257812 302.253906 1472.449219 286.289062 C 1500.082031 272.976562 1528.765625 262.566406 1558.5 255.050781 C 1593.648438 246.265625 1629.980469 242.167969 1665.8125 236.292969 C 1677.195312 234.425781 1688.578125 233.332031 1702.78125 231.738281 C 1694.722656 257.464844 1687.667969 280.6875 1680.019531 303.726562 C 1658.4375 370.160156 1625.382812 428.035156 1561.644531 463.597656 C 1543.886719 473.566406 1526.039062 482.582031 1505.1875 485.226562 C 1487.976562 487.363281 1471.128906 492.191406 1454.058594 495.605469 C 1442.539062 497.882812 1430.929688 499.613281 1419.410156 501.753906 C 1404.292969 504.53125 1389.085938 506.898438 1374.199219 510.542969 C 1369.644531 511.679688 1362.726562 516.324219 1362.632812 519.648438 C 1362.632812 526.25 1366.59375 531.488281 1375.292969 531.941406 C 1386.171875 532.535156 1396.964844 534.949219 1409.710938 536.90625 C 1407.617188 540.183594 1407.070312 542.050781 1405.886719 542.6875 C 1385.808594 554.027344 1365.820312 565.453125 1345.425781 576.292969 C 1319.882812 589.953125 1293.339844 601.519531 1268.253906 615.769531 C 1223.179688 641.40625 1177.96875 666.902344 1134.488281 695.089844 C 1085.179688 726.960938 1035.277344 758.835938 994.804688 802.457031 C 989.113281 808.46875 982.464844 814.339844 976.089844 820.535156 Z M 998.308594 840.023438 C 1000.359375 836.0625 1000.539062 835.105469 1001.085938 834.785156 C 1050.621094 807.464844 1099.613281 779.007812 1149.96875 753.28125 C 1178.378906 738.757812 1209.15625 728.601562 1238.613281 716.445312 C 1254 710.117188 1269.207031 703.195312 1284.824219 697.320312 C 1314.601562 686.027344 1344.011719 673.960938 1374.609375 664.71875 C 1404.019531 655.613281 1434.34375 649.828125 1464.347656 642.816406 C 1482.558594 638.535156 1500.769531 634.074219 1518.980469 630.796875 C 1547.574219 625.695312 1576.710938 623.007812 1605.03125 616.589844 C 1643.476562 607.757812 1682.417969 603.617188 1721.859375 604.160156 C 1765.703125 604.84375 1809.457031 609.351562 1853.300781 612.082031 C 1864.988281 612.796875 1876.609375 614.074219 1888.171875 615.921875 C 1899.730469 617.769531 1911.175781 620.171875 1922.5 623.132812 C 1933.824219 626.097656 1944.980469 629.601562 1955.964844 633.652344 C 1966.949219 637.699219 1977.710938 642.273438 1988.25 647.371094 C 2002.183594 654.109375 2015.339844 662.441406 2029.226562 669.363281 C 2033.007812 671.230469 2041.382812 669.363281 2041.976562 671.320312 C 2045.890625 683.523438 2058 682.429688 2066.105469 687.257812 C 2087.550781 700.050781 2109.632812 711.800781 2131.441406 723.957031 L 2129.757812 727.828125 C 2119.285156 725.234375 2108.859375 722.5 2098.296875 720.132812 C 2073.710938 714.625 2049.988281 722.183594 2026.039062 725.640625 C 2013.535156 727.808594 2001.210938 730.738281 1989.070312 734.429688 C 1975.410156 738.164062 1960.207031 739.984375 1948.320312 747.089844 C 1921.277344 763.296875 1892.046875 764.390625 1862.273438 764.4375 C 1858.140625 764.164062 1854.269531 763.011719 1850.660156 760.976562 C 1820.65625 746.40625 1790.789062 731.472656 1760.695312 716.945312 C 1754.960938 714.167969 1747.039062 720.179688 1747.949219 727.234375 C 1749.222656 738.800781 1751.773438 750.277344 1753.730469 761.796875 C 1753.894531 762.808594 1754 763.824219 1754.054688 764.847656 C 1754.109375 765.871094 1754.105469 766.894531 1754.050781 767.917969 C 1753.996094 768.941406 1753.886719 769.960938 1753.722656 770.972656 C 1753.558594 771.984375 1753.339844 772.984375 1753.066406 773.972656 C 1752.796875 774.960938 1752.472656 775.929688 1752.097656 776.882812 C 1751.722656 777.839844 1751.300781 778.769531 1750.824219 779.675781 C 1750.351562 780.585938 1749.828125 781.464844 1749.261719 782.320312 C 1748.691406 783.171875 1748.082031 783.992188 1747.425781 784.777344 C 1746.769531 785.566406 1746.070312 786.316406 1745.335938 787.03125 C 1744.601562 787.742188 1743.828125 788.414062 1743.019531 789.042969 C 1742.210938 789.675781 1741.371094 790.261719 1740.503906 790.800781 C 1739.632812 791.34375 1738.734375 791.835938 1737.8125 792.28125 C 1736.890625 792.726562 1735.945312 793.121094 1734.980469 793.464844 C 1734.015625 793.808594 1733.035156 794.097656 1732.039062 794.339844 C 1731.039062 794.578125 1730.035156 794.761719 1729.019531 794.894531 C 1728.003906 795.027344 1726.980469 795.105469 1725.957031 795.125 C 1687.804688 795.398438 1649.605469 796.175781 1611.453125 795.125 C 1604.742188 795.054688 1598.066406 794.5625 1591.417969 793.660156 C 1584.773438 792.753906 1578.207031 791.4375 1571.722656 789.714844 C 1565.238281 787.992188 1558.886719 785.871094 1552.667969 783.355469 C 1546.449219 780.839844 1540.410156 777.949219 1534.550781 774.683594 C 1511.242188 761.386719 1488.144531 747.726562 1465.257812 733.703125 C 1456.972656 728.554688 1450.414062 728.101562 1443.902344 737.207031 C 1447.5 747.816406 1451.554688 758.972656 1454.96875 770.3125 C 1455.878906 773.363281 1456.015625 779.417969 1454.511719 780.054688 C 1445.40625 784.882812 1435.753906 792.167969 1426.328125 792.121094 C 1396.324219 791.800781 1366.320312 788.160156 1336.320312 786.75 C 1309.195312 784.835938 1282.042969 784.289062 1254.867188 785.109375 C 1228.734375 786.476562 1202.734375 791.164062 1176.785156 795.125 C 1151.515625 798.90625 1126.019531 802.230469 1101.296875 808.285156 C 1073.203125 815.160156 1045.796875 824.8125 1018.113281 833.375 C 1012.285156 835.152344 1006.414062 837.199219 998.171875 840.113281 Z M 1000.769531 892.839844 C 990.433594 885.511719 980.554688 877.585938 970.492188 870.074219 C 980.683594 867.476562 991.035156 865.960938 1001.542969 865.519531 C 1043.15625 861.832031 1084.722656 855.960938 1126.382812 854.777344 C 1161.777344 854.300781 1197.046875 856.164062 1232.191406 860.375 C 1274.308594 864.703125 1316.238281 870.941406 1358.082031 877.542969 C 1382.441406 881.367188 1403.019531 890.976562 1411.441406 917.976562 C 1414.8125 928.8125 1421.414062 941.242188 1436.347656 940.742188 C 1459.109375 939.605469 1482.875 941.746094 1504.640625 930.453125 C 1510.675781 927.105469 1516.960938 924.316406 1523.488281 922.074219 C 1525.675781 921.285156 1527.929688 920.804688 1530.25 920.632812 C 1532.570312 920.464844 1534.867188 920.609375 1537.148438 921.074219 C 1576.347656 932.136719 1614.773438 945.160156 1650.425781 965.285156 C 1683.480469 983.863281 1717.214844 1001.257812 1749.449219 1021.109375 C 1771.425781 1034.34375 1792.511719 1048.871094 1812.710938 1064.683594 C 1832.910156 1080.496094 1852.070312 1097.480469 1870.195312 1115.636719 C 1913.855469 1160.261719 1958.976562 1203.515625 2003.277344 1247.683594 C 2011.199219 1255.609375 2018.390625 1264.304688 2026.039062 1272.683594 L 2024.402344 1274.960938 C 2022.121094 1274.292969 2019.90625 1273.460938 2017.753906 1272.453125 C 2007.054688 1266.625 1997.128906 1258.386719 1985.882812 1255.015625 C 1937.214844 1240.671875 1888.40625 1226.695312 1839.097656 1214.671875 C 1784.234375 1201.285156 1728.78125 1190.3125 1673.644531 1178.246094 C 1666.140625 1176.707031 1658.757812 1174.714844 1651.496094 1172.265625 C 1644.234375 1169.820312 1637.152344 1166.941406 1630.246094 1163.625 C 1623.339844 1160.308594 1616.660156 1156.582031 1610.210938 1152.449219 C 1603.761719 1148.3125 1597.585938 1143.796875 1591.691406 1138.90625 C 1571.507812 1121.398438 1552.460938 1102.730469 1534.550781 1082.898438 C 1520.894531 1068.054688 1506.1875 1060.132812 1485.425781 1064.914062 C 1473.90625 1067.460938 1467.214844 1073.199219 1467.945312 1084.765625 C 1467.789062 1092.890625 1468.351562 1100.964844 1469.628906 1108.988281 C 1471.949219 1118.597656 1467.214844 1122.375 1459.613281 1123.558594 C 1444.40625 1125.929688 1430.472656 1128.476562 1414.082031 1121.054688 C 1383.441406 1107.121094 1359.445312 1085.8125 1338.777344 1061.269531 C 1318.105469 1036.726562 1298.9375 1010.226562 1272.394531 990.554688 C 1260.011719 981.449219 1250.816406 980.722656 1239.75 991.878906 C 1234.730469 997.839844 1228.945312 1002.9375 1222.402344 1007.175781 C 1206.878906 1015.328125 1190.535156 1023.066406 1172.867188 1012.6875 C 1160.257812 1005.265625 1147.964844 997.203125 1135.988281 988.78125 C 1090.765625 957 1045.644531 925.050781 1000.632812 892.933594 Z M 1000.769531 892.839844 " fill-opacity="1" fill-rule="nonzero"/></g></g></g></g></g></g></g></g></g></svg>