<svg xmlns="http://www.w3.org/2000/svg" xmlns:xlink="http://www.w3.org/1999/xlink" width="3000" zoomAndPan="magnify" viewBox="0 0 2250 2250.000011" height="3000" preserveAspectRatio="xMidYMid meet" version="1.0"><defs><g/></defs><path fill="#ffffff" d="M 1300.394531 1556.1875 C 1287.289062 1555.25 1275.121094 1554.3125 1262.953125 1553.84375 C 1174.5 1551.503906 1085.574219 1551.039062 997.121094 1546.824219 C 913.34375 1542.613281 829.570312 1536.058594 747.199219 1515.464844 C 662.019531 1493.9375 585.730469 1455.089844 516.464844 1401.734375 C 439.242188 1342.292969 398.992188 1262.726562 387.292969 1166.78125 C 371.378906 1033.390625 410.695312 919.65625 504.296875 825.113281 C 753.28125 572.84375 1132.84375 594.375 1452.5 662.238281 C 1573.71875 687.980469 1680.894531 745.082031 1775.433594 824.179688 C 1863.890625 898.597656 1903.203125 998.757812 1909.285156 1112.488281 C 1920.519531 1331.996094 1714.589844 1464.449219 1539.550781 1534.1875 C 1531.128906 1537.464844 1522.703125 1539.804688 1515.214844 1541.675781 C 1507.257812 1568.824219 1500.707031 1593.628906 1492.75 1618.433594 C 1468.414062 1693.320312 1423.953125 1753.695312 1360.769531 1800.03125 C 1308.351562 1838.878906 1250.316406 1867.429688 1189.941406 1891.296875 C 1183.859375 1893.640625 1176.839844 1895.980469 1170.285156 1895.980469 C 1157.183594 1895.511719 1149.695312 1883.34375 1155.777344 1871.640625 C 1159.523438 1864.621094 1165.605469 1859.472656 1170.753906 1853.386719 C 1221.300781 1795.351562 1261.082031 1730.761719 1286.355469 1658.21875 C 1296.652344 1626.390625 1305.074219 1593.628906 1300.394531 1556.1875 Z M 1300.394531 1556.1875 " fill-opacity="1" fill-rule="nonzero"/><path fill="#3f9fc4" d="M 1290.566406 1708.296875 C 1369.195312 1659.152344 1428.632812 1595.03125 1449.691406 1500.023438 C 1452.5 1486.917969 1459.054688 1473.8125 1459.523438 1460.238281 C 1460.925781 1432.15625 1476.839844 1421.859375 1501.644531 1416.242188 C 1680.894531 1374.121094 1892.4375 1203.289062 1868.570312 1005.308594 C 1856.402344 903.277344 1818.960938 813.414062 1734.25 750.230469 C 1643.921875 682.832031 1544.699219 632.753906 1433.78125 610.753906 C 1130.503906 549.910156 757.960938 536.804688 526.292969 777.375 C 448.136719 858.8125 419.585938 957.570312 430.816406 1068.960938 C 439.710938 1155.546875 476.214844 1227.625 546.417969 1280.980469 C 597.433594 1319.828125 652.660156 1350.25 713.96875 1370.375 C 773.875 1390.035156 836.121094 1398.457031 898.367188 1401.734375 C 1026.605469 1408.285156 1154.84375 1412.96875 1283.546875 1415.308594 C 1310.691406 1415.773438 1329.414062 1419.050781 1339.242188 1446.199219 C 1371.066406 1530.445312 1316.308594 1625.453125 1279.335938 1702.210938 C 1269.507812 1721.871094 1275.589844 1717.65625 1290.566406 1708.296875 Z M 1606.480469 1519.679688 C 1602.265625 1519.210938 1595.246094 1519.210938 1589.164062 1516.871094 C 1575.121094 1511.253906 1573.25 1495.808594 1586.355469 1487.851562 C 1593.84375 1483.171875 1603.203125 1480.832031 1612.09375 1478.960938 C 1686.976562 1461.644531 1752.5 1427.945312 1806.324219 1372.246094 C 1811.003906 1367.566406 1816.152344 1361.484375 1822.234375 1359.609375 C 1829.253906 1357.738281 1839.550781 1357.269531 1843.765625 1361.015625 C 1848.914062 1366.164062 1852.1875 1376.460938 1851.253906 1384.417969 C 1850.785156 1391.4375 1844.699219 1398.925781 1839.085938 1404.542969 C 1778.242188 1466.792969 1704.761719 1504.234375 1619.117188 1518.742188 C 1615.839844 1519.210938 1612.5625 1519.210938 1606.480469 1519.679688 Z M 357.339844 886.894531 C 334.875 878.003906 329.726562 861.621094 333.46875 841.964844 C 354.53125 727.296875 409.289062 633.6875 507.105469 567.695312 C 514.59375 562.546875 523.484375 559.269531 531.910156 556.929688 C 543.140625 554.589844 553.4375 557.867188 557.183594 569.101562 C 561.394531 580.800781 553.4375 586.886719 544.078125 593.4375 C 527.699219 604.671875 511.316406 617.308594 496.339844 631.347656 C 437.371094 684.238281 405.078125 751.632812 387.761719 827.921875 C 383.082031 849.453125 383.082031 874.257812 357.339844 886.894531 Z M 1300.394531 1471.941406 C 1287.289062 1471.003906 1275.121094 1470.066406 1262.953125 1469.597656 C 1174.5 1467.257812 1085.574219 1466.792969 997.121094 1462.578125 C 913.34375 1458.367188 829.570312 1451.8125 747.199219 1431.21875 C 662.019531 1409.691406 585.730469 1370.84375 516.464844 1317.488281 C 439.242188 1258.046875 398.992188 1178.480469 387.292969 1082.535156 C 371.378906 949.144531 410.695312 835.410156 504.296875 740.867188 C 753.28125 488.597656 1132.84375 510.128906 1452.5 577.992188 C 1573.71875 603.734375 1680.894531 660.835938 1775.433594 739.933594 C 1863.890625 814.351562 1903.203125 914.507812 1909.285156 1028.242188 C 1920.519531 1247.75 1714.589844 1380.203125 1539.550781 1449.941406 C 1531.128906 1453.21875 1522.703125 1455.558594 1515.214844 1457.429688 C 1507.257812 1484.578125 1500.707031 1509.382812 1492.75 1534.1875 C 1468.414062 1609.074219 1423.953125 1669.449219 1360.769531 1715.785156 C 1308.351562 1754.632812 1250.316406 1783.183594 1189.941406 1807.050781 C 1183.859375 1809.394531 1176.839844 1811.734375 1170.285156 1811.734375 C 1157.183594 1811.265625 1149.695312 1799.097656 1155.777344 1787.394531 C 1159.523438 1780.375 1165.605469 1775.226562 1170.753906 1769.140625 C 1221.300781 1711.105469 1261.082031 1646.515625 1286.355469 1573.972656 C 1296.652344 1542.144531 1305.074219 1509.382812 1300.394531 1471.941406 Z M 1300.394531 1471.941406 " fill-opacity="1" fill-rule="nonzero"/><g fill="#20448e" fill-opacity="1"><g transform="translate(509.160394, 1140.52523)"><g><path d="M 16.234375 0 L 16.234375 -137.484375 L 47.234375 -137.484375 L 47.234375 -84.5625 L 94.6875 -84.5625 L 94.6875 -137.484375 L 125.890625 -137.484375 L 125.890625 0 L 94.6875 0 L 94.6875 -57.359375 L 47.234375 -57.359375 L 47.234375 0 Z M 16.234375 0 "/></g></g></g><g fill="#20448e" fill-opacity="1"><g transform="translate(651.289076, 1140.52523)"><g><path d="M 13.703125 0 L 13.703125 -104.59375 L 44.703125 -104.59375 L 44.703125 0 Z M 29.09375 -119.984375 C 23.894531 -119.984375 19.609375 -121.492188 16.234375 -124.515625 C 12.859375 -127.546875 11.171875 -131.445312 11.171875 -136.21875 C 11.171875 -141 12.859375 -144.863281 16.234375 -147.8125 C 19.609375 -150.769531 23.894531 -152.25 29.09375 -152.25 C 34.4375 -152.25 38.757812 -150.769531 42.0625 -147.8125 C 45.375 -144.863281 47.03125 -141 47.03125 -136.21875 C 47.03125 -131.445312 45.375 -127.546875 42.0625 -124.515625 C 38.757812 -121.492188 34.4375 -119.984375 29.09375 -119.984375 Z M 29.09375 -119.984375 "/></g></g></g><g fill="#20448e" fill-opacity="1"><g transform="translate(709.490128, 1140.52523)"><g><path d="M 16.03125 40.90625 L 9.703125 24.46875 C 17.578125 21.65625 23.550781 18 27.625 13.5 C 31.695312 9 33.664062 4.078125 33.53125 -1.265625 L 31.84375 -1.265625 C 26.925781 -1.265625 22.566406 -2.773438 18.765625 -5.796875 C 14.972656 -8.816406 13.078125 -13.140625 13.078125 -18.765625 C 13.078125 -24.109375 14.972656 -28.394531 18.765625 -31.625 C 22.566406 -34.863281 27.132812 -36.484375 32.46875 -36.484375 C 39.5 -36.484375 44.84375 -33.914062 48.5 -28.78125 C 52.15625 -23.65625 53.984375 -16.453125 53.984375 -7.171875 C 53.984375 4.492188 50.75 14.507812 44.28125 22.875 C 37.8125 31.238281 28.394531 37.25 16.03125 40.90625 Z M 16.03125 40.90625 "/></g></g></g><g fill="#20448e" fill-opacity="1"><g transform="translate(772.75214, 1140.52523)"><g/></g></g><g fill="#20448e" fill-opacity="1"><g transform="translate(814.926799, 1140.52523)"><g><path d="M 16.234375 0 L 16.234375 -137.484375 L 47.234375 -137.484375 L 47.234375 0 Z M 16.234375 0 "/></g></g></g><g fill="#20448e" fill-opacity="1"><g transform="translate(878.399678, 1140.52523)"><g><path d="M 23.203125 -74.65625 L 17.078125 -116.609375 L 16.03125 -144.65625 L 47.234375 -144.65625 L 46.1875 -116.609375 L 40.0625 -74.65625 Z M 23.203125 -74.65625 "/></g></g></g><g fill="#20448e" fill-opacity="1"><g transform="translate(941.661712, 1140.52523)"><g><path d="M 13.703125 0 L 13.703125 -104.59375 L 39.015625 -104.59375 L 41.125 -91.09375 L 41.96875 -91.09375 C 46.320312 -95.457031 50.957031 -99.21875 55.875 -102.375 C 60.800781 -105.539062 66.707031 -107.125 73.59375 -107.125 C 81.039062 -107.125 87.050781 -105.613281 91.625 -102.59375 C 96.195312 -99.570312 99.816406 -95.25 102.484375 -89.625 C 107.117188 -94.40625 112.003906 -98.515625 117.140625 -101.953125 C 122.273438 -105.398438 128.351562 -107.125 135.375 -107.125 C 146.625 -107.125 154.882812 -103.363281 160.15625 -95.84375 C 165.425781 -88.320312 168.0625 -78.023438 168.0625 -64.953125 L 168.0625 0 L 137.0625 0 L 137.0625 -60.9375 C 137.0625 -68.53125 136.039062 -73.734375 134 -76.546875 C 131.96875 -79.359375 128.703125 -80.765625 124.203125 -80.765625 C 119.003906 -80.765625 113.03125 -77.390625 106.28125 -70.640625 L 106.28125 0 L 75.28125 0 L 75.28125 -60.9375 C 75.28125 -68.53125 74.257812 -73.734375 72.21875 -76.546875 C 70.1875 -79.359375 66.921875 -80.765625 62.421875 -80.765625 C 57.078125 -80.765625 51.171875 -77.390625 44.703125 -70.640625 L 44.703125 0 Z M 13.703125 0 "/></g></g></g><g fill="#20448e" fill-opacity="1"><g transform="translate(1122.380226, 1140.52523)"><g/></g></g><g fill="#20448e" fill-opacity="1"><g transform="translate(1164.554886, 1140.52523)"><g><path d="M 73.59375 2.53125 C 64.875 2.53125 56.648438 1.019531 48.921875 -2 C 41.191406 -5.019531 34.410156 -9.484375 28.578125 -15.390625 C 22.742188 -21.296875 18.140625 -28.640625 14.765625 -37.421875 C 11.390625 -46.210938 9.703125 -56.375 9.703125 -67.90625 C 9.703125 -79.289062 11.457031 -89.445312 14.96875 -98.375 C 18.488281 -107.300781 23.195312 -114.859375 29.09375 -121.046875 C 35 -127.234375 41.890625 -131.941406 49.765625 -135.171875 C 57.640625 -138.398438 65.9375 -140.015625 74.65625 -140.015625 C 83.507812 -140.015625 91.445312 -138.222656 98.46875 -134.640625 C 105.5 -131.054688 111.335938 -126.875 115.984375 -122.09375 L 99.53125 -102.28125 C 96.019531 -105.507812 92.328125 -108.140625 88.453125 -110.171875 C 84.585938 -112.210938 80.195312 -113.234375 75.28125 -113.234375 C 70.644531 -113.234375 66.25 -112.210938 62.09375 -110.171875 C 57.945312 -108.140625 54.363281 -105.222656 51.34375 -101.421875 C 48.320312 -97.628906 45.929688 -92.988281 44.171875 -87.5 C 42.421875 -82.019531 41.546875 -75.835938 41.546875 -68.953125 C 41.546875 -54.753906 44.566406 -43.753906 50.609375 -35.953125 C 56.648438 -28.148438 64.734375 -24.25 74.859375 -24.25 C 80.484375 -24.25 85.507812 -25.476562 89.9375 -27.9375 C 94.363281 -30.394531 98.265625 -33.453125 101.640625 -37.109375 L 118.09375 -17.71875 C 106.5625 -4.21875 91.726562 2.53125 73.59375 2.53125 Z M 73.59375 2.53125 "/></g></g></g><g fill="#20448e" fill-opacity="1"><g transform="translate(1287.283218, 1140.52523)"><g><path d="M 40.0625 2.53125 C 35.28125 2.53125 30.957031 1.722656 27.09375 0.109375 C 23.226562 -1.503906 19.957031 -3.753906 17.28125 -6.640625 C 14.613281 -9.523438 12.539062 -12.863281 11.0625 -16.65625 C 9.59375 -20.457031 8.859375 -24.601562 8.859375 -29.09375 C 8.859375 -40.0625 13.492188 -48.640625 22.765625 -54.828125 C 32.046875 -61.015625 47.019531 -65.160156 67.6875 -67.265625 C 67.40625 -71.910156 66.035156 -75.601562 63.578125 -78.34375 C 61.117188 -81.082031 57.007812 -82.453125 51.25 -82.453125 C 46.75 -82.453125 42.28125 -81.609375 37.84375 -79.921875 C 33.414062 -78.234375 28.675781 -75.914062 23.625 -72.96875 L 12.4375 -93.421875 C 19.1875 -97.492188 26.25 -100.796875 33.625 -103.328125 C 41.007812 -105.859375 48.847656 -107.125 57.140625 -107.125 C 70.640625 -107.125 80.9375 -103.289062 88.03125 -95.625 C 95.132812 -87.96875 98.6875 -76.054688 98.6875 -59.890625 L 98.6875 0 L 73.390625 0 L 71.28125 -10.75 L 70.4375 -10.75 C 65.9375 -6.8125 61.222656 -3.613281 56.296875 -1.15625 C 51.378906 1.300781 45.96875 2.53125 40.0625 2.53125 Z M 50.609375 -21.515625 C 54.117188 -21.515625 57.140625 -22.285156 59.671875 -23.828125 C 62.203125 -25.378906 64.875 -27.554688 67.6875 -30.359375 L 67.6875 -48.71875 C 56.726562 -47.164062 49.140625 -44.910156 44.921875 -41.953125 C 40.703125 -39.003906 38.59375 -35.492188 38.59375 -31.421875 C 38.59375 -28.046875 39.679688 -25.550781 41.859375 -23.9375 C 44.035156 -22.320312 46.953125 -21.515625 50.609375 -21.515625 Z M 50.609375 -21.515625 "/></g></g></g><g fill="#20448e" fill-opacity="1"><g transform="translate(1398.413449, 1140.52523)"><g><path d="M 13.703125 0 L 13.703125 -104.59375 L 39.015625 -104.59375 L 41.125 -86.25 L 41.96875 -86.25 C 45.757812 -93.414062 50.328125 -98.6875 55.671875 -102.0625 C 61.015625 -105.4375 66.359375 -107.125 71.703125 -107.125 C 74.648438 -107.125 77.070312 -106.945312 78.96875 -106.59375 C 80.863281 -106.238281 82.585938 -105.710938 84.140625 -105.015625 L 79.078125 -78.234375 C 77.109375 -78.796875 75.28125 -79.21875 73.59375 -79.5 C 71.90625 -79.78125 69.9375 -79.921875 67.6875 -79.921875 C 63.75 -79.921875 59.632812 -78.515625 55.34375 -75.703125 C 51.0625 -72.890625 47.515625 -67.898438 44.703125 -60.734375 L 44.703125 0 Z M 13.703125 0 "/></g></g></g><g fill="#20448e" fill-opacity="1"><g transform="translate(1482.34108, 1140.52523)"><g><path d="M 42.171875 2.53125 C 36.828125 2.53125 32.328125 1.6875 28.671875 0 C 25.023438 -1.6875 22.109375 -4.039062 19.921875 -7.0625 C 17.742188 -10.082031 16.160156 -13.738281 15.171875 -18.03125 C 14.191406 -22.320312 13.703125 -27.132812 13.703125 -32.46875 L 13.703125 -147.828125 L 44.703125 -147.828125 L 44.703125 -31.203125 C 44.703125 -27.972656 45.300781 -25.722656 46.5 -24.453125 C 47.695312 -23.191406 48.925781 -22.5625 50.1875 -22.5625 C 50.894531 -22.5625 51.492188 -22.5625 51.984375 -22.5625 C 52.472656 -22.5625 53.140625 -22.703125 53.984375 -22.984375 L 57.78125 0 C 56.09375 0.695312 53.945312 1.289062 51.34375 1.78125 C 48.75 2.28125 45.691406 2.53125 42.171875 2.53125 Z M 42.171875 2.53125 "/></g></g></g><g fill="#20448e" fill-opacity="1"><g transform="translate(1542.650913, 1140.52523)"><g><path d="M 58.625 2.53125 C 52.019531 2.53125 45.625 1.300781 39.4375 -1.15625 C 33.25 -3.613281 27.800781 -7.160156 23.09375 -11.796875 C 18.382812 -16.441406 14.625 -22.171875 11.8125 -28.984375 C 9 -35.804688 7.59375 -43.578125 7.59375 -52.296875 C 7.59375 -61.015625 9 -68.78125 11.8125 -75.59375 C 14.625 -82.414062 18.382812 -88.144531 23.09375 -92.78125 C 27.800781 -97.425781 33.25 -100.976562 39.4375 -103.4375 C 45.625 -105.894531 52.019531 -107.125 58.625 -107.125 C 65.226562 -107.125 71.585938 -105.894531 77.703125 -103.4375 C 83.816406 -100.976562 89.226562 -97.425781 93.9375 -92.78125 C 98.65625 -88.144531 102.414062 -82.414062 105.21875 -75.59375 C 108.03125 -68.78125 109.4375 -61.015625 109.4375 -52.296875 C 109.4375 -43.578125 108.03125 -35.804688 105.21875 -28.984375 C 102.414062 -22.171875 98.65625 -16.441406 93.9375 -11.796875 C 89.226562 -7.160156 83.816406 -3.613281 77.703125 -1.15625 C 71.585938 1.300781 65.226562 2.53125 58.625 2.53125 Z M 58.625 -22.5625 C 64.945312 -22.5625 69.722656 -25.234375 72.953125 -30.578125 C 76.191406 -35.921875 77.8125 -43.160156 77.8125 -52.296875 C 77.8125 -61.429688 76.191406 -68.671875 72.953125 -74.015625 C 69.722656 -79.359375 64.945312 -82.03125 58.625 -82.03125 C 52.15625 -82.03125 47.335938 -79.359375 44.171875 -74.015625 C 41.015625 -68.671875 39.4375 -61.429688 39.4375 -52.296875 C 39.4375 -43.160156 41.015625 -35.921875 44.171875 -30.578125 C 47.335938 -25.234375 52.15625 -22.5625 58.625 -22.5625 Z M 58.625 -22.5625 "/></g></g></g><g fill="#20448e" fill-opacity="1"><g transform="translate(1659.685686, 1140.52523)"><g><path d="M 44.5 2.53125 C 37.601562 2.53125 30.535156 1.195312 23.296875 -1.46875 C 16.054688 -4.144531 9.765625 -7.660156 4.421875 -12.015625 L 18.34375 -31.421875 C 23.125 -27.765625 27.691406 -25.019531 32.046875 -23.1875 C 36.410156 -21.363281 40.84375 -20.453125 45.34375 -20.453125 C 49.976562 -20.453125 53.347656 -21.222656 55.453125 -22.765625 C 57.566406 -24.316406 58.625 -26.5 58.625 -29.3125 C 58.625 -31 58.023438 -32.507812 56.828125 -33.84375 C 55.628906 -35.175781 54.007812 -36.40625 51.96875 -37.53125 C 49.9375 -38.65625 47.65625 -39.675781 45.125 -40.59375 C 42.59375 -41.507812 39.992188 -42.53125 37.328125 -43.65625 C 34.085938 -44.914062 30.851562 -46.390625 27.625 -48.078125 C 24.394531 -49.765625 21.441406 -51.835938 18.765625 -54.296875 C 16.097656 -56.753906 13.921875 -59.632812 12.234375 -62.9375 C 10.546875 -66.25 9.703125 -70.082031 9.703125 -74.4375 C 9.703125 -79.21875 10.648438 -83.644531 12.546875 -87.71875 C 14.441406 -91.800781 17.144531 -95.25 20.65625 -98.0625 C 24.175781 -100.875 28.394531 -103.085938 33.3125 -104.703125 C 38.238281 -106.316406 43.722656 -107.125 49.765625 -107.125 C 57.773438 -107.125 64.800781 -105.753906 70.84375 -103.015625 C 76.894531 -100.273438 82.171875 -97.21875 86.671875 -93.84375 L 72.75 -75.28125 C 68.957031 -78.09375 65.234375 -80.269531 61.578125 -81.8125 C 57.921875 -83.363281 54.265625 -84.140625 50.609375 -84.140625 C 42.734375 -84.140625 38.796875 -81.398438 38.796875 -75.921875 C 38.796875 -74.234375 39.359375 -72.789062 40.484375 -71.59375 C 41.609375 -70.394531 43.117188 -69.300781 45.015625 -68.3125 C 46.921875 -67.332031 49.101562 -66.382812 51.5625 -65.46875 C 54.019531 -64.5625 56.582031 -63.613281 59.25 -62.625 C 62.625 -61.363281 65.960938 -59.921875 69.265625 -58.296875 C 72.578125 -56.679688 75.601562 -54.679688 78.34375 -52.296875 C 81.082031 -49.910156 83.296875 -46.992188 84.984375 -43.546875 C 86.671875 -40.097656 87.515625 -35.984375 87.515625 -31.203125 C 87.515625 -26.429688 86.597656 -22.003906 84.765625 -17.921875 C 82.941406 -13.847656 80.203125 -10.296875 76.546875 -7.265625 C 72.890625 -4.242188 68.390625 -1.851562 63.046875 -0.09375 C 57.703125 1.65625 51.519531 2.53125 44.5 2.53125 Z M 44.5 2.53125 "/></g></g></g><g fill="#20448e" fill-opacity="1"><g transform="translate(1753.10266, 1140.52523)"><g><path d="M 25.734375 -48.71875 L 21.296875 -113.234375 L 20.25 -141.28125 L 51.453125 -141.28125 L 50.40625 -113.234375 L 45.96875 -48.71875 Z M 35.84375 2.53125 C 30.5 2.53125 26.035156 0.671875 22.453125 -3.046875 C 18.867188 -6.773438 17.078125 -11.382812 17.078125 -16.875 C 17.078125 -22.5 18.867188 -27.171875 22.453125 -30.890625 C 26.035156 -34.617188 30.5 -36.484375 35.84375 -36.484375 C 41.1875 -36.484375 45.648438 -34.617188 49.234375 -30.890625 C 52.816406 -27.171875 54.609375 -22.5 54.609375 -16.875 C 54.609375 -11.382812 52.816406 -6.773438 49.234375 -3.046875 C 45.648438 0.671875 41.1875 2.53125 35.84375 2.53125 Z M 35.84375 2.53125 "/></g></g></g></svg>