<svg xmlns="http://www.w3.org/2000/svg" xmlns:xlink="http://www.w3.org/1999/xlink" width="3000" zoomAndPan="magnify" viewBox="0 0 2250 2250.000011" height="3000" preserveAspectRatio="xMidYMid meet" version="1.0"><defs><clipPath id="0b18d7a493"><path d="M 15.488281 0 L 2249.261719 0 L 2249.261719 2158.257812 L 15.488281 2158.257812 Z M 15.488281 0 " clip-rule="nonzero"/></clipPath><clipPath id="e98ea595d6"><path d="M 123 0 L 2249.261719 0 L 2249.261719 2097 L 123 2097 Z M 123 0 " clip-rule="nonzero"/></clipPath></defs><g clip-path="url(#0b18d7a493)"><path fill="#20448e" d="M 2264.574219 2220.6875 C 2303.050781 1516.023438 1897.515625 1684.773438 1703.796875 1306.6875 C 1559.808594 1025.679688 1800.375 842.117188 1523.773438 549.980469 C 1443.328125 465.023438 1353.824219 383.007812 1249.21875 328.6875 C 1168.214844 286.636719 1083.179688 261.480469 992.84375 251.203125 C 663.722656 213.71875 358.90625 330.28125 88.816406 57.816406 C 70.675781 39.507812 -10.617188 -62.78125 0.863281 -97.261719 C 4.503906 -108.183594 16.066406 -120.015625 23.699219 -128.125 C 230.492188 -347.761719 980.351562 -163.332031 1258.363281 -177.582031 C 1483.976562 -189.144531 1701.625 -206.046875 1927.777344 -197.957031 C 2207.875 -187.925781 2421.246094 -218.746094 2330.621094 177.355469 " fill-opacity="1" fill-rule="evenodd"/></g><g clip-path="url(#e98ea595d6)"><path fill="#3f9fc4" d="M 2391.210938 2019.085938 C 2391.003906 2043.742188 2390.175781 2069.519531 2388.6875 2096.574219 L 2391.210938 2019.085938 C 2396.339844 1404.054688 2014.179688 1546.140625 1827.910156 1182.574219 C 1683.917969 901.566406 1924.488281 718.003906 1647.886719 425.867188 C 1567.441406 340.914062 1477.933594 258.898438 1373.328125 204.578125 C 1292.328125 162.523438 1207.289062 137.371094 1116.957031 127.089844 C 787.832031 89.609375 483.015625 206.171875 212.929688 -66.296875 C 194.789062 -84.601562 113.496094 -186.890625 124.976562 -221.375 C 128.617188 -232.296875 140.179688 -244.128906 147.8125 -252.234375 C 354.601562 -471.878906 1104.464844 -287.441406 1382.472656 -301.695312 C 1608.085938 -313.257812 1825.738281 -330.15625 2051.890625 -322.070312 C 2331.988281 -312.035156 2545.355469 -342.859375 2454.734375 53.242188 Z M 1450.898438 932.492188 C 1442.003906 782.460938 1419.707031 652.972656 1326.042969 532.148438 C 1215.171875 389.109375 1071.035156 371.300781 890.558594 381 C 802.5 385.738281 618.339844 337.667969 559.160156 363.128906 C 277.671875 484.179688 1459.730469 1081.363281 1450.898438 932.492188 Z M 1450.898438 932.492188 " fill-opacity="1" fill-rule="evenodd"/></g></svg>