<svg xmlns="http://www.w3.org/2000/svg" xmlns:xlink="http://www.w3.org/1999/xlink" width="3000" zoomAndPan="magnify" viewBox="0 0 2250 2250.000011" height="3000" preserveAspectRatio="xMidYMid meet" version="1.0"><defs><clipPath id="f8d383ce25"><path d="M 81.453125 0 L 2249.160156 0 L 2249.160156 2168.035156 L 81.453125 2168.035156 Z M 81.453125 0 " clip-rule="nonzero"/></clipPath><clipPath id="11f751dd8d"><path d="M 541 0 L 2249.160156 0 L 2249.160156 2168.035156 L 541 2168.035156 Z M 541 0 " clip-rule="nonzero"/></clipPath></defs><g clip-path="url(#f8d383ce25)"><path fill="#20448e" d="M 2246.355469 2191.242188 C 2261.835938 1971.667969 2245.816406 1726.21875 2147.089844 1523.347656 C 2042.039062 1307.507812 1802.953125 1265.589844 1655.1875 1093.835938 C 1440.691406 844.53125 1699.488281 601.53125 1255.34375 339.097656 C 1094.046875 243.785156 914.640625 166.015625 728.410156 137.046875 C 714.78125 134.921875 701.128906 132.792969 687.457031 131.066406 C 674.992188 129.480469 662.484375 128.175781 649.980469 127.070312 C 634.84375 125.707031 619.6875 124.523438 604.492188 124.039062 C 446.0625 119.140625 213.863281 181.914062 104.097656 18.226562 C 102.050781 15.175781 60.433594 -37.621094 64.929688 -50.707031 C 105.199219 -168.042969 963.902344 -68.414062 1107.054688 -74.996094 C 1402.367188 -88.589844 1690.496094 -123.898438 1987.035156 -113.882812 C 2372.683594 -100.855469 2383.425781 0.621094 2365.015625 387.457031 C 2356.746094 561.660156 2377.984375 768.449219 2334.824219 934.382812 " fill-opacity="1" fill-rule="evenodd"/></g><g clip-path="url(#11f751dd8d)"><path fill="#3f9fc4" d="M 2326.234375 2169.242188 C 2359.859375 1858.269531 2469.144531 1331.554688 2172.121094 1106.402344 C 2045.472656 1010.40625 1896.902344 940.183594 1810.664062 799.605469 C 1700.492188 620.058594 1700.875 395.425781 1519.28125 259.621094 C 1284.792969 84.253906 547.839844 62.933594 541.839844 -41.433594 C 534.851562 -163.125 1139.796875 -141.003906 1206.964844 -140.722656 C 1355.175781 -140.058594 2249.226562 -140.078125 2326.65625 11.683594 C 2370.296875 97.242188 2327.738281 218.511719 2331.714844 308.421875 " fill-opacity="1" fill-rule="evenodd"/></g></svg>