<svg xmlns="http://www.w3.org/2000/svg" xmlns:xlink="http://www.w3.org/1999/xlink" width="3000" zoomAndPan="magnify" viewBox="0 0 2250 2250.000011" height="3000" preserveAspectRatio="xMidYMid meet" version="1.0"><defs><clipPath id="933d27ea3e"><path d="M 498.1875 481.003906 L 1705 481.003906 L 1705 1767.808594 L 498.1875 1767.808594 Z M 498.1875 481.003906 " clip-rule="nonzero"/></clipPath><clipPath id="ac91704ef6"><path d="M 498.1875 481.003906 L 1422 481.003906 L 1422 1656 L 498.1875 1656 Z M 498.1875 481.003906 " clip-rule="nonzero"/></clipPath></defs><g clip-path="url(#933d27ea3e)"><path fill="#20448e" d="M 483.605469 1819.890625 C 485.878906 1781.199219 489.179688 1742.464844 499.335938 1704.929688 C 546.066406 1532.246094 798.003906 1525.710938 866.457031 1358.683594 C 952.511719 1148.710938 791.207031 903.175781 994.265625 735.625 C 1154.09375 603.746094 1751.652344 695.761719 1702.015625 375.804688 C 1638.980469 -30.492188 692.6875 309.238281 498.1875 444.851562 C 171.90625 672.363281 277.203125 1300.027344 332.679688 1623.039062 " fill-opacity="1" fill-rule="evenodd"/></g><g clip-path="url(#ac91704ef6)"><path fill="#3f9fc4" d="M 382.207031 477.714844 C 402.058594 460.960938 424.914062 445.972656 451.132812 433.042969 C 472.824219 422.367188 531.351562 411.226562 609.246094 402.46875 C 793.59375 381.726562 1085.207031 375.554688 1260.445312 428.324219 C 1361.847656 458.863281 1424.296875 508.359375 1394.742188 590.078125 C 1363.855469 675.488281 1287.8125 726.617188 1202.78125 766.992188 C 1115.128906 808.617188 1017.804688 838.742188 947.167969 880.5625 C 853 936.3125 775.410156 1014.207031 719.558594 1108.117188 C 678.222656 1177.609375 649.476562 1255.265625 619.613281 1329.898438 C 557.316406 1485.589844 469.035156 1523.5 321.722656 1638.191406 C 317.570312 1641.421875 316.824219 1647.414062 320.054688 1651.566406 C 323.285156 1655.71875 329.277344 1656.464844 333.425781 1653.234375 C 484.136719 1535.902344 573.574219 1496.265625 637.308594 1336.984375 C 666.808594 1263.261719 695.105469 1186.507812 735.933594 1117.863281 C 790.15625 1026.707031 865.464844 951.085938 956.875 896.96875 C 1027.074219 855.40625 1123.847656 825.582031 1210.957031 784.214844 C 1300.691406 741.601562 1380.070312 686.699219 1412.664062 596.5625 C 1446.019531 504.332031 1380.390625 444.542969 1265.941406 410.074219 C 1088.644531 356.683594 793.628906 362.542969 607.117188 383.527344 C 526.066406 392.640625 465.285156 404.828125 442.710938 415.945312 C 301.3125 485.601562 252.039062 612.28125 244.035156 752.222656 C 236.183594 889.476562 268.269531 1039.507812 289.78125 1158.855469 C 290.714844 1164.035156 295.671875 1167.480469 300.847656 1166.546875 C 306.023438 1165.613281 309.46875 1160.652344 308.535156 1155.476562 C 287.257812 1037.429688 255.296875 889.066406 263.0625 753.3125 C 265.597656 708.945312 272.402344 665.925781 285.332031 625.828125 L 407.785156 1231.265625 C 500.257812 1208.71875 529.269531 1210.945312 580.769531 1136.070312 C 654.132812 1029.394531 579.234375 889.683594 676.257812 784.46875 C 734.515625 721.289062 993.167969 581.15625 954.101562 490.558594 C 935.625 447.710938 802.40625 438.441406 763.664062 435.261719 C 708.757812 430.757812 654.949219 412.695312 599.730469 412.027344 C 526.304688 411.144531 445.6875 434.046875 382.207031 477.714844 Z M 382.207031 477.714844 " fill-opacity="1" fill-rule="evenodd"/></g></svg>