<svg xmlns="http://www.w3.org/2000/svg" xmlns:xlink="http://www.w3.org/1999/xlink" width="3000" zoomAndPan="magnify" viewBox="0 0 2250 2250.000011" height="3000" preserveAspectRatio="xMidYMid meet" version="1.0"><defs><clipPath id="31b22f2674"><path d="M 450.300781 313.5 L 1799.699219 313.5 L 1799.699219 1662.898438 L 450.300781 1662.898438 Z M 450.300781 313.5 " clip-rule="nonzero"/></clipPath><clipPath id="4ed6f5dc59"><path d="M 736 313.5 L 1799.699219 313.5 L 1799.699219 1662.898438 L 736 1662.898438 Z M 736 313.5 " clip-rule="nonzero"/></clipPath></defs><g clip-path="url(#31b22f2674)"><path fill="#3f9fc4" d="M 1797.75 1677.34375 C 1807.382812 1540.679688 1797.414062 1387.910156 1735.964844 1261.640625 C 1670.582031 1127.300781 1521.773438 1101.210938 1429.800781 994.308594 C 1296.300781 839.140625 1457.378906 687.894531 1180.9375 524.554688 C 1080.542969 465.230469 968.882812 416.828125 852.972656 398.796875 C 844.488281 397.472656 835.992188 396.148438 827.480469 395.074219 C 819.722656 394.085938 811.9375 393.277344 804.15625 392.589844 C 794.734375 391.738281 785.300781 391 775.84375 390.703125 C 677.238281 387.652344 532.714844 426.722656 464.394531 324.84375 C 463.121094 322.945312 437.21875 290.085938 440.015625 281.9375 C 465.082031 208.90625 999.542969 270.917969 1088.640625 266.820312 C 1272.445312 258.359375 1451.78125 236.382812 1636.347656 242.617188 C 1876.378906 250.726562 1883.0625 313.886719 1871.605469 554.652344 C 1866.457031 663.082031 1879.675781 791.785156 1852.8125 895.066406 " fill-opacity="1" fill-rule="evenodd"/></g><g clip-path="url(#4ed6f5dc59)"><path fill="#20448e" d="M 1847.464844 1663.648438 C 1868.394531 1470.097656 1936.414062 1142.269531 1751.546875 1002.128906 C 1672.71875 942.382812 1580.246094 898.675781 1526.570312 811.175781 C 1458.003906 699.425781 1458.238281 559.613281 1345.214844 475.089844 C 1199.265625 365.9375 740.582031 352.667969 736.847656 287.710938 C 732.5 211.96875 1109.019531 225.738281 1150.824219 225.914062 C 1243.074219 226.324219 1799.539062 226.3125 1847.730469 320.769531 C 1874.890625 374.023438 1848.402344 449.5 1850.878906 505.464844 " fill-opacity="1" fill-rule="evenodd"/></g></svg>