<svg xmlns="http://www.w3.org/2000/svg" xmlns:xlink="http://www.w3.org/1999/xlink" width="3000" zoomAndPan="magnify" viewBox="0 0 2250 2250.000011" height="3000" preserveAspectRatio="xMidYMid meet" version="1.0"><defs><clipPath id="b7e73f46c6"><path d="M 536.277344 470.484375 L 1844.445312 470.484375 L 1844.445312 1778.652344 L 536.277344 1778.652344 Z M 536.277344 470.484375 " clip-rule="nonzero"/></clipPath><clipPath id="c711647319"><path d="M 536.277344 543 L 1679 543 L 1679 1778.652344 L 536.277344 1778.652344 Z M 536.277344 543 " clip-rule="nonzero"/></clipPath></defs><g clip-path="url(#b7e73f46c6)"><path fill="#3f9fc4" d="M 505.390625 470.398438 C 646.914062 510.492188 633.492188 741.371094 685.433594 837.375 C 754.570312 965.152344 920.816406 927.589844 997.382812 1036.59375 C 1097.382812 1178.929688 983.875 1330.617188 1129.964844 1478.207031 C 1178.175781 1526.925781 1242.90625 1557.886719 1309.453125 1572.746094 C 1319.410156 1574.964844 1329.511719 1576.878906 1339.636719 1578.1875 C 1428.796875 1589.753906 1521.097656 1578.308594 1609.011719 1598.996094 C 1709.996094 1622.773438 1954.464844 1743.195312 1845.824219 1880.433594 C 1734.65625 2020.867188 1338.679688 1987.789062 1185.175781 1967.5 C 1023.484375 1946.109375 772.242188 1995.238281 634.582031 1910.144531 C 467.003906 1806.558594 459.398438 1399.453125 466.3125 1238.714844 C 470.070312 1151.347656 490.429688 1065.46875 492.742188 977.871094 C 495.53125 872.355469 468.46875 755.070312 496.511719 652.039062 " fill-opacity="1" fill-rule="evenodd"/></g><g clip-path="url(#c711647319)"><path fill="#20448e" d="M 619.988281 956.308594 C 667.6875 1048.269531 776.179688 1102.292969 828.277344 1194.613281 C 882.09375 1290.015625 859.199219 1404.5625 912.433594 1502.070312 C 933.546875 1540.746094 962.582031 1572.832031 1001.113281 1594.71875 C 1074.949219 1636.640625 1417.328125 1714.925781 1372.367188 1847.113281 C 1332.84375 1963.285156 1070.761719 1924.875 975.046875 1922.730469 C 670.777344 1915.875 504.746094 2025.738281 505.617188 1667.152344 L 500.011719 543.304688 C 530.933594 570.871094 549.382812 604.472656 561.058594 641.320312 C 598.304688 705.636719 646.1875 791.445312 686.351562 828.535156 C 696.722656 838.101562 710.25 843.105469 726.070312 846.53125 C 743.476562 850.300781 763.523438 852.066406 785.445312 854.671875 C 854.089844 862.847656 940.425781 878.8125 1023.691406 981.226562 C 1079.152344 1049.433594 1096.730469 1134.546875 1116.253906 1218.269531 C 1135.019531 1298.746094 1155.597656 1377.964844 1217.773438 1437.753906 C 1300.089844 1516.871094 1398.664062 1550.242188 1484.019531 1597.277344 C 1572.296875 1645.921875 1646.921875 1708.566406 1677.847656 1846.070312 C 1679.023438 1851.289062 1675.738281 1856.476562 1670.519531 1857.648438 C 1665.308594 1858.824219 1660.113281 1855.542969 1658.941406 1850.320312 C 1629.578125 1719.757812 1558.5 1660.445312 1474.667969 1614.257812 C 1387.929688 1566.449219 1287.988281 1532.132812 1204.351562 1451.71875 C 1139.34375 1389.230469 1116.992188 1306.800781 1097.382812 1222.679688 C 1078.511719 1141.804688 1062.234375 1059.339844 1008.660156 993.445312 C 929.878906 896.570312 848.09375 881.648438 783.15625 873.917969 C 760.554688 871.230469 739.914062 869.351562 721.976562 865.464844 C 702.449219 861.25 685.988281 854.574219 673.210938 842.777344 C 642.347656 814.277344 606.832031 757.636719 574.914062 703.457031 C 586.351562 779.003906 584.15625 860.753906 608.117188 928.945312 C 608.285156 929.445312 608.457031 929.941406 608.636719 930.4375 C 655.769531 951.089844 704.230469 970.007812 743.28125 1002.824219 C 811.585938 1060.199219 857.128906 1135.953125 902.25 1212.09375 C 946.300781 1286.40625 989.945312 1361.066406 1055.570312 1418.128906 C 1129.179688 1482.132812 1200.863281 1521.679688 1265.433594 1562.960938 C 1364.613281 1626.371094 1447.355469 1693.765625 1496.195312 1855.214844 C 1497.742188 1860.339844 1494.847656 1865.753906 1489.726562 1867.292969 C 1484.601562 1868.84375 1479.1875 1865.945312 1477.648438 1860.824219 C 1430.566406 1705.199219 1350.585938 1640.410156 1254.992188 1579.289062 C 1189.707031 1537.546875 1117.285156 1497.480469 1042.851562 1432.761719 C 975.652344 1374.328125 930.6875 1298.070312 885.582031 1221.976562 C 841.5625 1147.714844 797.4375 1073.621094 730.816406 1017.660156 C 698.40625 990.441406 659.28125 973.195312 619.988281 956.308594 Z M 619.988281 956.308594 " fill-opacity="1" fill-rule="evenodd"/></g></svg>