<svg xmlns="http://www.w3.org/2000/svg" xmlns:xlink="http://www.w3.org/1999/xlink" width="3000" zoomAndPan="magnify" viewBox="0 0 2250 2250.000011" height="3000" preserveAspectRatio="xMidYMid meet" version="1.0"><defs><clipPath id="c84c04bbee"><path d="M 476.539062 369.066406 L 1773.460938 369.066406 L 1773.460938 1665.992188 L 476.539062 1665.992188 Z M 476.539062 369.066406 " clip-rule="nonzero"/></clipPath><clipPath id="b5a82c3cfe"><path d="M 476.539062 369.066406 L 1689 369.066406 L 1689 1665.992188 L 476.539062 1665.992188 Z M 476.539062 369.066406 " clip-rule="nonzero"/></clipPath></defs><g clip-path="url(#c84c04bbee)"><path fill="#20448e" d="M 462.621094 355.199219 C 616.054688 471.226562 542.777344 639.609375 654.253906 803.511719 C 717.527344 896.542969 871.679688 858.871094 925.695312 978.320312 C 970.175781 1076.683594 909.941406 1257.820312 1007.066406 1328.058594 C 1111.082031 1403.269531 1249.253906 1326.679688 1365.246094 1359.367188 C 1581.914062 1420.429688 1483.324219 1537.042969 1601.5 1608.769531 C 1642.929688 1633.90625 1888.011719 1589.941406 1820.644531 1721.507812 C 1687.960938 1980.664062 1210.515625 1890.121094 984.164062 1874.460938 C 705.578125 1855.1875 472.550781 1859.859375 444.691406 1549.039062 " fill-opacity="1" fill-rule="evenodd"/></g><g clip-path="url(#b5a82c3cfe)"><path fill="#3f9fc4" d="M 446.566406 432.535156 C 557.019531 552.113281 478.015625 682.828125 541.363281 815.304688 C 601.921875 941.960938 772.09375 937.890625 795.917969 1115.292969 C 805.199219 1184.351562 770.386719 1299.128906 823.8125 1357.769531 C 865.125 1403.101562 906.769531 1430.660156 965.742188 1446.582031 C 1064.273438 1473.183594 1543.558594 1460.835938 1421.9375 1691.859375 C 1293.335938 1936.101562 400.621094 2028.78125 432.625 1655.976562 Z M 461.121094 383.539062 C 559.902344 398.71875 596.660156 482.441406 622.527344 576.839844 C 649.835938 676.449219 665 788.128906 718.523438 853.132812 C 754.777344 897.167969 803.640625 912.503906 853.546875 925.808594 C 900.019531 938.203125 947.429688 948.695312 984.25 983.679688 C 1034.253906 1031.195312 1044.015625 1094.589844 1056.011719 1161.609375 C 1068.667969 1232.339844 1083.378906 1307.007812 1143.109375 1373.464844 C 1169.492188 1402.835938 1219.050781 1421.703125 1276.597656 1439.078125 C 1358.808594 1463.910156 1457.746094 1486.34375 1522.820312 1539.445312 C 1558.125 1568.242188 1581.710938 1605.457031 1602.917969 1644.4375 C 1624.894531 1684.820312 1644.324219 1727.101562 1670.5625 1764.617188 C 1673.601562 1768.964844 1679.59375 1770.023438 1683.9375 1766.984375 C 1688.285156 1763.945312 1689.34375 1757.953125 1686.304688 1753.605469 C 1660.472656 1716.667969 1641.429688 1675.011719 1619.789062 1635.25 C 1597.394531 1594.085938 1572.246094 1554.972656 1534.972656 1524.554688 C 1468.074219 1469.964844 1366.660156 1446.210938 1282.15625 1420.679688 C 1228.585938 1404.503906 1181.96875 1387.957031 1157.398438 1360.613281 C 1100.40625 1297.210938 1086.992188 1225.710938 1074.925781 1158.222656 C 1062.183594 1087.046875 1050.597656 1020.21875 997.480469 969.746094 C 958.226562 932.449219 908.042969 920.453125 858.507812 907.242188 C 812.40625 894.957031 766.847656 881.59375 733.367188 840.921875 C 681.296875 777.683594 667.621094 668.667969 641.054688 571.761719 C 613.0625 469.605469 570.9375 380.96875 464.039062 364.554688 C 458.800781 363.75 453.890625 367.351562 453.085938 372.585938 C 452.28125 377.835938 455.882812 382.746094 461.121094 383.539062 Z M 461.121094 383.539062 " fill-opacity="1" fill-rule="evenodd"/></g></svg>