<svg xmlns="http://www.w3.org/2000/svg" xmlns:xlink="http://www.w3.org/1999/xlink" width="3000" zoomAndPan="magnify" viewBox="0 0 2250 2250.000011" height="3000" preserveAspectRatio="xMidYMid meet" version="1.0"><defs><clipPath id="aa2e0b2426"><path d="M 545 481.003906 L 1751.628906 481.003906 L 1751.628906 1767.808594 L 545 1767.808594 Z M 545 481.003906 " clip-rule="nonzero"/></clipPath><clipPath id="00f7b0b372"><path d="M 828 481.003906 L 1751.628906 481.003906 L 1751.628906 1656 L 828 1656 Z M 828 481.003906 " clip-rule="nonzero"/></clipPath></defs><g clip-path="url(#aa2e0b2426)"><path fill="#20448e" d="M 1766.382812 1819.890625 C 1764.109375 1781.199219 1760.8125 1742.464844 1750.65625 1704.929688 C 1703.925781 1532.246094 1451.984375 1525.710938 1383.53125 1358.683594 C 1297.480469 1148.710938 1458.78125 903.175781 1255.722656 735.625 C 1095.898438 603.746094 498.335938 695.761719 547.972656 375.804688 C 611.007812 -30.492188 1557.300781 309.238281 1751.804688 444.851562 C 2078.082031 672.363281 1972.785156 1300.027344 1917.308594 1623.039062 " fill-opacity="1" fill-rule="evenodd"/></g><g clip-path="url(#00f7b0b372)"><path fill="#3f9fc4" d="M 1867.78125 477.714844 C 1847.933594 460.960938 1825.078125 445.972656 1798.859375 433.042969 C 1777.164062 422.367188 1718.636719 411.226562 1640.746094 402.46875 C 1456.394531 381.726562 1164.785156 375.554688 989.542969 428.324219 C 888.140625 458.863281 825.695312 508.359375 855.246094 590.078125 C 886.132812 675.488281 962.179688 726.617188 1047.207031 766.992188 C 1134.859375 808.617188 1232.1875 838.742188 1302.820312 880.5625 C 1396.992188 936.3125 1474.578125 1014.207031 1530.433594 1108.117188 C 1571.765625 1177.609375 1600.511719 1255.265625 1630.375 1329.898438 C 1692.671875 1485.589844 1780.957031 1523.5 1928.269531 1638.191406 C 1932.417969 1641.421875 1933.164062 1647.414062 1929.933594 1651.566406 C 1926.703125 1655.71875 1920.714844 1656.464844 1916.5625 1653.234375 C 1765.851562 1535.902344 1676.417969 1496.265625 1612.683594 1336.984375 C 1583.183594 1263.261719 1554.882812 1186.507812 1514.054688 1117.863281 C 1459.835938 1026.707031 1384.523438 951.085938 1293.117188 896.96875 C 1222.917969 855.40625 1126.144531 825.582031 1039.035156 784.214844 C 949.300781 741.601562 869.921875 686.699219 837.324219 596.5625 C 803.96875 504.332031 869.597656 444.542969 984.050781 410.074219 C 1161.34375 356.683594 1456.363281 362.542969 1642.875 383.527344 C 1723.921875 392.640625 1784.703125 404.828125 1807.277344 415.945312 C 1948.679688 485.601562 1997.949219 612.28125 2005.957031 752.222656 C 2013.804688 889.476562 1981.722656 1039.507812 1960.210938 1158.855469 C 1959.277344 1164.035156 1954.316406 1167.480469 1949.140625 1166.546875 C 1943.964844 1165.613281 1940.519531 1160.652344 1941.453125 1155.476562 C 1962.730469 1037.429688 1994.691406 889.066406 1986.929688 753.3125 C 1984.390625 708.945312 1977.585938 665.925781 1964.65625 625.828125 L 1842.203125 1231.265625 C 1749.730469 1208.71875 1720.71875 1210.945312 1669.222656 1136.070312 C 1595.855469 1029.394531 1670.757812 889.683594 1573.734375 784.46875 C 1515.472656 721.289062 1256.824219 581.15625 1295.886719 490.558594 C 1314.367188 447.710938 1447.582031 438.441406 1486.328125 435.261719 C 1541.230469 430.757812 1595.042969 412.695312 1650.261719 412.027344 C 1723.683594 411.144531 1804.304688 434.046875 1867.78125 477.714844 Z M 1867.78125 477.714844 " fill-opacity="1" fill-rule="evenodd"/></g></svg>